<svg id="vuesax_outline_note-2" data-name="vuesax/outline/note-2" xmlns="http://www.w3.org/2000/svg" width="16" height="16" viewBox="0 0 16 16">
  <g id="note-2">
    <path id="Vector" d="M4.582,12.2a5.216,5.216,0,0,0,.543-.026,7.175,7.175,0,0,0,1.138-.192l1.112-.265c3.051-.721,4.051-2.336,3.336-5.381L10.062,3.56A7.034,7.034,0,0,0,9.533,2C8.394-.352,6.217-.14,4.668.224L3.563.482A4.585,4.585,0,0,0,.485,2.3,4.569,4.569,0,0,0,.22,5.863L.869,8.63C1.438,11.052,2.623,12.2,4.582,12.2ZM6.363.992A2.288,2.288,0,0,1,8.639,2.428,6.728,6.728,0,0,1,9.1,3.785l.649,2.773c.589,2.5-.093,3.594-2.595,4.19l-1.112.265a6.82,6.82,0,0,1-1,.165c-1.8.179-2.694-.609-3.2-2.773L1.193,5.638a3.694,3.694,0,0,1,.139-2.813A3.668,3.668,0,0,1,3.794,1.449L4.9,1.19A6.345,6.345,0,0,1,6.363.992Z" transform="translate(0.839 1.159)" fill="#383838"/>
    <path id="Vector-2" data-name="Vector" d="M4.96,11.845c1.7,0,2.786-1.019,3.481-3.17L9.289,6.06c.94-2.912.1-4.554-2.8-5.494L5.444.229A6.9,6.9,0,0,0,4.61.011.479.479,0,0,0,4.12.2a.513.513,0,0,0-.053.523,6.169,6.169,0,0,1,.45,1.35l.649,2.773c.589,2.5-.093,3.594-2.595,4.19L1.459,9.3a6.82,6.82,0,0,1-1,.165.509.509,0,0,0-.443.371.5.5,0,0,0,.2.536,6.547,6.547,0,0,0,1.681.774l1.046.344A6.809,6.809,0,0,0,4.96,11.845Zm.364-10.61.854.278C8.541,2.274,9.1,3.386,8.343,5.756L7.5,8.37c-.768,2.363-1.88,2.932-4.243,2.171L2.207,10.2l-.113-.04.7-.165C5.847,9.27,6.847,7.655,6.132,4.611L5.483,1.837C5.437,1.626,5.384,1.42,5.324,1.235Z" transform="translate(5.526 2.997)" fill="#383838"/>
    <path id="Vector-3" data-name="Vector" d="M.492,1.8a.9.9,0,0,0,.126-.013L3.827.975a.5.5,0,0,0-.245-.96L.372.829A.494.494,0,0,0,.492,1.8Z" transform="translate(3.855 5.196)" fill="#383838"/>
    <path id="Vector-4" data-name="Vector" d="M.492,1.478a.9.9,0,0,0,.126-.013L2.543.975A.5.5,0,0,0,2.3.015L.372.5a.5.5,0,0,0-.357.6A.482.482,0,0,0,.492,1.478Z" transform="translate(5.808 7.777)" fill="#383838"/>
    <path id="Vector-5" data-name="Vector" d="M16,0H0V16H16Z" transform="translate(0)" fill="none" opacity="0"/>
  </g>
</svg>
