<svg xmlns="http://www.w3.org/2000/svg" width="22" height="22" viewBox="0 0 22 22">
  <g id="vuesax_outline_calendar-2" data-name="vuesax/outline/calendar-2" transform="translate(-172 -252)">
    <g id="calendar-2" transform="translate(172 252)">
      <path id="Vector" d="M.769,4.615A.775.775,0,0,1,0,3.846V.769A.775.775,0,0,1,.769,0a.775.775,0,0,1,.769.769V3.846A.775.775,0,0,1,.769,4.615Z" transform="translate(6.593 1.282)"/>
      <path id="Vector-2" data-name="Vector" d="M.769,4.615A.775.775,0,0,1,0,3.846V.769A.775.775,0,0,1,.769,0a.775.775,0,0,1,.769.769V3.846A.775.775,0,0,1,.769,4.615Z" transform="translate(13.868 1.282)"/>
      <path id="Vector-3" data-name="Vector" d="M15.7,1.538H.663A.727.727,0,0,1,0,.769.727.727,0,0,1,.663,0H15.7a.727.727,0,0,1,.663.769A.727.727,0,0,1,15.7,1.538Z" transform="translate(2.82 7.584)"/>
      <path id="Vector-4" data-name="Vector" d="M12.258,17.9H5.126C1.872,17.9,0,16.018,0,12.752V5.146C0,1.879,1.872,0,5.126,0h7.132c3.254,0,5.126,1.879,5.126,5.146v7.606C17.385,16.018,15.512,17.9,12.258,17.9ZM5.126,1.342c-2.55,0-3.789,1.244-3.789,3.8v7.606c0,2.559,1.239,3.8,3.789,3.8h7.132c2.55,0,3.789-1.244,3.789-3.8V5.146c0-2.559-1.239-3.8-3.789-3.8Z" transform="translate(2.308 2.82)"/>
      <path id="Vector-5" data-name="Vector" d="M1.026,2.051a1.021,1.021,0,0,1-.39-.082A1.184,1.184,0,0,1,.3,1.754a1.184,1.184,0,0,1-.215-.338A1.021,1.021,0,0,1,0,1.026,1.078,1.078,0,0,1,.3.3,1.184,1.184,0,0,1,.636.082.981.981,0,0,1,1.231.021a.652.652,0,0,1,.185.062A.777.777,0,0,1,1.6.174L1.754.3a1.616,1.616,0,0,1,.123.154.777.777,0,0,1,.092.185A.652.652,0,0,1,2.031.82a1.39,1.39,0,0,1,.021.205,1.078,1.078,0,0,1-.3.728A1.078,1.078,0,0,1,1.026,2.051Z" transform="translate(6.801 11.335)"/>
      <path id="Vector-6" data-name="Vector" d="M1.026,2.05a1.078,1.078,0,0,1-.728-.3L.174,1.6a.777.777,0,0,1-.092-.185A.652.652,0,0,1,.021,1.23,1.39,1.39,0,0,1,0,1.024,1.021,1.021,0,0,1,.082.635,1.184,1.184,0,0,1,.3.3,1.028,1.028,0,0,1,1.415.081,1.059,1.059,0,0,1,1.754.3a1.078,1.078,0,0,1,.3.728,1.39,1.39,0,0,1-.021.205.652.652,0,0,1-.062.185.777.777,0,0,1-.092.185l-.123.154a1.059,1.059,0,0,1-.338.215A1.021,1.021,0,0,1,1.026,2.05Z" transform="translate(9.974 11.336)"/>
      <path id="Vector-7" data-name="Vector" d="M1.026,2.05a1.021,1.021,0,0,1-.39-.082A1.184,1.184,0,0,1,.3,1.753a1.059,1.059,0,0,1-.215-.338A1.021,1.021,0,0,1,0,1.024,1.078,1.078,0,0,1,.3.3,1.184,1.184,0,0,1,.636.081,1.024,1.024,0,0,1,1.754.3,1.616,1.616,0,0,1,1.877.45a.777.777,0,0,1,.092.185A.619.619,0,0,1,2.031.83a1.257,1.257,0,0,1,.021.195,1.078,1.078,0,0,1-.3.728A1.078,1.078,0,0,1,1.026,2.05Z" transform="translate(6.801 14.509)"/>
      <path id="Vector-8" data-name="Vector" d="M0,0H22V22H0Z" fill="none" opacity="0"/>
    </g>
  </g>
</svg>
