<svg xmlns="http://www.w3.org/2000/svg" width="21" height="21" viewBox="0 0 21 21">
  <g id="vuesax_outline_calendar" data-name="vuesax/outline/calendar" transform="translate(-300 -252)">
    <g id="calendar" transform="translate(300 252)">
      <path id="Vector" d="M.661,3.968A.666.666,0,0,1,0,3.307V.661A.666.666,0,0,1,.661,0a.666.666,0,0,1,.661.661V3.307A.666.666,0,0,1,.661,3.968Z" transform="translate(6.34 1.102)" fill="#868383"/>
      <path id="Vector-2" data-name="Vector" d="M.661,3.968A.666.666,0,0,1,0,3.307V.661A.666.666,0,0,1,.661,0a.666.666,0,0,1,.661.661V3.307A.666.666,0,0,1,.661,3.968Z" transform="translate(13.337 1.102)" fill="#868383"/>
      <path id="Vector-3" data-name="Vector" d="M11.136,17.473H5.9c-4.909,0-5.9-2.315-5.9-6.054V6.028C0,1.887,1.4.2,4.987,0h7.057c3.59.2,4.987,1.887,4.987,6.028v5.39C17.032,15.157,16.045,17.473,11.136,17.473ZM5.022,1.31c-2.446.14-3.712.909-3.712,4.718v5.39c0,3.346.638,4.744,4.585,4.744h5.24c3.948,0,4.585-1.4,4.585-4.744V6.028c0-3.8-1.258-4.578-3.729-4.718Z" transform="translate(1.984 2.425)" fill="#868383"/>
      <path id="Vector-4" data-name="Vector" d="M15.936,1.323H.655A.661.661,0,0,1,.655,0H15.936a.661.661,0,0,1,0,1.323Z" transform="translate(2.205 14.736)" fill="#868383"/>
      <path id="Vector-5" data-name="Vector" d="M2.2,0a1.78,1.78,0,0,0-2,1.737A1.433,1.433,0,0,0,.847,2.963,1.629,1.629,0,0,0,0,4.392C0,5.485.838,6.164,2.2,6.164s2.2-.679,2.2-1.773a1.61,1.61,0,0,0-.855-1.429A1.424,1.424,0,0,0,4.2,1.737,1.773,1.773,0,0,0,2.2,0Zm0,2.5A.716.716,0,0,1,1.411,1.8.7.7,0,0,1,2.2,1.1.7.7,0,0,1,3,1.8.716.716,0,0,1,2.2,2.5Zm0,2.566c-.582,0-1.005-.291-1.005-.82s.423-.811,1.005-.811,1.005.291,1.005.811S2.787,5.071,2.2,5.071Z" transform="translate(8.295 7.195)" fill="#868383"/>
      <path id="Vector-6" data-name="Vector" d="M0,0H21V21H0Z" fill="none" opacity="0"/>
    </g>
  </g>
</svg>
