<svg xmlns="http://www.w3.org/2000/svg" width="14" height="14" viewBox="0 0 14 14">
  <g id="vuesax_outline_call" data-name="vuesax/outline/call" transform="translate(-108 -188)">
    <g id="call" transform="translate(108 188)">
      <path id="Vector" d="M9.471,12.568A5.348,5.348,0,0,1,7.4,12.107a10.976,10.976,0,0,1-2.1-1.2,18.248,18.248,0,0,1-1.97-1.678A17.465,17.465,0,0,1,1.649,7.26,10.909,10.909,0,0,1,.456,5.179,5.412,5.412,0,0,1,0,3.092,3.523,3.523,0,0,1,.24,1.8,3.122,3.122,0,0,1,1.023.666,2.123,2.123,0,0,1,2.537,0,1.581,1.581,0,0,1,3.2.146,1.338,1.338,0,0,1,3.759.62L5.115,2.531a2.265,2.265,0,0,1,.281.5,1.313,1.313,0,0,1,.117.52,1.24,1.24,0,0,1-.187.643,2.338,2.338,0,0,1-.392.5l-.4.415a.285.285,0,0,0,.018.041,4.5,4.5,0,0,0,.479.649c.286.327.555.625.824.9.345.339.631.608.9.83a3.808,3.808,0,0,0,.678.485l-.012.029.427-.421a2.183,2.183,0,0,1,.526-.4,1.234,1.234,0,0,1,1.14-.064,2.662,2.662,0,0,1,.491.275L11.949,8.8a1.256,1.256,0,0,1,.468.555,1.692,1.692,0,0,1,.129.631,1.95,1.95,0,0,1-.187.824,2.723,2.723,0,0,1-.468.7,3,3,0,0,1-1.117.8A3.452,3.452,0,0,1,9.471,12.568ZM2.537.877a1.281,1.281,0,0,0-.906.421,2.243,2.243,0,0,0-.573.824,2.558,2.558,0,0,0-.181.97,4.507,4.507,0,0,0,.386,1.742,9.758,9.758,0,0,0,1.1,1.906A16.173,16.173,0,0,0,3.946,8.6a16.46,16.46,0,0,0,1.865,1.59,9.5,9.5,0,0,0,1.923,1.1,3.487,3.487,0,0,0,2.707.2,2.158,2.158,0,0,0,.8-.579,1.9,1.9,0,0,0,.327-.491,1.036,1.036,0,0,0,.105-.45.7.7,0,0,0-.064-.292.442.442,0,0,0-.164-.175L9.506,8.131a1.676,1.676,0,0,0-.322-.181.307.307,0,0,0-.38.018,1.333,1.333,0,0,0-.339.263l-.444.438a.833.833,0,0,1-.848.175l-.158-.07a4.984,4.984,0,0,1-.83-.59c-.281-.24-.585-.52-.953-.883-.286-.292-.573-.6-.871-.947a4.988,4.988,0,0,1-.6-.824l-.07-.175a1.091,1.091,0,0,1-.047-.292.75.75,0,0,1,.222-.544l.438-.456a1.693,1.693,0,0,0,.263-.327.375.375,0,0,0,.064-.2.543.543,0,0,0-.047-.187A1.677,1.677,0,0,0,4.4,3.04L3.046,1.122A.539.539,0,0,0,2.829.941.732.732,0,0,0,2.537.877ZM7.424,8.044l-.094.4.158-.409A.072.072,0,0,0,7.424,8.044Z" transform="translate(0.716 0.716)" fill="#292929"/>
      <path id="Vector-2" data-name="Vector" d="M0,0H14V14H0Z" fill="none" opacity="0"/>
    </g>
  </g>
</svg>
