<svg id="Group_10829" data-name="Group 10829" xmlns="http://www.w3.org/2000/svg" width="116.051" height="106.897" viewBox="0 0 116.051 106.897">
  <path id="Path_13226" data-name="Path 13226" d="M398.065,216.639h-2.52v-.366h2.49a3.062,3.062,0,0,0,2.318-1.28c1.615-1.96,2.942-6.812.088-18.8a72.6,72.6,0,0,1,.917-35.726,1.784,1.784,0,0,0-1.716-2.278H362.585a1.792,1.792,0,0,0-1.445.736,14.005,14.005,0,0,0-2.127,5.791l-.36-.065a14.357,14.357,0,0,1,2.191-5.941,2.159,2.159,0,0,1,1.741-.886h37.058a2.15,2.15,0,0,1,2.068,2.745,72.222,72.222,0,0,0-.913,35.54c2.894,12.154,1.5,17.111-.174,19.13A3.467,3.467,0,0,1,398.065,216.639Z" transform="translate(-344.778 -157.825)" fill="#d1d1d1"/>
  <path id="Path_13227" data-name="Path 13227" d="M361.565,253.139h-2.52v-.366h2.49a3.063,3.063,0,0,0,2.318-1.28c1.615-1.96,2.942-6.812.088-18.8a72.6,72.6,0,0,1,.917-35.726,1.784,1.784,0,0,0-1.716-2.278H326.085a1.792,1.792,0,0,0-1.445.736,14,14,0,0,0-2.127,5.791l-.36-.065a14.356,14.356,0,0,1,2.191-5.941,2.159,2.159,0,0,1,1.741-.886h37.058a2.15,2.15,0,0,1,2.068,2.745,72.224,72.224,0,0,0-.913,35.54c2.894,12.154,1.5,17.111-.174,19.13A3.467,3.467,0,0,1,361.565,253.139Z" transform="translate(-314.955 -187.648)" fill="#a8a8a8"/>
  <path id="Path_13228" data-name="Path 13228" d="M322.74,289.639H286.215a2.149,2.149,0,0,1-2-2.946c1.324-3.308,3.106-11.243.17-27.228-3.467-18.875-.363-25.7,1.132-27.753a2.159,2.159,0,0,1,1.741-.886h37.058a2.15,2.15,0,0,1,2.068,2.745,72.224,72.224,0,0,0-.913,35.54c2.894,12.154,1.5,17.111-.174,19.13A3.467,3.467,0,0,1,322.74,289.639Zm-35.48-58.448a1.792,1.792,0,0,0-1.445.736c-1.468,2.019-4.51,8.736-1.068,27.472,2.8,15.27,1.444,23.345-.191,27.43a1.754,1.754,0,0,0,.179,1.658,1.786,1.786,0,0,0,1.481.786h36.5a3.059,3.059,0,0,0,2.318-1.28c1.615-1.96,2.942-6.812.088-18.8a72.6,72.6,0,0,1,.917-35.726,1.784,1.784,0,0,0-1.716-2.278Z" transform="translate(-282.806 -217.471)" fill="#3f3d56"/>
  <path id="Path_13229" data-name="Path 13229" d="M338.817,307.752H309.731a1.463,1.463,0,1,1,0-2.927h29.086a1.463,1.463,0,0,1,0,2.927Z" transform="translate(-303.61 -277.934)" fill="#951717"/>
  <path id="Path_13230" data-name="Path 13230" d="M338.817,341.752H309.731a1.463,1.463,0,1,1,0-2.927h29.086a1.463,1.463,0,0,1,0,2.927Z" transform="translate(-303.61 -305.714)" fill="#ccc"/>
  <path id="Path_13231" data-name="Path 13231" d="M338.817,375.752H309.731a1.463,1.463,0,1,1,0-2.927h29.086a1.463,1.463,0,0,1,0,2.927Z" transform="translate(-303.61 -333.495)" fill="#ccc"/>
  <path id="Path_13232" data-name="Path 13232" d="M350.817,409.752H321.731a1.463,1.463,0,0,1,0-2.927h29.086a1.463,1.463,0,1,1,0,2.927Z" transform="translate(-313.414 -361.275)" fill="#ccc"/>
  <path id="Path_13233" data-name="Path 13233" d="M350.817,443.752H321.731a1.463,1.463,0,1,1,0-2.927h29.086a1.463,1.463,0,1,1,0,2.927Z" transform="translate(-313.414 -389.055)" fill="#ccc"/>
  <path id="Path_13234" data-name="Path 13234" d="M323.451,273.752h-13.72a1.463,1.463,0,1,1,0-2.927h13.72a1.463,1.463,0,1,1,0,2.927Z" transform="translate(-303.61 -250.154)" fill="#951717"/>
  <path id="Path_13235" data-name="Path 13235" d="M379.182,491c.3-1.25,1.683-1.66,2.817-1.614a12.017,12.017,0,0,1,2.124.336c.729.163,1.451.356,2.169.561,1.317.376,2.62.83,3.959,1.123a6.877,6.877,0,0,0,3.437.05,3.26,3.26,0,0,0,2.265-2.222,2.225,2.225,0,0,0-1.108-2.646,1.847,1.847,0,0,0-2.529.765,2.779,2.779,0,0,0,.811,3.1,9.084,9.084,0,0,0,1.507,1.145,5.611,5.611,0,0,0,1.8.808,2.605,2.605,0,0,0,2.865-1.118,1.89,1.89,0,0,0,.214-.738c.032-.352-.517-.349-.549,0-.092,1.007-1.272,1.478-2.153,1.368a4.379,4.379,0,0,1-1.669-.648,9.777,9.777,0,0,1-1.383-.976c-.748-.647-1.449-1.712-.947-2.722a1.372,1.372,0,0,1,2.123-.284,1.933,1.933,0,0,1,.127,2.57,3.216,3.216,0,0,1-2.593,1.237,10.14,10.14,0,0,1-3.139-.492c-1.264-.359-2.516-.761-3.787-1.1-.721-.192-1.448-.365-2.183-.5a7.2,7.2,0,0,0-2.116-.146,2.866,2.866,0,0,0-2.6,1.993c-.081.343.448.49.529.146Z" transform="translate(-361.112 -426.274)" fill="#951717"/>
  <path id="Path_13236" data-name="Path 13236" d="M688.065,604.064a83.787,83.787,0,0,0,.79,10.767c.017.125.036.251.053.376l33.733-.188c.1-.124.2-.25.291-.378.315-.422.61-.856.881-1.3,1.3-2.162,1.9-4.693,1.3-6.439l-.011-.027a3.065,3.065,0,0,0-.6-1.039c-1.362-1.533-4.117-1.278-6.616-.04,2.242-2.454,4.027-5.551,4.163-8.315.133-2.7-1.277-4.622-2.806-6.259-.05-.054-.1-.107-.151-.159-.024-.027-.05-.053-.074-.08-1.193-1.247-2.584-2.477-4.6-2.328-2.208.163-4.656,2.013-6.372,4.168a36.049,36.049,0,0,0-4.013,6.987,28.191,28.191,0,0,1-4.267,6.873,26.283,26.283,0,0,0,5.294-10.324c.749-3.522.09-6.9-2.152-8.562a5.244,5.244,0,0,0-2.3-.927c-.1-.016-.195-.029-.295-.041a9.207,9.207,0,0,0-6.663,2.2,15.339,15.339,0,0,0-4.733,7.35A25.059,25.059,0,0,0,688.065,604.064Z" transform="translate(-613.927 -508.309)" fill="#00a6a6"/>
  <path id="Path_13237" data-name="Path 13237" d="M808.729,704.861l.645,0q.307-.192.617-.38c.128-.081.258-.159.387-.238q3.209-1.96,6.459-3.76t6.526-3.437a.27.27,0,0,0,.155-.309.077.077,0,0,0-.011-.023c-.03-.057-.1-.081-.2-.032-.268.134-.538.269-.806.406q-3.288,1.664-6.548,3.494t-6.478,3.819l-.135.084Z" transform="translate(-712.521 -598.082)" fill="#fff"/>
  <path id="Path_13238" data-name="Path 13238" d="M763.265,634.236l.4,0,.268-.378,6.34-8.892q5.19-7.279,10.377-14.558a.256.256,0,0,0,.045-.088c.03-.107-.049-.171-.15-.159a.3.3,0,0,0-.211.134l-5.818,8.161-10.324,14.483-.657.921C763.443,633.984,763.353,634.11,763.265,634.236Z" transform="translate(-675.373 -527.411)" fill="#fff"/>
  <path id="Path_13239" data-name="Path 13239" d="M714.631,612.7c.02.672.065,1.334.123,1.989l.034.376.419,0c-.013-.125-.026-.251-.037-.376-.088-.947-.151-1.9-.16-2.888a40.284,40.284,0,0,1,.793-8.121,50.564,50.564,0,0,1,2.456-8.437,57.944,57.944,0,0,1,4.019-8.347.223.223,0,0,0,.037-.148c-.017-.119-.176-.155-.295-.041a.347.347,0,0,0-.06.076q-.29.5-.569,1a57.888,57.888,0,0,0-3.847,8.377,50.319,50.319,0,0,0-2.29,8.449A39.751,39.751,0,0,0,714.631,612.7Z" transform="translate(-635.626 -508.195)" fill="#fff"/>
  <path id="Path_13240" data-name="Path 13240" d="M491.075,508.6a.457.457,0,0,1,.249-.807,7.553,7.553,0,0,1,2.962.3l9.753,3.012a1.006,1.006,0,1,1-.594,1.923l-9.753-3.012A7.553,7.553,0,0,1,491.075,508.6Z" transform="translate(-452.841 -443.743)" fill="#3f3d56"/>
  <path id="Path_13241" data-name="Path 13241" d="M698.914,527.367a1.965,1.965,0,0,1-.89-2.879l-1.672-8.743,4.261-.332.257,8.552a1.976,1.976,0,0,1-1.956,3.4Z" transform="translate(-620.7 -449.998)" fill="#ffb8b8"/>
  <path id="Path_13242" data-name="Path 13242" d="M675.209,448.49,670.87,428.3a3.2,3.2,0,0,1,6.26-1.342l4.34,20.187a.823.823,0,0,1-.632.977l-4.65,1A.823.823,0,0,1,675.209,448.49Z" transform="translate(-599.821 -375.661)" fill="#2f2e41"/>
  <path id="Path_13243" data-name="Path 13243" d="M358.388,533.427h-2.243l-1.067-8.651h3.31Z" transform="translate(-290.122 -428.777)" fill="#ffb8b8"/>
  <path id="Path_13244" data-name="Path 13244" d="M339.99,568.561h4.325v2.723h-7.049A2.723,2.723,0,0,1,339.99,568.561Z" transform="translate(-275.569 -464.552)" fill="#2f2e41"/>
  <path id="Path_13245" data-name="Path 13245" d="M399.388,532.427h-2.243l-1.067-8.651h3.31Z" transform="translate(-323.622 -427.96)" fill="#ffb8b8"/>
  <path id="Path_13246" data-name="Path 13246" d="M380.99,567.561h4.325v2.723h-7.049A2.723,2.723,0,0,1,380.99,567.561Z" transform="translate(-309.069 -463.735)" fill="#2f2e41"/>
  <path id="Path_13247" data-name="Path 13247" d="M628.307,584.267a.817.817,0,0,1-.3-.56l-2.607-28.68a.823.823,0,0,1,.789-.9l13.076-.49a.823.823,0,0,1,.853.853l-1.045,28.57a.825.825,0,0,1-.748.79l-2.637.24a.823.823,0,0,1-.9-.765l-1.21-18.15a.263.263,0,0,0-.274-.256h0a.263.263,0,0,0-.273.258l-1.083,18.272a.819.819,0,0,1-.74.77l-2.3.23A.817.817,0,0,1,628.307,584.267Z" transform="translate(-562.729 -481.231)" fill="#2f2e41"/>
  <circle id="Ellipse_645" data-name="Ellipse 645" cx="4.493" cy="4.493" r="4.493" transform="translate(66.115 35.562)" fill="#ffb8b8"/>
  <path id="Path_13248" data-name="Path 13248" d="M129.366,81.5l-.993,3.638,5.374-.253-.768-4.318Z" transform="translate(-60.083 -37.506)" fill="#ffb8b8"/>
  <path id="Path_13249" data-name="Path 13249" d="M619.66,437.206a.816.816,0,0,1-.193-.673c.829-5.042.362-12.453-.176-17.782a8.085,8.085,0,0,1,3.337-7.373l1.812-1.3a12.829,12.829,0,0,1,2.241-.74h4.682a.82.82,0,0,1,.559.241l.9,1.995.009.007a8.062,8.062,0,0,1,3.277,6.895l-.858,17.733a.828.828,0,0,1-.8.783l-14.15.5h-.027A.822.822,0,0,1,619.66,437.206Z" transform="translate(-557.704 -363.216)" fill="#2f2e41"/>
  <path id="Path_13250" data-name="Path 13250" d="M528.706,490.151a1.965,1.965,0,0,1,2.262-1.991l7.293-5.1,2.047,3.752-7.7,3.735a1.976,1.976,0,0,1-3.9-.392Z" transform="translate(-483.723 -423.561)" fill="#ffb8b8"/>
  <path id="Path_13251" data-name="Path 13251" d="M546.57,445.558a.818.818,0,0,1-.539-.327l-2.814-3.834a.824.824,0,0,1,.176-1.151l16.664-12.232a3.2,3.2,0,1,1,3.788,5.162l-16.664,12.231a.817.817,0,0,1-.485.16A.839.839,0,0,1,546.57,445.558Z" transform="translate(-495.449 -378.081)" fill="#2f2e41"/>
  <path id="Path_13252" data-name="Path 13252" d="M645.283,350.893a2.388,2.388,0,0,0,.052-2.656,5.116,5.116,0,0,0-2.125-1.809,27.584,27.584,0,0,1-2.509-1.3c-.786-.52-.752-2.723-.961-3.643l.5.166c-.192-.245-.253-.971-.445-1.216.564.056,1,.591,1.562.647l-.326-.874c1.934-.119,3.137,1.225,5.071,1.106a4.352,4.352,0,0,1,2.787.452,3.687,3.687,0,0,1,1.259,2.105,7.1,7.1,0,0,1-.279,5.236,3.955,3.955,0,0,1-4.486,2.075Z" transform="translate(-574.445 -306.838)" fill="#2f2e41"/>
  <path id="Path_13253" data-name="Path 13253" d="M534.377,740.191h69.7a.183.183,0,1,0,0-.366h-69.7a.183.183,0,1,0,0,.366Z" transform="translate(-488.207 -633.358)" fill="#3f3d56"/>
</svg>
