<svg id="driver" xmlns="http://www.w3.org/2000/svg" width="17" height="17" viewBox="0 0 17 17">
  <path id="Vector" d="M12.775,6.8H2.426A2.446,2.446,0,0,1,0,4.343V2.458A2.446,2.446,0,0,1,2.426,0H12.775A2.446,2.446,0,0,1,15.2,2.458V4.343A2.446,2.446,0,0,1,12.775,6.8ZM2.419,1.068A1.375,1.375,0,0,0,1.054,2.451V4.336A1.375,1.375,0,0,0,2.419,5.719H12.768a1.375,1.375,0,0,0,1.365-1.383V2.451a1.375,1.375,0,0,0-1.365-1.383Z" transform="translate(0.903 0.903)"/>
  <path id="Vector-2" data-name="Vector" d="M12.775,6.8H2.426A2.446,2.446,0,0,1,0,4.343V2.458A2.446,2.446,0,0,1,2.426,0H12.775A2.446,2.446,0,0,1,15.2,2.458V4.343A2.446,2.446,0,0,1,12.775,6.8ZM2.419,1.068A1.375,1.375,0,0,0,1.054,2.451V4.336A1.375,1.375,0,0,0,2.419,5.719H12.768a1.375,1.375,0,0,0,1.365-1.383V2.451a1.375,1.375,0,0,0-1.365-1.383Z" transform="translate(0.903 9.302)"/>
  <path id="Vector-3" data-name="Vector" d="M.538,2.509A.541.541,0,0,1,0,1.971V.538A.541.541,0,0,1,.538,0a.541.541,0,0,1,.538.538V1.971A.541.541,0,0,1,.538,2.509Z" transform="translate(3.716 3.004)"/>
  <path id="Vector-4" data-name="Vector" d="M.538,2.509A.541.541,0,0,1,0,1.971V.538A.541.541,0,0,1,.538,0a.541.541,0,0,1,.538.538V1.971A.541.541,0,0,1,.538,2.509Z" transform="translate(6.547 3.004)"/>
  <path id="Vector-5" data-name="Vector" d="M.538,2.509A.541.541,0,0,1,0,1.971V.538A.541.541,0,0,1,.538,0a.541.541,0,0,1,.538.538V1.971A.541.541,0,0,1,.538,2.509Z" transform="translate(3.716 11.487)"/>
  <path id="Vector-6" data-name="Vector" d="M.538,2.509A.541.541,0,0,1,0,1.971V.538A.541.541,0,0,1,.538,0a.541.541,0,0,1,.538.538V1.971A.541.541,0,0,1,.538,2.509Z" transform="translate(6.547 11.487)"/>
  <path id="Vector-7" data-name="Vector" d="M3.4,1.075H.538A.541.541,0,0,1,0,.538.541.541,0,0,1,.538,0H3.4a.541.541,0,0,1,.538.538A.541.541,0,0,1,3.4,1.075Z" transform="translate(9.352 3.716)"/>
  <path id="Vector-8" data-name="Vector" d="M3.4,1.075H.538A.541.541,0,0,1,0,.538.541.541,0,0,1,.538,0H3.4a.541.541,0,0,1,.538.538A.541.541,0,0,1,3.4,1.075Z" transform="translate(9.352 12.209)"/>
  <path id="Vector-9" data-name="Vector" d="M0,0H17V17H0Z" fill="none" opacity="0"/>
</svg>
