<svg xmlns="http://www.w3.org/2000/svg" width="29" height="13" viewBox="0 0 29 13">
  <path id="dronee" d="M28.574,142.25H24.46v-.028a1.326,1.326,0,0,0-.908-1.253v-.548a.426.426,0,0,0-.851,0v.548a1.326,1.326,0,0,0-.908,1.253v.028H17.678a.422.422,0,1,0,0,.844H22.7v.576a1.325,1.325,0,0,0-.908,1.253v.478H20.776a1.788,1.788,0,0,0-1.736-1.351H9.96A1.788,1.788,0,0,0,8.224,145.4H7.207v-.478A1.326,1.326,0,0,0,6.3,143.67v-.576h5.022a.422.422,0,1,0,0-.844H7.207v-.028a1.326,1.326,0,0,0-.908-1.253v-.548a.426.426,0,0,0-.851,0v.548a1.326,1.326,0,0,0-.908,1.253v.028H.426a.422.422,0,1,0,0,.844H5.448v.576a1.325,1.325,0,0,0-.908,1.253v.9a1.335,1.335,0,0,0,2.6.422H8.224A1.788,1.788,0,0,0,9.954,147.6a1.766,1.766,0,0,0-.211.5l-1.024,4.06H8.144a.422.422,0,1,0,0,.844H9.96a.422.422,0,1,0,0-.844H9.6l.972-3.855a.934.934,0,0,1,.908-.7h6.045a.934.934,0,0,1,.908.7l.972,3.855H19.04a.422.422,0,1,0,0,.844h1.816a.422.422,0,1,0,0-.844H20.28l-1.024-4.06a1.767,1.767,0,0,0-.211-.5,1.788,1.788,0,0,0,1.731-1.351h1.086a1.335,1.335,0,0,0,2.6-.422v-.9a1.326,1.326,0,0,0-.908-1.253v-.576h5.022a.422.422,0,1,0,0-.844Zm-23.183-.028a.482.482,0,0,1,.965,0v.028H5.391Zm.482,4.08a.481.481,0,0,1-.482-.478v-.9a.482.482,0,0,1,.965,0v.9A.481.481,0,0,1,5.874,146.3Zm13.166.45H9.96a.929.929,0,1,1,0-1.857h9.08a.929.929,0,1,1,0,1.857Zm4.568-.929a.482.482,0,0,1-.965,0v-.9a.482.482,0,0,1,.965,0Zm-.965-3.6a.482.482,0,0,1,.965,0v.028h-.965Z" transform="translate(0 -139.999)"/>
</svg>
