<svg xmlns="http://www.w3.org/2000/svg" width="21" height="21" viewBox="0 0 21 21">
  <g id="vuesax_outline_edit" data-name="vuesax/outline/edit" transform="translate(-620 -252)">
    <g id="edit" transform="translate(620 252)">
      <path id="Vector" d="M12.051,18.844H6.792C2.033,18.844,0,16.81,0,12.051V6.792C0,2.033,2.033,0,6.792,0H8.545A.662.662,0,0,1,9.2.657a.662.662,0,0,1-.657.657H6.792c-4.04,0-5.478,1.437-5.478,5.478v5.259c0,4.04,1.437,5.478,5.478,5.478h5.259c4.04,0,5.478-1.437,5.478-5.478V10.3a.657.657,0,0,1,1.315,0v1.753C18.844,16.81,16.81,18.844,12.051,18.844Z" transform="translate(1.078 1.078)" fill="#555"/>
      <path id="Vector-2" data-name="Vector" d="M1.9,14.4a1.931,1.931,0,0,1-1.363-.535,1.941,1.941,0,0,1-.509-1.682L.4,9.585a2.991,2.991,0,0,1,.75-1.5l6.8-6.8c1.716-1.716,3.459-1.716,5.175,0a3.6,3.6,0,0,1,1.277,2.855,3.837,3.837,0,0,1-1.277,2.312l-6.8,6.8a2.991,2.991,0,0,1-1.5.75l-2.6.371A1.438,1.438,0,0,1,1.9,14.4ZM8.857,2.2,2.06,9a1.755,1.755,0,0,0-.388.768l-.371,2.6a.677.677,0,0,0,.147.587.677.677,0,0,0,.587.147l2.6-.371a1.71,1.71,0,0,0,.768-.388l6.8-6.8a2.647,2.647,0,0,0,.9-1.527,2.394,2.394,0,0,0-.9-1.82C10.815.813,9.866,1.2,8.857,2.2Z" transform="translate(5.734 0.86)" fill="#555"/>
      <path id="Vector-3" data-name="Vector" d="M4.906,5.561a.556.556,0,0,1-.173-.026A6.846,6.846,0,0,1,.024.826a.655.655,0,0,1,.449-.8.642.642,0,0,1,.794.449A5.542,5.542,0,0,0,5.078,4.285a.651.651,0,0,1,.449.8A.635.635,0,0,1,4.906,5.561Z" transform="translate(12.515 2.918)" fill="#555"/>
      <path id="Vector-4" data-name="Vector" d="M0,0H21V21H0Z" fill="none" opacity="0"/>
    </g>
  </g>
</svg>
