<svg xmlns="http://www.w3.org/2000/svg" width="9.227" height="9.227" viewBox="0 0 9.227 9.227">
  <g id="Group_10930" data-name="Group 10930" transform="translate(7 -59.025)">
    <path id="Icon_awesome-download" data-name="Icon awesome-download" d="M3.893,0H5.334a.431.431,0,0,1,.433.433V3.46H7.347a.36.36,0,0,1,.254.615L4.86,6.818a.349.349,0,0,1-.492,0L1.624,4.075a.36.36,0,0,1,.254-.615H3.46V.433A.431.431,0,0,1,3.893,0ZM9.227,6.776V8.795a.431.431,0,0,1-.433.433H.433A.431.431,0,0,1,0,8.795V6.776a.431.431,0,0,1,.433-.433H3.076l.883.883a.923.923,0,0,0,1.308,0l.883-.883H8.795A.431.431,0,0,1,9.227,6.776ZM6.992,8.362a.36.36,0,1,0-.36.36A.361.361,0,0,0,6.992,8.362Zm1.153,0a.36.36,0,1,0-.36.36A.361.361,0,0,0,8.146,8.362Z" transform="translate(-7 59.025)" fill="#00a6a6"/>
  </g>
</svg>
