<svg xmlns="http://www.w3.org/2000/svg" width="22.003" height="22.003" viewBox="0 0 22.003 22.003">
  <g id="vuesax_outline_info-circle" data-name="vuesax/outline/info-circle" transform="translate(-364 -252)">
    <g id="info-circle" transform="translate(364 252)">
      <path id="Vector" d="M9.758,19.516a9.758,9.758,0,1,1,9.758-9.758A9.766,9.766,0,0,1,9.758,19.516Zm0-18.155a8.4,8.4,0,1,0,8.4,8.4A8.407,8.407,0,0,0,9.758,1.362Z" transform="translate(1.243 1.243)" fill="#2e2e2e"/>
      <path id="Vector-2" data-name="Vector" d="M.746,6.465A.751.751,0,0,1,0,5.719V.746A.751.751,0,0,1,.746,0a.751.751,0,0,1,.746.746V5.719A.751.751,0,0,1,.746,6.465Z" transform="translate(10.255 6.437)" fill="#2e2e2e"/>
      <path id="Vector-3" data-name="Vector" d="M.995,1.984A.99.99,0,0,1,.617,1.9,1.149,1.149,0,0,1,.288,1.7,1.027,1.027,0,0,1,.08,1.368.99.99,0,0,1,0,.99.99.99,0,0,1,.08.612,1.149,1.149,0,0,1,.288.283,1.149,1.149,0,0,1,.617.075a1,1,0,0,1,.756,0A1.149,1.149,0,0,1,1.7.283,1.149,1.149,0,0,1,1.91.612a.99.99,0,0,1,.08.378.99.99,0,0,1-.08.378A1.027,1.027,0,0,1,1.7,1.7a1.149,1.149,0,0,1-.328.209A.99.99,0,0,1,.995,1.984Z" transform="translate(10.007 13.651)" fill="#2e2e2e"/>
      <path id="Vector-4" data-name="Vector" d="M0,0H22V22H0Z" fill="none" opacity="0"/>
    </g>
  </g>
</svg>
