<svg xmlns="http://www.w3.org/2000/svg" width="10" height="13" viewBox="0 0 10 13">
  <g id="Group_10929" data-name="Group 10929" transform="translate(10.012 5523)">
    <path id="Icon_awesome-file-invoice" data-name="Icon awesome-file-invoice" d="M7.5,6.5h-5V8.125h5ZM9.818,2.666,7.268.178A.633.633,0,0,0,6.826,0H6.667V3.25H10V3.1A.6.6,0,0,0,9.818,2.666Zm-3.984.787V0H.625A.616.616,0,0,0,0,.609V12.391A.616.616,0,0,0,.625,13h8.75A.616.616,0,0,0,10,12.391V4.063H6.458A.619.619,0,0,1,5.833,3.453ZM1.667,1.828a.206.206,0,0,1,.208-.2H3.958a.206.206,0,0,1,.208.2v.406a.206.206,0,0,1-.208.2H1.875a.206.206,0,0,1-.208-.2Zm0,1.625a.206.206,0,0,1,.208-.2H3.958a.206.206,0,0,1,.208.2v.406a.206.206,0,0,1-.208.2H1.875a.206.206,0,0,1-.208-.2Zm6.667,7.719a.206.206,0,0,1-.208.2H6.042a.206.206,0,0,1-.208-.2v-.406a.206.206,0,0,1,.208-.2H8.125a.206.206,0,0,1,.208.2Zm0-5.078V8.531a.411.411,0,0,1-.417.406H2.083a.411.411,0,0,1-.417-.406V6.094a.411.411,0,0,1,.417-.406H7.917A.411.411,0,0,1,8.333,6.094Z" transform="translate(-10.012 -5523)" fill="#fff"/>
  </g>
</svg>
