<svg xmlns="http://www.w3.org/2000/svg" width="22" height="22" viewBox="0 0 22 22">
  <g id="vuesax_outline_key" data-name="vuesax/outline/key" transform="translate(-684 -188)">
    <g id="key" transform="translate(684 188)">
      <path id="Vector" d="M4.518,19.7a2.6,2.6,0,0,1-.275-.018L2.254,19.4A2.407,2.407,0,0,1,.293,17.45L.018,15.442A2.528,2.528,0,0,1,.659,13.5L4.683,9.475A7.64,7.64,0,1,1,10.229,15L6.2,19.027A2.468,2.468,0,0,1,4.518,19.7ZM12.081,1.372A6.253,6.253,0,0,0,6.1,9.475a.683.683,0,0,1-.174.687L1.622,14.471a1.184,1.184,0,0,0-.257.77l.275,2.008a1.051,1.051,0,0,0,.779.788l2,.275a1.136,1.136,0,0,0,.779-.247l4.327-4.317a.684.684,0,0,1,.687-.165A6.251,6.251,0,0,0,16.481,3.2,6.166,6.166,0,0,0,12.081,1.372Z" transform="translate(1.147 1.158)" fill="#555"/>
      <path id="Vector-2" data-name="Vector" d="M2.794,3.481a.68.68,0,0,1-.486-.2L.2,1.171A.687.687,0,0,1,1.171.2L3.279,2.308a.692.692,0,0,1,0,.972A.68.68,0,0,1,2.794,3.481Z" transform="translate(5.631 15.347)" fill="#555"/>
      <path id="Vector-3" data-name="Vector" d="M2.063,4.125A2.063,2.063,0,1,1,4.125,2.063,2.066,2.066,0,0,1,2.063,4.125Zm0-2.75a.687.687,0,1,0,.687.688A.693.693,0,0,0,2.063,1.375Z" transform="translate(11.229 6.646)" fill="#555"/>
      <path id="Vector-4" data-name="Vector" d="M0,0H22V22H0Z" fill="none" opacity="0"/>
    </g>
  </g>
</svg>
