<svg id="Group_9644" data-name="Group 9644" xmlns="http://www.w3.org/2000/svg" width="20" height="14" viewBox="0 0 20 14">
  <g id="Group_9643" data-name="Group 9643">
    <path id="Path_10859" data-name="Path 10859" d="M4.332,83.491H6.416a4.621,4.621,0,0,1,2.416-.7h2.576a3.367,3.367,0,0,1,1.474-.35h2.034A.317.317,0,0,1,15,82.46c.083-.006.165-.019.25-.019,2.617,0,4.746,3.14,4.746,7s-2.129,7-4.746,7c-.084,0-.166-.012-.25-.019a.317.317,0,0,1-.089.019H12.881a3.367,3.367,0,0,1-1.474-.35H8.831a4.621,4.621,0,0,1-2.416-.7H4.332C1.944,95.391,0,92.722,0,89.441S1.944,83.491,4.332,83.491Zm10.922,12.25c2.243,0,4.068-2.826,4.068-6.3s-1.825-6.3-4.068-6.3-4.068,2.826-4.068,6.3S13.011,95.741,15.254,95.741Zm-3.68-.34a.332.332,0,0,1,.191.093,2.743,2.743,0,0,0,1.116.247H13.2c-1.589-1.133-2.691-3.527-2.691-6.3s1.1-5.167,2.691-6.3h-.318a2.742,2.742,0,0,0-1.116.247.332.332,0,0,1-.191.093c-1.6.846-2.761,3.2-2.761,5.96S9.971,94.555,11.574,95.4Zm-2.743-.01h1.562a8.968,8.968,0,0,1,0-11.9H8.831c-2.627,0-4.764,2.669-4.764,5.95S6.2,95.391,8.831,95.391Zm-4.5-.7H5.5a7.576,7.576,0,0,1,0-10.5H4.332c-2.015,0-3.654,2.355-3.654,5.25S2.317,94.691,4.332,94.691Z" transform="translate(0 -82.441)"/>
  </g>
</svg>
