<svg xmlns="http://www.w3.org/2000/svg" width="18" height="18" viewBox="0 0 18 18">
  <g id="vuesax_outline_grid-6" data-name="vuesax/outline/grid-6" transform="translate(-236 -252)">
    <g id="grid-6" transform="translate(236 252)">
      <path id="Vector" d="M10.31,16.121h-4.5C1.74,16.121,0,14.381,0,10.31v-4.5C0,1.74,1.74,0,5.811,0h4.5c4.071,0,5.811,1.74,5.811,5.811v4.5C16.121,14.381,14.381,16.121,10.31,16.121Zm-4.5-15c-3.457,0-4.686,1.23-4.686,4.686v4.5C1.125,13.766,2.354,15,5.811,15h4.5C13.766,15,15,13.766,15,10.31v-4.5c0-3.457-1.23-4.686-4.686-4.686Z" transform="translate(0.94 0.94)" fill="#a9a9a9"/>
      <path id="Vector-2" data-name="Vector" d="M15.225,1.128H.9c-.49,0-.9-.256-.9-.564S.406,0,.9,0H15.225c.49,0,.9.256.9.564S15.715,1.128,15.225,1.128Z" transform="translate(0.94 5.812)" fill="#a9a9a9"/>
      <path id="Vector-3" data-name="Vector" d="M15.225,1.128H.9c-.49,0-.9-.256-.9-.564S.406,0,.9,0H15.225c.49,0,.9.256.9.564S15.715,1.128,15.225,1.128Z" transform="translate(0.94 11.061)" fill="#a9a9a9"/>
      <path id="Vector-4" data-name="Vector" d="M0,0H18V18H0Z" fill="none" opacity="0"/>
    </g>
  </g>
</svg>
