<svg xmlns="http://www.w3.org/2000/svg" width="14" height="14" viewBox="0 0 14 14">
  <g id="vuesax_outline_edit" data-name="vuesax/outline/edit" transform="translate(-620 -252)">
    <g id="edit" transform="translate(620 252)">
      <path id="Vector" d="M8.056,12.6H4.541C1.359,12.6,0,11.238,0,8.056V4.541C0,1.359,1.359,0,4.541,0H5.713a.443.443,0,0,1,.439.439.443.443,0,0,1-.439.439H4.541C1.84.879.879,1.84.879,4.541V8.056c0,2.7.961,3.662,3.662,3.662H8.056c2.7,0,3.662-.961,3.662-3.662V6.885a.439.439,0,0,1,.879,0V8.056C12.6,11.238,11.238,12.6,8.056,12.6Z" transform="translate(0.701 0.701)" fill="#292929"/>
      <path id="Vector-2" data-name="Vector" d="M1.234,9.367a1.256,1.256,0,0,1-.887-.348A1.263,1.263,0,0,1,.016,7.924L.257,6.235a1.946,1.946,0,0,1,.488-.976L5.167.837a2.111,2.111,0,0,1,3.367,0,2.343,2.343,0,0,1,.83,1.857,2.5,2.5,0,0,1-.83,1.5L4.112,8.62a1.946,1.946,0,0,1-.976.488L1.447,9.35A.936.936,0,0,1,1.234,9.367ZM5.762,1.432,1.34,5.854a1.142,1.142,0,0,0-.253.5L.846,8.042a.44.44,0,0,0,.1.382.44.44,0,0,0,.382.1l1.689-.241a1.112,1.112,0,0,0,.5-.253L7.934,3.6a1.722,1.722,0,0,0,.584-.993,1.557,1.557,0,0,0-.584-1.184A1.3,1.3,0,0,0,5.762,1.432Z" transform="translate(4.069 0.56)" fill="#292929"/>
      <path id="Vector-3" data-name="Vector" d="M3.191,3.618A.362.362,0,0,1,3.079,3.6,4.454,4.454,0,0,1,.015.537.426.426,0,0,1,.307.015.418.418,0,0,1,.823.307,3.605,3.605,0,0,0,3.3,2.787a.424.424,0,0,1,.292.522A.413.413,0,0,1,3.191,3.618Z" transform="translate(8.48 1.898)" fill="#292929"/>
      <path id="Vector-4" data-name="Vector" d="M0,0H14V14H0Z" fill="none" opacity="0"/>
    </g>
  </g>
</svg>
