<svg xmlns="http://www.w3.org/2000/svg" width="22.007" height="22.007" viewBox="0 0 22.007 22.007">
  <g id="vuesax_outline_logout" data-name="vuesax/outline/logout" transform="translate(-746 -446)">
    <g id="logout" transform="translate(746 446)">
      <path id="Vector" d="M6.561,18.806h-.12c-4.107,0-6.087-1.6-6.429-5.191a.69.69,0,0,1,.629-.751.705.705,0,0,1,.759.623c.268,2.875,1.637,3.946,5.051,3.946h.12c3.765,0,5.1-1.318,5.1-5.045V6.418c0-3.726-1.332-5.045-5.1-5.045H6.45c-3.432,0-4.8,1.09-5.051,4.019a.7.7,0,0,1-.759.623A.69.69,0,0,1,0,5.274C.316,1.63,2.305,0,6.441,0h.12c4.542,0,6.485,1.923,6.485,6.418v5.97C13.046,16.883,11.1,18.806,6.561,18.806Z" transform="translate(7.342 1.6)" fill="#2e2e2e"/>
      <path id="Vector-2" data-name="Vector" d="M11.221,1.388H.694A.7.7,0,0,1,0,.694.7.7,0,0,1,.694,0H11.221a.7.7,0,0,1,.694.694A.7.7,0,0,1,11.221,1.388Z" transform="translate(2.655 10.31)" fill="#2e2e2e"/>
      <path id="Vector-3" data-name="Vector" d="M3.791,7.584a.686.686,0,0,1-.49-.2L.2,4.281A.7.7,0,0,1,.2,3.3L3.3.2a.693.693,0,0,1,.981.981L1.672,3.791,4.281,6.4a.7.7,0,0,1,0,.981A.671.671,0,0,1,3.791,7.584Z" transform="translate(1.621 7.213)" fill="#2e2e2e"/>
      <path id="Vector-4" data-name="Vector" d="M0,0H22.007V22.007H0Z" fill="none" opacity="0"/>
    </g>
  </g>
</svg>
