<svg xmlns="http://www.w3.org/2000/svg" width="22" height="22" viewBox="0 0 22 22">
  <g id="vuesax_outline_map" data-name="vuesax/outline/map" transform="translate(-684 -252)">
    <g id="map" transform="translate(684 252)">
      <path id="Vector" d="M12.919,17.214a2.587,2.587,0,0,1-1.108-.238L7,14.571a1.385,1.385,0,0,0-1.08.027L3.763,15.833a2.6,2.6,0,0,1-2.618.174A2.586,2.586,0,0,1,0,13.648V4.76A2.7,2.7,0,0,1,1.273,2.575L5.237.307A2.7,2.7,0,0,1,7.608.243l4.807,2.4a1.427,1.427,0,0,0,1.08-.027L15.647,1.4a2.6,2.6,0,0,1,2.618-.174A2.586,2.586,0,0,1,19.41,3.581v8.9a2.7,2.7,0,0,1-1.273,2.185L14.173,16.93A2.783,2.783,0,0,1,12.919,17.214ZM6.5,13.108a2.587,2.587,0,0,1,1.108.238l4.807,2.4a1.427,1.427,0,0,0,1.08-.027l3.964-2.268a1.36,1.36,0,0,0,.577-.988v-8.9A1.276,1.276,0,0,0,17.57,2.4a1.325,1.325,0,0,0-1.245.183L14.173,3.809a2.7,2.7,0,0,1-2.371.064l-4.807-2.4a1.427,1.427,0,0,0-1.08.027L1.95,3.764a1.362,1.362,0,0,0-.577,1v8.9a1.3,1.3,0,0,0,.458,1.17,1.319,1.319,0,0,0,1.254-.183l2.152-1.225A2.537,2.537,0,0,1,6.5,13.108Z" transform="translate(1.425 2.39)" fill="#c61637"/>
      <path id="Vector-2" data-name="Vector" d="M.694,13.413A.7.7,0,0,1,0,12.72V.694A.7.7,0,0,1,.694,0a.7.7,0,0,1,.694.694V12.72A.7.7,0,0,1,.694,13.413Z" transform="translate(7.155 3.006)" fill="#c61637"/>
      <path id="Vector-3" data-name="Vector" d="M.694,13.765A.7.7,0,0,1,0,13.071V.694A.7.7,0,0,1,.694,0a.7.7,0,0,1,.694.694V13.071A.7.7,0,0,1,.694,13.765Z" transform="translate(13.723 5.229)" fill="#c61637"/>
      <path id="Vector-4" data-name="Vector" d="M0,0H22V22H0Z" fill="none" opacity="0"/>
    </g>
  </g>
</svg>
