<svg id="Group_10489" data-name="Group 10489" xmlns="http://www.w3.org/2000/svg" width="137.544" height="35.182" viewBox="0 0 137.544 35.182">
  <g id="Group_10345" data-name="Group 10345">
    <path id="Path_12882" data-name="Path 12882" d="M376.71,101.321V70.72a1.932,1.932,0,0,1,2.143-2.09h12.38c8.52,0,13.183,4.233,13.183,11.2,0,6.914-4.608,11.146-13.183,11.146h-7.289v10.343a1.893,1.893,0,0,1-2.037,2.143H378.8A1.931,1.931,0,0,1,376.71,101.321ZM391.555,85.3c3.323,0,5.466-1.876,5.466-5.305,0-3.484-2.143-5.358-5.466-5.358h-7.611V85.3h7.611Z" transform="translate(-376.71 -68.63)" fill="#454545"/>
    <path id="Path_12883" data-name="Path 12883" d="M538.045,130.9H533.81c-1.286,0-1.929-.75-2.84-1.984l-5.144-7.075-5.144,7.075c-.911,1.231-1.554,1.984-2.84,1.984H514.2c-1.234,0-1.929-.858-1.017-2.037l8.951-11.468-8.9-11.577c-.911-1.125-.214-1.984,1.019-1.984h4.233c1.286,0,1.929.7,2.84,1.984l5.144,7.075,5.091-7.075c.858-1.287,1.5-1.984,2.84-1.984h3.59c1.286,0,1.929.858,1.017,1.984l-8.842,11.577,8.9,11.468C539.976,129.987,539.331,130.9,538.045,130.9Z" transform="translate(-482.739 -96.062)" fill="#454545"/>
    <path id="Path_12884" data-name="Path 12884" d="M633.45,114.415c0-8.039,6.216-14.095,14.684-14.095s14.631,6.055,14.631,14.095-6.164,14.095-14.631,14.095S633.45,122.454,633.45,114.415Zm22.24,0c0-4.555-3.162-7.931-7.556-7.931s-7.611,3.376-7.611,7.931,3.162,7.878,7.611,7.878C652.527,122.293,655.69,118.969,655.69,114.415Z" transform="translate(-576.794 -93.327)" fill="#454545"/>
    <path id="Path_12885" data-name="Path 12885" d="M790.6,104.526l-.7,2.679a1.5,1.5,0,0,1-2.09,1.234,7.39,7.39,0,0,0-2.412-.428c-3.484,0-5.466,2.679-5.466,6.539V127.3a1.9,1.9,0,0,1-2.037,2.09h-3.107a1.863,1.863,0,0,1-1.984-2.09V109.028c0-.589-.267-.858-.7-.858-.483,0-1.072.322-1.553.375-.589.214-1.178-.053-1.554-1.178l-.483-2.251c-.375-1.125-.161-1.823.75-2.3a8.072,8.072,0,0,1,3.751-.911c2.573,0,4.877,1.178,5.627,3.966a8.452,8.452,0,0,1,7.45-3.966,11.152,11.152,0,0,1,3.376.483A1.484,1.484,0,0,1,790.6,104.526Z" transform="translate(-681.92 -94.558)" fill="#454545"/>
    <path id="Path_12886" data-name="Path 12886" d="M899.124,102.616v23.1a1.9,1.9,0,0,1-2.037,2.09h-1.982a1.9,1.9,0,0,1-2.037-2.09v-1.234a11.894,11.894,0,0,1-9.057,4.018c-7.878,0-13.452-6.216-13.452-14.095,0-7.931,5.574-14.095,13.452-14.095a13.328,13.328,0,0,1,9.057,3.537v-1.234a1.861,1.861,0,0,1,2.037-2.037h1.982A1.864,1.864,0,0,1,899.124,102.616Zm-6.7,11.791c0-5.091-3.321-7.931-7.342-7.931-4.5,0-7.45,3.537-7.45,7.931s2.948,7.878,7.45,7.878C889.1,122.285,892.425,119.392,892.425,114.407Z" transform="translate(-761.58 -93.319)" fill="#454545"/>
  </g>
</svg>
