<svg xmlns="http://www.w3.org/2000/svg" width="24" height="24" viewBox="0 0 24 24">
  <g id="vuesax_bold_microphone-2" data-name="vuesax/bold/microphone-2" transform="translate(0.372 1.333)">
    <g id="gps" transform="translate(-0.372 -1.333)">
      <path id="Vector" d="M8.25,16.5A8.25,8.25,0,1,1,16.5,8.25,8.258,8.258,0,0,1,8.25,16.5Zm0-15A6.75,6.75,0,1,0,15,8.25,6.76,6.76,0,0,0,8.25,1.5Z" transform="translate(3.75 3.75)" fill="#222"/>
      <path id="Vector-2" data-name="Vector" d="M3.75,7.5A3.75,3.75,0,1,1,7.5,3.75,3.751,3.751,0,0,1,3.75,7.5Zm0-6A2.25,2.25,0,1,0,6,3.75,2.253,2.253,0,0,0,3.75,1.5Z" transform="translate(8.25 8.25)" fill="#222"/>
      <path id="Vector-3" data-name="Vector" d="M.75,3.5A.755.755,0,0,1,0,2.75v-2A.755.755,0,0,1,.75,0,.755.755,0,0,1,1.5.75v2A.755.755,0,0,1,.75,3.5Z" transform="translate(11.25 1.25)" fill="#222"/>
      <path id="Vector-4" data-name="Vector" d="M2.75,1.5h-2A.755.755,0,0,1,0,.75.755.755,0,0,1,.75,0h2A.755.755,0,0,1,3.5.75.755.755,0,0,1,2.75,1.5Z" transform="translate(1.25 11.25)" fill="#222"/>
      <path id="Vector-5" data-name="Vector" d="M.75,3.5A.755.755,0,0,1,0,2.75v-2A.755.755,0,0,1,.75,0,.755.755,0,0,1,1.5.75v2A.755.755,0,0,1,.75,3.5Z" transform="translate(11.25 19.25)" fill="#222"/>
      <path id="Vector-6" data-name="Vector" d="M2.75,1.5h-2A.755.755,0,0,1,0,.75.755.755,0,0,1,.75,0h2A.755.755,0,0,1,3.5.75.755.755,0,0,1,2.75,1.5Z" transform="translate(19.25 11.25)" fill="#222"/>
      <path id="Vector-7" data-name="Vector" d="M0,0H24V24H0Z" fill="none" opacity="0"/>
    </g>
  </g>
</svg>
