<svg xmlns="http://www.w3.org/2000/svg" width="15.171" height="14.967" viewBox="0 0 15.171 14.967">
  <g id="Group_10933" data-name="Group 10933" transform="translate(-249.322 -654.489)">
    <path id="Vector" d="M.65,14.211a.665.665,0,0,1-.461-.18.594.594,0,0,1,0-.869L5.855,7.817a.969.969,0,0,0,0-1.426L.189,1.047a.594.594,0,0,1,0-.869.684.684,0,0,1,.921,0L6.776,5.522a2.171,2.171,0,0,1,.7,1.582,2.138,2.138,0,0,1-.7,1.582L1.11,14.03A.7.7,0,0,1,.65,14.211Z" transform="translate(249.672 654.896)" fill="#fff" stroke="#fff" stroke-linecap="round" stroke-linejoin="round" stroke-width="0.7"/>
    <path id="Vector-2" data-name="Vector" d="M.65,14.211a.665.665,0,0,1-.461-.18.594.594,0,0,1,0-.869L5.855,7.817a.969.969,0,0,0,0-1.426L.189,1.047a.594.594,0,0,1,0-.869.684.684,0,0,1,.921,0L6.776,5.522a2.171,2.171,0,0,1,.7,1.582,2.138,2.138,0,0,1-.7,1.582L1.11,14.03A.7.7,0,0,1,.65,14.211Z" transform="translate(256.672 654.896)" fill="#fff" stroke="#fff" stroke-linecap="round" stroke-linejoin="round" stroke-width="0.7"/>
  </g>
</svg>
