<svg xmlns="http://www.w3.org/2000/svg" xmlns:xlink="http://www.w3.org/1999/xlink" width="185.75" height="149.609" viewBox="0 0 185.75 149.609">
  <defs>
    <linearGradient id="linear-gradient" x1="0.5" y1="1" x2="0.5" gradientUnits="objectBoundingBox">
      <stop offset="0" stop-color="gray" stop-opacity="0.251"/>
      <stop offset="0.54" stop-color="gray" stop-opacity="0.122"/>
      <stop offset="1" stop-color="gray" stop-opacity="0.102"/>
    </linearGradient>
  </defs>
  <g id="Group_10807" data-name="Group 10807" transform="translate(-0.01 0.003)">
    <ellipse id="Ellipse_639" data-name="Ellipse 639" cx="42.795" cy="9.406" rx="42.795" ry="9.406" transform="translate(44.434 130.794)" fill="#6c63ff" opacity="0.1"/>
    <path id="Path_13041" data-name="Path 13041" d="M117.4,509.9c2.882,11.818,8.965,22.033,18.587,26.984,19.994,10.289,65.1,4.982,98.756-1.11a77.837,77.837,0,0,0,43.829-24.086Z" transform="translate(-111.444 -424.308)" fill="#c71212" opacity="0.1"/>
    <path id="Path_13042" data-name="Path 13042" d="M315.084,142.668H296.616a1.536,1.536,0,1,1,0-3.062h3.194a1.535,1.535,0,1,1,0-3.062h-2.28a1.536,1.536,0,1,1,0-3.062h9.638a26.212,26.212,0,0,0-7.518-1.992c-26.284-3.242-35.664-1.1-38.979,1.11a37.626,37.626,0,0,1-13.509,5.692c-16.211,3.215-46.544,7.084-74.031-1.237-13.662-4.143-23.816,2.853-29.9,14.536H318.3a26.684,26.684,0,0,0-2.161-9.275A1.635,1.635,0,0,1,315.084,142.668Z" transform="translate(-132.622 -112.7)" fill="#c71212" opacity="0.1"/>
    <path id="Path_13043" data-name="Path 13043" d="M219.14,379.3l-.24-.013-2.522-.142-24.084-1.355-2.6-.148-38.352-2.161-10.748-.605-1.7-.094-1.5-.076L106.894,373a75.112,75.112,0,0,0,.72,20.617l25.66.9,2.034.072.36.013,12.167.423.657.022,1.4.049,12.277.432,1.682.059,5.863.207h.11l.863.031,2.938.1h0l2.578.09,4.912.18h.1l.438.014.465.018h.1l7.826.274,2.192.077h.092l1.056.038h.276l.928.032,2.833.1h0l1.065.038,1.367.047h.05l1.875.067,5.423.191,1.493.05h.171l7.23.254,4.2.148,5.224.18.839.029,1.353.047,4.921.18,37.105,1.3a73.015,73.015,0,0,0,11.263-16.516Zm-69.774,11.465a1.621,1.621,0,0,1-1.063-.393h0a1.565,1.565,0,0,1-.337-.409,1.472,1.472,0,0,1,.068-1.571,1.842,1.842,0,0,1,.18-.213,1.621,1.621,0,0,1,1.155-.477h3.192a1.536,1.536,0,1,1,0-3.062h-2.284a1.325,1.325,0,0,1-.148,0,1.533,1.533,0,0,1,.148-3.062h18.468a1.535,1.535,0,1,1,0,3.062h2.28a1.536,1.536,0,1,1,0,3.062h-3.2a1.535,1.535,0,1,1,0,3.062Z" transform="translate(-102.505 -312.067)" fill="#c71212" opacity="0.1"/>
    <path id="Path_13044" data-name="Path 13044" d="M290.128,251.11,162.75,254.087l-14,.328-35.641.834a65.247,65.247,0,0,0-4.238,17.573H287.035a70.26,70.26,0,0,0,2.57-11.2A51.517,51.517,0,0,0,290.128,251.11ZM144.8,264.671h-3.192a1.571,1.571,0,0,1,1.6,1.535v.094a1.529,1.529,0,0,1-.71,1.183,1.634,1.634,0,0,1-.884.259H123.145a1.536,1.536,0,1,1,0-3.071h3.192a1.535,1.535,0,1,1,0-3.062h-2.279a1.536,1.536,0,1,1,0-3.062h18.466a1.536,1.536,0,1,1,0,3.062h2.28a1.635,1.635,0,0,1,.758.18,1.527,1.527,0,0,1,.838,1.347A1.569,1.569,0,0,1,144.8,264.671Z" transform="translate(-104.451 -212.132)" fill="#c71212" opacity="0.1"/>
    <g id="Group_10804" data-name="Group 10804" transform="translate(99.488 76.588)" opacity="0.1">
      <path id="Path_13045" data-name="Path 13045" d="M643,525.673s4.672-11.069,13.4-15.174a18.522,18.522,0,0,0,8.545-7.976,29.718,29.718,0,0,0,2.142-5.173" transform="translate(-641.859 -490.607)" fill="none" stroke="#535461" stroke-miterlimit="10" stroke-width="2"/>
      <path id="Path_13046" data-name="Path 13046" d="M781.616,464.038c-.9,1.1-5.616,2.7-5.616,2.7s.566-4.77,1.475-5.868a2.718,2.718,0,0,1,3.718-.4,2.475,2.475,0,0,1,.423,3.568Z" transform="translate(-750.903 -459.914)" fill="#6c63ff"/>
      <path id="Path_13047" data-name="Path 13047" d="M769.793,508.567c-1.385.447-6.243-.665-6.243-.665s3.172-3.709,4.557-4.155a2.669,2.669,0,0,1,3.35,1.6,2.522,2.522,0,0,1-1.664,3.221Z" transform="translate(-740.695 -495.737)" fill="#6c63ff"/>
      <path id="Path_13048" data-name="Path 13048" d="M726.634,565.458c-1.43-.286-5.043-3.6-5.043-3.6s4.683-1.663,6.124-1.376a2.547,2.547,0,0,1,2.055,3.006A2.651,2.651,0,0,1,726.634,565.458Z" transform="translate(-706.293 -542.338)" fill="#6c63ff"/>
      <path id="Path_13049" data-name="Path 13049" d="M677.182,600.419c-1.461-.049-5.6-2.732-5.6-2.732s4.323-2.4,5.787-2.342a2.541,2.541,0,1,1-.186,5.074Z" transform="translate(-665.291 -570.95)" fill="#6c63ff"/>
      <path id="Path_13050" data-name="Path 13050" d="M738.357,497.089c.18,1.392,3.35,5.106,3.35,5.106s2.082-4.363,1.9-5.764a2.621,2.621,0,0,0-2.961-2.2,2.563,2.563,0,0,0-2.286,2.855Z" transform="translate(-720.025 -488.035)" fill="#6c63ff"/>
      <path id="Path_13051" data-name="Path 13051" d="M683.033,535.642c.611,1.275,4.786,3.91,4.786,3.91s.63-4.764.018-6.039a2.691,2.691,0,0,0-3.509-1.245,2.5,2.5,0,0,0-1.3,3.374Z" transform="translate(-674.486 -519.04)" fill="#6c63ff"/>
      <path id="Path_13052" data-name="Path 13052" d="M636.749,585.178c.378,1.356,4.031,4.633,4.031,4.633s1.457-4.593,1.081-5.944a2.659,2.659,0,0,0-3.242-1.8,2.534,2.534,0,0,0-1.87,3.113Z" transform="translate(-636.666 -559.987)" fill="#6c63ff"/>
      <path id="Path_13053" data-name="Path 13053" d="M781.616,464.038c-.9,1.1-5.616,2.7-5.616,2.7s.566-4.77,1.475-5.868a2.718,2.718,0,0,1,3.718-.4,2.475,2.475,0,0,1,.423,3.568Z" transform="translate(-750.903 -459.914)"/>
      <path id="Path_13054" data-name="Path 13054" d="M769.793,508.567c-1.385.447-6.243-.665-6.243-.665s3.172-3.709,4.557-4.155a2.669,2.669,0,0,1,3.35,1.6,2.522,2.522,0,0,1-1.664,3.221Z" transform="translate(-740.695 -495.737)"/>
      <path id="Path_13055" data-name="Path 13055" d="M726.634,565.458c-1.43-.286-5.043-3.6-5.043-3.6s4.683-1.663,6.124-1.376a2.547,2.547,0,0,1,2.055,3.006A2.651,2.651,0,0,1,726.634,565.458Z" transform="translate(-706.293 -542.338)"/>
      <path id="Path_13056" data-name="Path 13056" d="M677.182,600.419c-1.461-.049-5.6-2.732-5.6-2.732s4.323-2.4,5.787-2.342a2.541,2.541,0,1,1-.186,5.074Z" transform="translate(-665.291 -570.95)"/>
      <path id="Path_13057" data-name="Path 13057" d="M738.357,497.089c.18,1.392,3.35,5.106,3.35,5.106s2.082-4.363,1.9-5.764a2.621,2.621,0,0,0-2.961-2.2,2.563,2.563,0,0,0-2.286,2.855Z" transform="translate(-720.025 -488.035)"/>
      <path id="Path_13058" data-name="Path 13058" d="M683.033,535.642c.611,1.275,4.786,3.91,4.786,3.91s.63-4.764.018-6.039a2.691,2.691,0,0,0-3.509-1.245,2.5,2.5,0,0,0-1.3,3.374Z" transform="translate(-674.486 -519.04)"/>
      <path id="Path_13059" data-name="Path 13059" d="M636.749,585.178c.378,1.356,4.031,4.633,4.031,4.633s1.457-4.593,1.081-5.944a2.659,2.659,0,0,0-3.242-1.8,2.534,2.534,0,0,0-1.87,3.113Z" transform="translate(-636.666 -559.987)" opacity="0.25"/>
    </g>
    <g id="Group_10805" data-name="Group 10805" transform="translate(99.268 52.894)" opacity="0.1">
      <path id="Path_13060" data-name="Path 13060" d="M662.45,404.988s.589-11.933,7.4-18.589a17.819,17.819,0,0,0,5.3-10.247,29.265,29.265,0,0,0,.238-5.562" transform="translate(-657.586 -362.985)" fill="none" stroke="#535461" stroke-miterlimit="10" stroke-width="2"/>
      <path id="Path_13061" data-name="Path 13061" d="M734.706,331.757c-.477,1.326-4.366,4.341-4.366,4.341s-1.11-4.683-.632-6.009a2.675,2.675,0,0,1,3.377-1.569,2.522,2.522,0,0,1,1.621,3.237Z" transform="translate(-712.631 -328.371)" fill="#151515"/>
      <path id="Path_13062" data-name="Path 13062" d="M738.374,374.912c-1.151.863-6.124,1.362-6.124,1.362s1.715-4.5,2.866-5.373a2.718,2.718,0,0,1,3.712.441,2.479,2.479,0,0,1-.454,3.57Z" transform="translate(-714.813 -362.799)" fill="#151515"/>
      <path id="Path_13063" data-name="Path 13063" d="M712.788,441.946c-1.441.18-6-1.8-6-1.8s3.847-3.062,5.3-3.242a2.634,2.634,0,0,1,2.974,2.181,2.565,2.565,0,0,1-2.271,2.862Z" transform="translate(-693.939 -417.335)" fill="#151515"/>
      <path id="Path_13064" data-name="Path 13064" d="M679.649,490.577c-1.4.42-6.229-.793-6.229-.793s3.255-3.642,4.649-4.062a2.666,2.666,0,0,1,3.314,1.668,2.522,2.522,0,0,1-1.735,3.186Z" transform="translate(-666.58 -457.28)" fill="#151515"/>
      <path id="Path_13065" data-name="Path 13065" d="M701.366,378.111c.657,1.261,4.923,3.75,4.923,3.75s.461-4.78-.2-6.036a2.7,2.7,0,0,0-3.552-1.129,2.5,2.5,0,0,0-1.174,3.415Z" transform="translate(-689.265 -366.127)" fill="#151515"/>
      <path id="Path_13066" data-name="Path 13066" d="M662.446,432.119c1.018,1.007,5.865,2.161,5.865,2.161s-1.048-4.694-2.066-5.7a2.725,2.725,0,0,0-3.741-.056,2.477,2.477,0,0,0-.058,3.6Z" transform="translate(-656.972 -409.895)" fill="#151515"/>
      <path id="Path_13067" data-name="Path 13067" d="M635.907,493.6c.825,1.158,5.4,3.084,5.4,3.084s-.209-4.8-1.034-5.957a2.713,2.713,0,0,0-3.676-.663,2.482,2.482,0,0,0-.693,3.536Z" transform="translate(-635.447 -460.573)" fill="#151515"/>
    </g>
    <path id="Path_13068" data-name="Path 13068" d="M182.388,62.627l6.421,1.239s-11.2-1.057-14.554-.881-10.91,4.4-10.91,4.4a22.985,22.985,0,0,0-7.792,5.108,32.9,32.9,0,0,0-2.882,3.084c-3.37,4.085-6.755,10.072-8.848,18.733q-.324,1.328-.6,2.738c-.375,1.9-.69,3.923-.931,6.07q-.169,1.488-.29,3.062-.113,1.5-.18,3.076-.067,1.5-.083,3.062-.027,2.1.032,4.323.04,1.484.122,3.024v.124a99.671,99.671,0,0,0,2.459,17.937c.126.521.254,1.032.387,1.533a60.638,60.638,0,0,0,2.216,6.819c.151.389.308.771.465,1.144q.553,1.308,1.137,2.5.481.978.98,1.877c.065.122.133.243.2.36q.243.432.492.843c5.787,9.656,12.879,12.02,15.71,12.592.393.077.7.122.915.15h.018c.209.023.322.029.322.029.666,2.543-.607,3.566-2.142,3.937a6.208,6.208,0,0,1-.757.133h0a11.054,11.054,0,0,1-3.012-.121s-6.892.3-14.127.477c-.54.014-1.092.025-1.639.038h0l-.607.011c-3.743.076-7.385.1-10.058.022h0c-1.261-.038-2.3-.1-3.022-.193-5.47-.708-3.882-4.235-2.2-6.971,1.441-2.352.72-6.535-1.636-13.446q-.573-1.679-1.275-3.575c-2.592-7.025-2.441-17.522-1.832-26.41.079-1.174.168-2.318.259-3.422.112-1.355.227-2.65.337-3.864a66.94,66.94,0,0,1,3.783-15.937q.36-1.016.737-1.954a47.6,47.6,0,0,1,2.424-5.326c.2-.36.382-.67.553-.937l.155-.247c.3-.479.609-1.027.928-1.621.467-.877.951-1.862,1.428-2.882,1.218-2.6,2.4-5.443,3.179-7.385.571-1.407.924-2.333.924-2.333a3.471,3.471,0,0,0-.387-1.081c-2.967-5.422-20.163-8.536-20.163-8.536l-8.617.621L93.286,65.8,112,62.975l2.9-.438s-.843-.09-2.088-.292h0c-2.469-.4-6.531-1.241-8.759-2.7-1.778-1.169-11.2-1.67-19.659-1.882V55.511l1.578,1.124,18.165.272-8.826-11.3L106.95,57.515c1.83.36,5.351,1.2,9.4,2.183,2.788.681,5.831,1.432,8.743,2.161,7.144,1.787,13.509,3.422,13.509,3.422a31.41,31.41,0,0,0-12.392-22.928l-9.955-7.544h2.576c7.376,4.4,18.463,13.18,18.463,13.18a98.855,98.855,0,0,0-1.749-13.18h3.4c.04.427.092.85.153,1.273,1.329,9.067,1.992,19.756,1.992,19.756,1.147,7.762,4.235,1.147,4.235,1.147-.268-8.826,3.285-17.056,6.124-22.177h3.759a10.066,10.066,0,0,0-1.158,6.124c5.764-4.3,10.339-5.746,13.471-6.124a13.385,13.385,0,0,1,3.487,0,6.083,6.083,0,0,1,1.3.3c-11.641.54-19.932,9.348-19.932,9.348-.922.231-3.253,7.437-4.244,16.588-.146,1.346-.263,2.731-.342,4.143-.265,4.723.328,6.645,1.092,7.3a1.4,1.4,0,0,0,1.691,0,3.437,3.437,0,0,0,.657-.51c1.812-3.035,8.695-6.484,14.961-9.129,1.324-.558,2.621-1.081,3.837-1.554a14.325,14.325,0,0,0,8.574-9.626c2.044-7.5,5.879-7.2,5.879-7.2-4.5,3.44-4.233,13.85-4.233,13.85l14.9-3.15c-7.084,1.9-18.695,6.319-18.695,6.319l5.926,1.142Z" transform="translate(-84.38 -34.7)" fill="#dea3a2"/>
    <path id="Path_13069" data-name="Path 13069" d="M703.215,143.76l-3.885.82A28.459,28.459,0,0,1,703.215,143.76Z" transform="translate(-588.555 -124.118)" fill="#dea3a2"/>
    <path id="Path_13070" data-name="Path 13070" d="M383.01,728.953a11.526,11.526,0,0,0-7.771-.971c-4.492.971-11.373.456-12,.349Z" transform="translate(-313.003 -602.886)" opacity="0.1"/>
    <path id="Path_13071" data-name="Path 13071" d="M391.778,441.39s-1.092,17.241.85,20.64Z" transform="translate(-336.15 -368.138)" opacity="0.1"/>
    <path id="Path_13072" data-name="Path 13072" d="M370.78,556s1.4,16.15,2.37,19.306S370.78,556,370.78,556Z" transform="translate(-319.185 -462.104)" opacity="0.1"/>
    <path id="Path_13073" data-name="Path 13073" d="M342.693,335.56c-.991.36-5.242,8.985-4.391,11.528S342.693,335.56,342.693,335.56Z" transform="translate(-292.465 -281.371)" opacity="0.1"/>
    <path id="Path_13074" data-name="Path 13074" d="M413.467,285.88c-.461.211-2.437,5.175-2.043,6.643S413.467,285.88,413.467,285.88Z" transform="translate(-352.466 -240.639)" opacity="0.1"/>
    <path id="Path_13075" data-name="Path 13075" d="M320.86,446.62a65.82,65.82,0,0,1,.445,12.292,47.342,47.342,0,0,0,.133,9.35Z" transform="translate(-278.256 -372.426)" opacity="0.1"/>
    <path id="Path_13076" data-name="Path 13076" d="M605.982,123a3.984,3.984,0,0,0-.829,2.536c-.029.915.088,1.817.029,2.723-.063.953-.515,2.071-1.463,2.2Z" transform="translate(-510.167 -107.098)" opacity="0.1"/>
    <path id="Path_13077" data-name="Path 13077" d="M353,96.32a10.411,10.411,0,0,1,1.981,1.362,3.52,3.52,0,0,1,1.149,2.062c.045.34.022.69.1,1.023a3.243,3.243,0,0,0,.675,1.239,16.959,16.959,0,0,0,1.672,1.85" transform="translate(-304.607 -85.223)" fill="none"/>
    <path id="Path_13078" data-name="Path 13078" d="M346.648,209.888a12.005,12.005,0,0,0-1.594-1.11,6.664,6.664,0,0,0-1.643-.72,17.586,17.586,0,0,0-2.7-.294,3.837,3.837,0,0,1-2.469-1.014Z" transform="translate(-292.506 -175.762)" opacity="0.1"/>
    <path id="Path_13079" data-name="Path 13079" d="M185.82,162.31a7.19,7.19,0,0,1,3.141.558c.488.25.911.611,1.389.875a4.2,4.2,0,0,0,2.025.528Z" transform="translate(-167.54 -139.327)" opacity="0.1"/>
    <path id="Path_13080" data-name="Path 13080" d="M255.353,186.514a.6.6,0,0,0-.771.18c-.191.222-.3.506-.5.72a2.219,2.219,0,0,1-1.607.492Z" transform="translate(-222.193 -159.103)" opacity="0.1"/>
    <path id="Path_13081" data-name="Path 13081" d="M302.5,60.33l1.032.54a18.209,18.209,0,0,1,3.04,1.853Z" transform="translate(-263.203 -55.716)" opacity="0.1"/>
    <path id="Path_13082" data-name="Path 13082" d="M367.92,116.207c.679-.16,1.261.562,1.383,1.25a18.379,18.379,0,0,0,.18,2.077,3.835,3.835,0,0,0,1.016,1.524Z" transform="translate(-316.84 -101.51)" opacity="0.1"/>
    <path id="Path_13083" data-name="Path 13083" d="M426.914,123.31c.616,1.841-.692,3.851-.308,5.755.115.58.385,1.12.522,1.695a5.126,5.126,0,0,1-1.248,4.323Z" transform="translate(-364.36 -107.352)" opacity="0.1"/>
    <path id="Path_13084" data-name="Path 13084" d="M414.319,436.683a7.345,7.345,0,0,0-1.288.917c-.079.063-.159.132-.236.2.036.085.074.18.115.263l.092-.18.041-.072.04-.068c.1-.162.164-.25.164-.25l1.245-.9Q414.411,436.638,414.319,436.683Zm0,0a7.345,7.345,0,0,0-1.288.917c-.079.063-.159.132-.236.2.036.085.074.18.115.263l.092-.18.041-.072.04-.068c.1-.162.164-.25.164-.25l1.245-.9Q414.411,436.638,414.319,436.683Zm40.557,31.3c.36-1.146-4.143-2.637-5.69-3.109v-.038l-.065.016c-.268-.083-.431-.128-.431-.128s-.69-.5-1.547-1.11l-.049-.169-.135.04c-.412-.292-.852-.6-1.261-.884a.288.288,0,0,1,.1-.04l-.04-.218a.485.485,0,0,0-.209.086l-.013-.086a.455.455,0,0,0-.148.052c-.4-.276-.764-.513-1.029-.677s-.681-.474-1.209-.881h0c-.517-.4-1.122-.884-1.735-1.385l.068-.18.1-.261-.254.122-.022.011.052-.133-.256.122-.054.027c-.2-.168-.4-.333-.6-.5h0c.013,0,.029-.014.041-.023.077-.043.155-.083.227-.124l.3-.159.36-.2.07-.04c.585-.319.933-.512.933-.512a14.81,14.81,0,0,0,5.254-5c1.772-2.817-.193-5.38-1.441-6.886-.013-.016-.027-.031-.038-.047a2.523,2.523,0,0,0,.249-.088h0a1.519,1.519,0,0,0,.953-1.331,1.368,1.368,0,0,0-.07-.557c-.213-.645-.744-2.487-.1-3.188a.861.861,0,0,1,.609-.27,16.957,16.957,0,0,0,4.019-.6,1.981,1.981,0,0,0,.589-.319.569.569,0,0,0,.234-.443,2.613,2.613,0,0,0-.85-2.046.671.671,0,0,0-.119-.068.06.06,0,0,0-.018-.011,2.859,2.859,0,0,0-1.621-.3,15.709,15.709,0,0,1-4.28-.515l-.079.077-.18-.168-.146-.141-3.008-2.9-.666.665-.317-.308-.656-.636-.04-.038-1.178-1.142a18.518,18.518,0,0,0-1.54-6.043,4.074,4.074,0,0,0-1.275-1.542l-1.418-1.371-.1-.1c.02-.018.04-.034.061-.056h0a.969.969,0,0,0,.09-.1,1.471,1.471,0,0,0,.211-.331,1.49,1.49,0,0,0-.319-1.7l-.04-.04a1.554,1.554,0,0,0-2.068-.074.708.708,0,0,0-.1.09h0l-.056.059-.411-.4a1.621,1.621,0,0,0-2.268.018l-2.07,2.066a15.739,15.739,0,0,0-.614-1.621c-.58-1.219-2.6-2.235-4.568-2.967h0c-.956-.36-1.9-.645-2.666-.857h0c-.463-.13-.859-.231-1.147-.3h0l-.1-.025h0l-.391-.092.11-.124.092-.1.144-.159.106-.115c.126.085.252.164.384.238h0a9.336,9.336,0,0,0,12.311-2.623c.056-.077.11-.157.159-.236a1.52,1.52,0,0,0,.1-.157.852.852,0,0,0,.047-.076c.038-.059.074-.119.11-.18l.193-.023a2.373,2.373,0,0,0,1.7-.784,1.079,1.079,0,0,0,.112-.18h0a1.658,1.658,0,0,0,.068-.153h0a1.828,1.828,0,0,0,.065-.2h0a5.911,5.911,0,0,0,.139-.818,1.764,1.764,0,0,1,.031-.236h0l.032-.18.022.02a6.159,6.159,0,0,1,.54.54.454.454,0,0,1,.04.043v-.115h0v-.085c0-.784,1.585-.96,2.1-1.441a.409.409,0,0,0,.135-.461c.094,0-.029-.486-.083-.83-.029-.18-.038-.322.009-.34l.081-.038c.27-.146.142-.375.119-.621a.479.479,0,0,1,.043-.274.484.484,0,0,1,.13-.168c.326-.288-.506-.461-.1-.634l-.54-1.621a4.6,4.6,0,0,0-.348-.857,2.424,2.424,0,0,0-.294-.405,5.731,5.731,0,0,0-2.068-2.967c-.618-.449-1.319-.776-1.929-1.234-1.517-1.135-2.324-2.941-3.523-4.4a6.221,6.221,0,0,0-2.2-1.713,3.251,3.251,0,0,0-2.6-.148,1.517,1.517,0,0,0-.159.07c-1.232.6-1.817,2.016-2.927,2.814-1.553,1.119-3.685.773-5.605.578a27.268,27.268,0,0,0-5.962.058,1.5,1.5,0,0,0-.834.254,1.28,1.28,0,0,0-.344.919v.416c-.014,1.347.562,2.671.607,4.011a3.454,3.454,0,0,1-.02.385,5.549,5.549,0,0,1-2.841,3.93c-1.243.753-2.9,1.547-2.828,2.979v.063a1.525,1.525,0,0,0,0,.157,2.042,2.042,0,0,0,.155.668c-1.409.009-2.522-.054-2.522-.054a7.9,7.9,0,0,0-4.244.6,7.452,7.452,0,0,0-3.163,2.68,10.073,10.073,0,0,0-1.007,1.915s-1.49,7.178-3.053,9.082a9,9,0,0,0-1.715,4.617,23.133,23.133,0,0,1-.748,2.342,4.709,4.709,0,0,1-.892,1.607,1.7,1.7,0,0,0-.373,1.83s-.967.953-.9,1.538a5.74,5.74,0,0,1-.521,1.906s-.6,1.392-.3,2.052c.18.4-.267,1.412-.647,2.152l-.321-.029a18.07,18.07,0,0,0-.985,2.576,4.639,4.639,0,0,0-.209,1.38,10.911,10.911,0,0,1-.9,3.59,14.378,14.378,0,0,0-.629,3.909v.1a9.326,9.326,0,0,0,3.559,7.925,11.563,11.563,0,0,0,3.66,1.789c.413.128.848.24,1.308.34l1.039.222a25.8,25.8,0,0,0,4.662,1.872,12.218,12.218,0,0,0,2.419.443h0a12.187,12.187,0,0,0,4.083-.36c.18.025.349.047.517.068l.153.022h.025c2.639.344,4.453.492,5.333.551l-.011.045h0c-.18.884-.292,1.547-.292,1.547l.16.191c-.011.059-.016.1-.016.1l2.381,2.959a1.21,1.21,0,0,0,.36-.1,3.518,3.518,0,0,0,1.239-.962,1.354,1.354,0,0,0,.4.049h.059a2.521,2.521,0,0,0,.616-.1s.425-.308,1-.688l.065.1h0l.382-.247h0l.33-.214.834-.54.014-.025.041-.081c.07-.036.139-.07.205-.1.108-.054.214-.1.312-.141a1.881,1.881,0,0,1,.553-.15,4.99,4.99,0,0,0,1.679-.693l.094.094a1.26,1.26,0,0,0,.216-.274l.133-.081h0c.1-.063.205-.128.3-.18.54-.335.928-.614.928-.614s6.753-.684,9.305-1.261l-.011.108a.7.7,0,0,1-.016.157c-.234-.013-.449-.018-.639-.02h0a5.26,5.26,0,0,0-.573.016.865.865,0,0,0-.463.164c-.528.434.313,1.52.313,1.52l.034.011c.821.263,16.249,5.2,17.771,5.4a23.493,23.493,0,0,0,4.354-.238h.014a21.086,21.086,0,0,0,6.187-1.43,1.533,1.533,0,0,0,.4-.308.448.448,0,0,0,.038-.049h0C456.342,469.217,455.565,468.455,454.875,467.983ZM432.69,435.624l-.436.439-.47-1.034h0l-.229-.5.933.9Zm-22.036,16.015h-.49c.135-.72.225-1.2.225-1.2s.692-3.278,1.137-6.124a21.554,21.554,0,0,0,.36-3.622,5.044,5.044,0,0,1,.2-1.8,5.487,5.487,0,0,1,.232-.654c.043-.1.088-.2.131-.288l.31-.258c.016.036.029.074.047.112.036.085.074.18.115.263l.025.052h0a37.72,37.72,0,0,0,3.8,5.807c1.767,2.324,3.408,4.242,3.408,4.242s.321.36.825.915c-1.841.672-3.581,1.32-3.581,1.32l-5.553,1.421a4.227,4.227,0,0,0-1.192-.187Zm22.8-12.927-.076-.168h0l-.4-.877-.24-.526.263.254.14.137a.483.483,0,0,0,.063.13,1.157,1.157,0,0,1,.191.418,2.474,2.474,0,0,1,.059.632Zm-19.133-2.028a7.345,7.345,0,0,0-1.288.917c-.079.063-.159.132-.236.2.036.085.074.18.115.263l.092-.18.041-.072.04-.068c.1-.162.164-.25.164-.25l1.245-.9Q414.411,436.638,414.319,436.683Zm0,0a7.345,7.345,0,0,0-1.288.917c-.079.063-.159.132-.236.2.036.085.074.18.115.263l.092-.18.041-.072.04-.068c.1-.162.164-.25.164-.25l1.245-.9Q414.411,436.638,414.319,436.683Z" transform="translate(-326.942 -327.56)" fill="url(#linear-gradient)"/>
    <path id="Path_13085" data-name="Path 13085" d="M664.242,800.4s2.7,1.239,1.6,2.551-9.186,2.185-10.707,1.965-17.409-5.389-17.409-5.389-1.165-1.529.146-1.675a60.155,60.155,0,0,1,6.845.582l7.576.438Z" transform="translate(-537.657 -660.377)" fill="#535184"/>
    <path id="Path_13086" data-name="Path 13086" d="M556.24,614.159l3.55,7.81,4.752-4.644-3.5-5.625Z" transform="translate(-456.04 -501.521)" fill="#ffb9b9"/>
    <path id="Path_13087" data-name="Path 13087" d="M564.542,617.325l-3.592,3.511-1.16,1.133-.693-1.522-1.985-4.368-.872-1.92,1.248-.639,3.557-1.819,1.331,2.142.922,1.482Z" transform="translate(-456.04 -501.521)" opacity="0.05"/>
    <path id="Path_13088" data-name="Path 13088" d="M540.352,470.868a28.978,28.978,0,0,0-3.494,3.276c-.068.076-.133.15-.2.223h0a17.209,17.209,0,0,0-1.65,2.223,11.368,11.368,0,0,0-.933,1.855,5.224,5.224,0,0,0-.431,2.985,79.774,79.774,0,0,1-5.931-5.6c-3.037-3.23-5.537-6.758-2.59-7.3a17.96,17.96,0,0,0,8.34-4.42,17.214,17.214,0,0,0,1.421-1.407S548.218,464.533,540.352,470.868Z" transform="translate(-444.65 -385.618)" fill="#ffb9b9"/>
    <path id="Path_13089" data-name="Path 13089" d="M532.679,689.682l7.974-2.077s7.2-2.731,7.648-2.786S563.379,681,563.379,681l-6.938,15.4L540,702.028l-9.777-.929Z" transform="translate(-449.906 -564.589)" fill="#ffb9b9"/>
    <path id="Path_13090" data-name="Path 13090" d="M532.679,689.682l7.974-2.077s7.2-2.731,7.648-2.786S563.379,681,563.379,681l-6.938,15.4L540,702.028l-9.777-.929Z" transform="translate(-449.906 -564.589)" fill="#4c4c78"/>
    <path id="Path_13091" data-name="Path 13091" d="M427.64,492.414c-.216-1.2-.627-3.871-.18-4.654a13.908,13.908,0,0,0-3.062.36,34.553,34.553,0,0,1-6.261.22s-5.753-1.093-8.23,5.171c0,0-1.457,7.138-2.986,9.031a9.031,9.031,0,0,0-1.675,4.59s-.8,3.2-1.6,3.932a1.713,1.713,0,0,0-.36,1.821s-.947.947-.874,1.531a5.541,5.541,0,0,1-.51,1.893s-.58,1.391-.3,2.043-1.093,2.986-1.093,2.986l24.693,5.171L431.76,505.9l.146-8.594s-3.6-.335-4.105-3.824C427.748,493.122,427.7,492.767,427.64,492.414Z" transform="translate(-343.559 -406.152)" fill="#787c9c"/>
    <path id="Path_13092" data-name="Path 13092" d="M433.735,620.439l-.875,1.6s5.245,1.529,7.138,1.019,8.017-4.662,8.017-4.662Z" transform="translate(-370.083 -513.265)" fill="none"/>
    <path id="Path_13093" data-name="Path 13093" d="M433.735,620.439l-.875,1.6s5.245,1.529,7.138,1.019,8.017-4.662,8.017-4.662Z" transform="translate(-370.083 -513.265)" opacity="0.1"/>
    <path id="Path_13094" data-name="Path 13094" d="M399.8,670.72s-5.025-1.019-5.827-1.019-4.735-.36-4.735-.36a12.151,12.151,0,0,0-1.165,3.932,11.077,11.077,0,0,1-.881,3.572s-3.86,11.436,7.72,13.985a118.968,118.968,0,0,0,18.428,2.841s3.783-10.707,4.516-12.164.51-2.477-2.913-2.185S399.8,670.72,399.8,670.72Z" transform="translate(-332.131 -555.029)" fill="#4c4c78"/>
    <path id="Path_13095" data-name="Path 13095" d="M700.16,804.81" transform="translate(-589.236 -666.098)" fill="none"/>
    <path id="Path_13096" data-name="Path 13096" d="M597.18,552.457l-.259.02c-.3.022-.827.061-1.464.117-.985.09-2.228.216-3.284.369-.557.083-1.056.171-1.441.267-.47.115-.762.241-.762.375,0,.331-2.882-5.535-5.73-11.411-.092-.193-.18-.384-.277-.575s-.18-.375-.274-.56c-.157-.328-.313-.654-.47-.974-.7-1.441-1.374-2.848-1.981-4.105l-.331-.684-1.819-3.8-.376-.785s.461-.553,1.057-1.241,1.329-1.508,1.875-2.053h.022c.456.1,7.516,1.735,8.678,4.22a21.211,21.211,0,0,1,.874,2.491c.088.29.18.6.27.913.36,1.284.758,2.749,1.124,4.177.072.279.142.558.213.83.778,3.087,1.4,5.791,1.4,5.791l1.882,4.217Z" transform="translate(-489.662 -438.672)" fill="#787c9c"/>
    <path id="Path_13097" data-name="Path 13097" d="M663.543,586.024s-1.621,5.548-2.342,7.693a4.639,4.639,0,0,1-.328.829,6.689,6.689,0,0,1-2.954,1.355,3.3,3.3,0,0,1-.652.029,2.354,2.354,0,0,1-.928-.236,8.377,8.377,0,0,1-2.95-3.168l.564-1.032.875-1.6,1.862-3.4.195-.36a9.528,9.528,0,0,0,.348-1.245,5.368,5.368,0,0,0,.113-.929,1.689,1.689,0,0,0-.243-1.048c-.656-.874-.71-16.116,3.224-13.931S663.543,586.024,663.543,586.024Z" transform="translate(-550.89 -472.567)" fill="#ffb9b9"/>
    <path id="Path_13098" data-name="Path 13098" d="M579.031,681.109l.213-.18s3.932-.108,4.752,1.093,4.208,4.262,2.077,7.7a14.529,14.529,0,0,1-5.135,4.971s-11.254,6.337-13.329,6.938S558.1,703,558.1,703s-2.342,1.693-3.278,1.747-3.66,2.077-3.66,2.077-3,.983-.764-3.062a47.265,47.265,0,0,0,2.522-4.863s2.131,1.2,3.332,0,8.522-5.789,8.522-5.789,4.685-3.761,5.618-4.244,6.828-3.824,6.828-3.824h0A4.916,4.916,0,0,1,579.031,681.109Z" transform="translate(-465.771 -564.528)" fill="#ffb9b9"/>
    <path id="Path_13099" data-name="Path 13099" d="M586.064,689.688a14.529,14.529,0,0,1-5.135,4.971s-.629.36-1.621.9c-3.168,1.76-10.02,5.517-11.672,6.023l-.038.011c-2.075.6-9.505,1.365-9.505,1.365s-2.342,1.693-3.278,1.747-3.66,2.077-3.66,2.077-3,.983-.764-3.062a47.288,47.288,0,0,0,2.522-4.863s2.131,1.2,3.332,0,8.522-5.789,8.522-5.789.34-.274.859-.686c1.4-1.108,4.091-3.217,4.768-3.575.263-.141.928-.51,1.747-.965.164-.092.335-.189.51-.285,1.158-.648,2.495-1.4,3.422-1.927l1.147-.647v-.113a4.919,4.919,0,0,1,1.812-3.811l.213-.18s3.932-.108,4.752,1.093S588.195,686.248,586.064,689.688Z" transform="translate(-465.762 -564.487)" opacity="0.05"/>
    <path id="Path_13100" data-name="Path 13100" d="M531,773.858l2.342,2.943s2.161-.141,3.81-5.735-.485-6.157-.485-6.157-3.1,1.778-4.033,3.17S531,773.858,531,773.858Z" transform="translate(-450.545 -633.385)" fill="#535184"/>
    <path id="Path_13101" data-name="Path 13101" d="M530.23,774.3l2.3,2.8s1.967-.137,3.55-5.452-.456-5.845-.456-5.845-2.947,1.691-3.84,3.013S530.23,774.3,530.23,774.3Z" transform="translate(-449.914 -634.115)" fill="#535184"/>
    <path id="Path_13102" data-name="Path 13102" d="M530.23,774.3l2.3,2.8s1.967-.137,3.55-5.452-.456-5.845-.456-5.845-2.947,1.691-3.84,3.013S530.23,774.3,530.23,774.3Z" transform="translate(-449.914 -634.115)" opacity="0.15"/>
    <path id="Path_13103" data-name="Path 13103" d="M563.667,789.746l-.117-.18h0c.4-.279,1.338-4.249,1.839-6.7l.214.043a48.089,48.089,0,0,1-1.655,6.394l1.065-.7c.169-.324,1.942-3.808.971-5.515l-.077-.139,1.212-.18.038.063c.088.146,2.142,3.584.856,4.833l-.151-.157c1.081-1.043-.584-4.031-.856-4.5l-.758.112c.9,1.926-.973,5.46-1.054,5.613l-.014.023-1.511,1Z" transform="translate(-477.232 -648.028)" fill="#535184"/>
    <path id="Path_13104" data-name="Path 13104" d="M519,528.73c.218.328.436,3.113,1.261,3.168S519,528.73,519,528.73Z" transform="translate(-440.707 -439.746)" opacity="0.1"/>
    <path id="Path_13105" data-name="Path 13105" d="M492.31,498.1s2.342.272,2.513,2.4S492.31,498.1,492.31,498.1Z" transform="translate(-418.824 -414.634)" opacity="0.1"/>
    <path id="Path_13106" data-name="Path 13106" d="M422.86,643.06s.928,2.841,3,3.388Z" transform="translate(-361.884 -533.483)" fill="none"/>
    <path id="Path_13107" data-name="Path 13107" d="M441,646.4s-.218,2.185,1.311,2.731S441,646.4,441,646.4Z" transform="translate(-376.748 -536.221)" fill="none"/>
    <path id="Path_13108" data-name="Path 13108" d="M414.289,716.76s-4.588,2.241-4.478,3S414.289,716.76,414.289,716.76Z" transform="translate(-351.184 -593.908)" opacity="0.1"/>
    <path id="Path_13109" data-name="Path 13109" d="M404.05,704.987s2.295-2.457,3.934-2.239Z" transform="translate(-346.462 -582.408)" opacity="0.1"/>
    <path id="Path_13110" data-name="Path 13110" d="M649.026,613s-.656,4.588.328,4.916S649.026,613,649.026,613Z" transform="translate(-547.136 -508.837)" opacity="0.1"/>
    <path id="Path_13111" data-name="Path 13111" d="M431.811,570.716s-1.821,7.868-.146,8.6a23.836,23.836,0,0,0,5.209,2.226,11.5,11.5,0,0,0,13.776-6.14,6.537,6.537,0,0,0,.54-1.621c.436-2.768,1.237-7.066,1.237-7.066s1.6-7.72,1.457-9.687a5.514,5.514,0,0,1,.947-3.422l10.267-7.43-2.841-7.794s-7.356-10.415-13.985-.8a178.738,178.738,0,0,0-12.018,20.831S431.955,564.889,431.811,570.716Z" transform="translate(-368.522 -443.658)" fill="#ffb9b9"/>
    <path id="Path_13112" data-name="Path 13112" d="M559.017,544.94l-2,1.441L556,544.271c-1.787-3.7-3.422-7.1-4.127-8.585a5.223,5.223,0,0,0-.43,2.985,79.774,79.774,0,0,1-5.931-5.6c2.6-1.5,5.114-.688,7.043.587a2.589,2.589,0,0,1,.252.18,15.386,15.386,0,0,1,3.372,3.311Z" transform="translate(-462.442 -442.645)" opacity="0.1"/>
    <path id="Path_13113" data-name="Path 13113" d="M431.811,570.716s-1.821,7.868-.146,8.6a23.836,23.836,0,0,0,5.209,2.226,11.5,11.5,0,0,0,13.776-6.14,6.537,6.537,0,0,0,.54-1.621c.436-2.768,1.237-7.066,1.237-7.066s1.6-7.72,1.457-9.687a5.514,5.514,0,0,1,.947-3.422l10.267-7.43-2.841-7.794s-7.356-10.415-13.985-.8a178.738,178.738,0,0,0-12.018,20.831S431.955,564.889,431.811,570.716Z" transform="translate(-368.522 -443.658)" fill="#4c4c78"/>
    <path id="Path_13114" data-name="Path 13114" d="M612.083,629.138c.088-1.313.088-4.213.088-4.213a9.329,9.329,0,0,0-1.819-4.59c-.09-.124-.18-.258-.288-.394,1.4-1.108,4.091-3.217,4.768-3.575.263-.141.928-.51,1.747-.965a2.354,2.354,0,0,1-.928-.236A8.377,8.377,0,0,1,612.7,612l.564-1.032-1.981-4.368c-.47.115-.762.241-.762.375,0,.371-3.617-7.025-6.751-13.52.72-.58,1.2-.94,1.2-.94l2.259,2.041,4.436,9.487.809,1.729s.09.2.254.562c.283.623.785,1.713,1.421,3.033.3.62.629,1.293.978,1.981.609,1.221,1.284,2.522,1.971,3.763.049.085.094.18.142.256,1.524,2.736,3.1,5.148,4.193,5.764,0,0,1.059.913,2.331,1.981C620.586,624.875,613.734,628.632,612.083,629.138Z" transform="translate(-510.208 -492.038)" opacity="0.1"/>
    <path id="Path_13115" data-name="Path 13115" d="M569.8,592.52l2.257,2.039,5.245,11.216s6.124,13.767,8.959,15.37c0,0,5.171,4.442,6.337,5.171s4.22,2.986,4.22,2.986,9.105,2.621,5.025,3.932-9.613.292-9.613.292-6.124-1.311-7.868-2.331c0,0-1.02.072-1.747.072s-5.9-.874-5.764-1.6.146-4.735.146-4.735a9.32,9.32,0,0,0-1.821-4.588c-1.749-2.477-6.263-7.5-6.263-7.5s-7.722-9.186-7.5-11.654S569.8,592.52,569.8,592.52Z" transform="translate(-475.473 -492.046)" fill="#ffb9b9"/>
    <path id="Path_13116" data-name="Path 13116" d="M569.8,592.52l2.257,2.039,5.245,11.216s6.124,13.767,8.959,15.37c0,0,5.171,4.442,6.337,5.171s4.22,2.986,4.22,2.986,9.105,2.621,5.025,3.932-9.613.292-9.613.292-6.124-1.311-7.868-2.331c0,0-1.02.072-1.747.072s-5.9-.874-5.764-1.6.146-4.735.146-4.735a9.32,9.32,0,0,0-1.821-4.588c-1.749-2.477-6.263-7.5-6.263-7.5s-7.722-9.186-7.5-11.654S569.8,592.52,569.8,592.52Z" transform="translate(-475.473 -492.046)" fill="#ffb9b9"/>
    <path id="Path_13117" data-name="Path 13117" d="M728.518,801.873l-.2-.094a8.94,8.94,0,0,1,5.829-4.429l.049.213A8.705,8.705,0,0,0,728.518,801.873Z" transform="translate(-612.323 -659.982)" opacity="0.1"/>
    <path id="Path_13118" data-name="Path 13118" d="M706.685,794.25l-.195-.1c1.317-2.635,7.453-4.424,7.715-4.5l.061.211C714.2,789.882,707.96,791.694,706.685,794.25Z" transform="translate(-594.425 -653.669)" opacity="0.1"/>
    <path id="Path_13119" data-name="Path 13119" d="M724.455,789.853l-.205-.074c.218-.616,2.161-6.038,3.219-6.189l.032.216C726.8,783.907,725.3,787.477,724.455,789.853Z" transform="translate(-608.986 -648.7)" opacity="0.1"/>
    <path id="Path_13120" data-name="Path 13120" d="M727.3,801.873l-.2-.094a8.94,8.94,0,0,1,5.829-4.429l.049.213A8.717,8.717,0,0,0,727.3,801.873Z" transform="translate(-611.323 -659.982)" fill="#535184"/>
    <path id="Path_13121" data-name="Path 13121" d="M705.466,794.25l-.2-.1c1.318-2.635,7.455-4.424,7.716-4.5l.059.211C712.983,789.882,706.742,791.694,705.466,794.25Z" transform="translate(-593.425 -653.669)" fill="#535184"/>
    <path id="Path_13122" data-name="Path 13122" d="M723.213,789.894l-.213-.065c.218-.616,2.161-6.038,3.219-6.189l.031.216C725.558,783.948,724.054,787.518,723.213,789.894Z" transform="translate(-607.962 -648.741)" fill="#535184"/>
    <path id="Path_13123" data-name="Path 13123" d="M658.171,773.794c-.133-.874,2.043-6.845,2.534-8.178-3.388,1.565-12.292,3.37-12.383,3.388l-.041-.214c.094-.018,9.417-1.909,12.573-3.485l.249-.124-.1.259c-.767,2.059-2.732,7.565-2.617,8.322Z" transform="translate(-546.7 -633.606)" opacity="0.1"/>
    <path id="Path_13124" data-name="Path 13124" d="M656.972,773.794c-.133-.874,2.043-6.845,2.534-8.178-3.39,1.565-12.292,3.37-12.383,3.388l-.043-.214c.094-.018,9.419-1.909,12.574-3.485l.249-.124-.1.259c-.767,2.059-2.732,7.565-2.617,8.322Z" transform="translate(-545.717 -633.606)" fill="#535184"/>
    <path id="Path_13125" data-name="Path 13125" d="M493.676,573.254a58.159,58.159,0,0,1-8.271.874l-.6.69-.494.567s-4.48,5.512-6.065,5.9-6.281,5.737-6.281,5.737-3.824,2.567-7.2,4.534-5.789-2.841-5.789-2.841l-1.2-11.034,7.426-1.421.438,3.224s4.863-2.023,5.571-2.187,9.067-7.374,9.727-7.538a5.984,5.984,0,0,0,1.162-.58c.827-.5,1.735-1.113,1.735-1.113a39.533,39.533,0,0,1,8.518.18c.36,1.284.758,2.749,1.124,4.177C493.535,572.7,493.605,572.982,493.676,573.254Z" transform="translate(-390.506 -471.871)" opacity="0.1"/>
    <path id="Path_13126" data-name="Path 13126" d="M493.463,568.438a59.2,59.2,0,0,1-8.059.83l-.872,1-.22.254s-4.48,5.517-6.065,5.9-6.281,5.737-6.281,5.737-3.824,2.567-7.2,4.534-5.789-2.841-5.789-2.841l-1.2-11.034,7.426-1.428.438,3.222s4.863-2.021,5.571-2.185,9.067-7.374,9.727-7.538a4.228,4.228,0,0,0,.83-.391l.2-.113a9.683,9.683,0,0,1,4.7-1.333,34.126,34.126,0,0,1,5.418.286C492.516,564.812,493.008,566.651,493.463,568.438Z" transform="translate(-390.506 -467.878)" opacity="0.1"/>
    <path id="Path_13127" data-name="Path 13127" d="M615.1,771.07l1.913,1.01-.929,1.338-1.61-.764Z" transform="translate(-503.782 -632.185)" opacity="0.1"/>
    <path id="Path_13128" data-name="Path 13128" d="M615.1,769.86l1.913,1.01-.929,1.338-1.61-.766Z" transform="translate(-503.782 -631.193)" fill="#535184"/>
    <path id="Path_13129" data-name="Path 13129" d="M636.354,778.96l2.05.6-.766,1.394-1.938-.793Z" transform="translate(-521.188 -638.654)" opacity="0.1"/>
    <path id="Path_13130" data-name="Path 13130" d="M636.354,777.74l2.05.6-.766,1.392-1.938-.793Z" transform="translate(-521.188 -637.654)" fill="#535184"/>
    <path id="Path_13131" data-name="Path 13131" d="M481.908,636.59s-3.714,2.259-3.422,3.862Z" transform="translate(-407.477 -528.178)" opacity="0.1"/>
    <rect id="Rectangle_2773" data-name="Rectangle 2773" width="6.774" height="4.698" transform="matrix(0.702, -0.712, 0.712, 0.702, 102.553, 105.22)" opacity="0.1"/>
    <rect id="Rectangle_2774" data-name="Rectangle 2774" width="6.774" height="4.698" transform="matrix(0.702, -0.712, 0.712, 0.702, 102.864, 105.527)" fill="#504f60"/>
    <rect id="Rectangle_2775" data-name="Rectangle 2775" width="6.774" height="1.147" transform="matrix(0.702, -0.712, 0.712, 0.702, 105.393, 108.021)" opacity="0.1"/>
    <rect id="Rectangle_2776" data-name="Rectangle 2776" width="8.74" height="5.353" transform="matrix(0.702, -0.712, 0.712, 0.702, 104.976, 109.065)" fill="#504f60"/>
    <rect id="Rectangle_2777" data-name="Rectangle 2777" width="8.74" height="1.038" transform="matrix(0.702, -0.712, 0.712, 0.702, 108.051, 112.095)" opacity="0.1"/>
    <rect id="Rectangle_2778" data-name="Rectangle 2778" width="10.816" height="5.243" transform="matrix(0.702, -0.712, 0.712, 0.702, 107.557, 113.218)" fill="#504f60"/>
    <path id="Path_13132" data-name="Path 13132" d="M700.172,651.184c-.288.2-.845-.052-1.081-.2h0c-1.124-1.509-1.192-6.375-1.192-6.375l.1-.1-.312-.306,7.59-7.706.312.306.077-.077a16.884,16.884,0,0,0,4.458.782c.839.023,1.12-.122,1.454.11a3.735,3.735,0,0,1,.519,1.729c0,1-3,1.234-4.734,1.354-1.472.1-.755,2.657-.5,3.44a1.374,1.374,0,0,1,.067.553c-.157,1.637-2,1.744-3.563,1.333-1.664-.434-2.412,1.758-2.412,1.758A2.522,2.522,0,0,1,700.172,651.184Z" transform="translate(-587.211 -528.096)" opacity="0.1"/>
    <path id="Path_13133" data-name="Path 13133" d="M701.451,652.524c-.425.3-1.081-.1-1.389-.51h0c-1.124-1.509-1.192-6.375-1.192-6.375l7.769-7.889a16.882,16.882,0,0,0,4.458.782c.839.023,1.12-.122,1.454.11a2.639,2.639,0,0,1,.83,2.035c0,1-3,1.236-4.734,1.355-1.472.1-.755,2.657-.5,3.44a1.345,1.345,0,0,1,.068.553c-.155,1.639-2,1.744-3.561,1.333-1.664-.432-2.412,1.758-2.412,1.758A2.528,2.528,0,0,1,701.451,652.524Z" transform="translate(-588.178 -529.129)" fill="#504f60"/>
    <path id="Path_13134" data-name="Path 13134" d="M701.451,652.524c-.425.3-1.081-.1-1.389-.51h0c-1.124-1.509-1.192-6.375-1.192-6.375l7.769-7.889a16.882,16.882,0,0,0,4.458.782c.839.023,1.12-.122,1.454.11a2.639,2.639,0,0,1,.83,2.035c0,1-3,1.236-4.734,1.355-1.472.1-.755,2.657-.5,3.44a1.345,1.345,0,0,1,.068.553c-.155,1.639-2,1.744-3.561,1.333-1.664-.432-2.412,1.758-2.412,1.758A2.528,2.528,0,0,1,701.451,652.524Z" transform="translate(-588.178 -529.129)" opacity="0.1"/>
    <path id="Path_13135" data-name="Path 13135" d="M700.961,652.041a.652.652,0,0,1-1.021-.189h0c-.989-1.374-1.07-6.212-1.07-6.212l7.769-7.889a15.169,15.169,0,0,0,4.184.513,2.779,2.779,0,0,1,1.594.3c.54.36.488,1.009.459,1.621-.045.951-2.9,1.328-4.555,1.531-1.38.168-.868,2.493-.659,3.258a1.362,1.362,0,0,1,.041.571c-.241,1.547-1.981,1.74-3.44,1.441-1.555-.326-2.378,1.8-2.378,1.8A2.479,2.479,0,0,1,700.961,652.041Z" transform="translate(-588.178 -529.129)" fill="#504f60"/>
    <path id="Path_13136" data-name="Path 13136" d="M673.009,550.308h0a1.508,1.508,0,0,1-2.124.014l-.04-.04a1.5,1.5,0,0,1-.016-2.122h0a.928.928,0,0,1,.1-.09,1.5,1.5,0,0,1,2.021.074l.041.04a1.5,1.5,0,0,1,.1,2.021A.79.79,0,0,1,673.009,550.308Z" transform="translate(-564.835 -455.312)" fill="#504f60"/>
    <path id="Path_13137" data-name="Path 13137" d="M673.009,551.927h0a1.508,1.508,0,0,1-2.124.014l-.04-.04a1.5,1.5,0,0,1-.016-2.122h0a.928.928,0,0,1,.1-.09l2.161,2.134A.782.782,0,0,1,673.009,551.927Z" transform="translate(-564.835 -456.931)" opacity="0.1"/>
    <rect id="Rectangle_2779" data-name="Rectangle 2779" width="6.774" height="0.874" transform="matrix(0.702, -0.712, 0.712, 0.702, 102.864, 105.527)" opacity="0.1"/>
    <path id="Path_13138" data-name="Path 13138" d="M1.666,0H7.79A1.666,1.666,0,0,1,9.456,1.666V12.673H0V1.666A1.666,1.666,0,0,1,1.666,0Z" transform="matrix(0.712, 0.702, -0.702, 0.712, 104.414, 91.413)" fill="#504f60"/>
    <path id="Path_13139" data-name="Path 13139" d="M582.483,470.86a28.978,28.978,0,0,0-3.494,3.276,9.046,9.046,0,0,1-3.39-10.029,17.211,17.211,0,0,0,1.421-1.407S590.349,464.525,582.483,470.86Z" transform="translate(-486.781 -385.61)" opacity="0.1"/>
    <path id="Path_13140" data-name="Path 13140" d="M593.228,441.787v.2a8.841,8.841,0,0,1-.18,1.571c-.036.18-.072.34-.119.51a.063.063,0,0,1,0,.025,9.033,9.033,0,1,1-16.9-6.155c.115-.245.241-.483.378-.72a8.534,8.534,0,0,1,.63-.931,8.808,8.808,0,0,1,.974-1.081h0a9.028,9.028,0,0,1,15.22,6.576Z" transform="translate(-486.747 -361.053)" fill="#ffb9b9"/>
    <path id="Path_13141" data-name="Path 13141" d="M485.372,571.7l-.9,1.025-.191.236s-.456.562-1.128,1.338c-1.441,1.659-3.856,4.3-4.937,4.563-1.583.382-6.281,5.735-6.281,5.735s-3.824,2.569-7.2,4.534-5.8-2.841-5.8-2.841l-1.2-11.034,7.434-1.425.438,3.222s4.863-2.021,5.571-2.185c.6-.139,6.611-5.265,8.891-6.983a4.3,4.3,0,0,1,.832-.555,5.366,5.366,0,0,0,1.009-.492l.025-.016a9.624,9.624,0,0,1,4.669-1.331c3.37-.065,8.8.2,10.627,2.439C499.958,571.263,485.372,571.7,485.372,571.7Z" transform="translate(-390.473 -469.88)" fill="#ffb9b9"/>
    <path id="Path_13142" data-name="Path 13142" d="M441.589,518.864a10.693,10.693,0,0,1-1.5.1c-1.3,0-3.988.9-4.753,7.886a80.549,80.549,0,0,1-2.477,13.978s5.463-1.893,8.6-1.383,7.94-1.6,7.94-1.6-.22-7.574-.72-9.1C448.181,527.29,446.575,518.118,441.589,518.864Z" transform="translate(-370.082 -431.622)" opacity="0.1"/>
    <path id="Path_13143" data-name="Path 13143" d="M441.589,516.435a10.414,10.414,0,0,1-1.5.1c-1.3,0-3.988.9-4.753,7.888a81.9,81.9,0,0,1-2.477,13.985s5.463-1.895,8.6-1.385,7.94-1.609,7.94-1.609-.22-7.576-.72-9.105C448.181,524.861,446.575,515.691,441.589,516.435Z" transform="translate(-370.082 -429.631)" fill="#787c9c"/>
    <path id="Path_13144" data-name="Path 13144" d="M497.7,580.59s-2.567,1.693-1.475,2.021S498.142,582.447,497.7,580.59Z" transform="translate(-421.816 -482.265)" opacity="0.1"/>
    <path id="Path_13145" data-name="Path 13145" d="M481.134,597.27s-6.992,2.185-4.528,3.114S481.134,597.27,481.134,597.27Z" transform="translate(-405.517 -495.941)" opacity="0.1"/>
    <path id="Path_13146" data-name="Path 13146" d="M532.809,416.237l3.1-.292a2.742,2.742,0,0,0,2.077-.825c.447-.627.285-1.486.558-2.2a5.711,5.711,0,0,1,.883-1.293,6.109,6.109,0,0,0-1.2-8.271c-.6-.445-1.29-.771-1.886-1.225-1.481-1.129-2.271-2.923-3.444-4.372s-3.177-2.608-4.847-1.783c-1.2.6-1.776,2.007-2.86,2.8-1.518,1.111-3.6.769-5.479.576a26.079,26.079,0,0,0-5.831.056,1.457,1.457,0,0,0-.823.283,1.286,1.286,0,0,0-.337.913c-.085,1.61.737,3.181.573,4.784a5.506,5.506,0,0,1-2.777,3.909c-1.214.748-2.835,1.538-2.765,2.963a3.671,3.671,0,0,0,.5,1.4,15.08,15.08,0,0,1,.049,13.041c-.279.575-.672,1.191-1.3,1.309a3.81,3.81,0,0,0,4.352-1.9c.681-1.376.553-3.228,1.765-4.17.841-.652,2.028-.6,3-1.039,1.326-.6,2.048-2.019,2.673-3.334l1.713-3.613a5.9,5.9,0,0,1,2.329-2.974c1.228-.594,2.749-.025,4.055.067,2.133.148,4.368.285,3.714,3.12C531.988,413.456,532.627,415.2,532.809,416.237Z" transform="translate(-430.86 -330.682)" opacity="0.1"/>
    <path id="Path_13147" data-name="Path 13147" d="M539.433,410.419a5.521,5.521,0,0,0-.883,1.293,3.529,3.529,0,0,0-.18.8,2.982,2.982,0,0,1-.384,1.394,2.736,2.736,0,0,1-2.077.825l-3.1.29c-.18-1.038-.821-2.779-2.221-2.064.654-2.835-1.581-2.972-3.714-3.122-1.3-.088-2.826-.659-4.056-.065a5.938,5.938,0,0,0-2.327,2.972q-.857,1.8-1.715,3.613c-.611,1.317-1.331,2.732-2.666,3.334-.969.443-2.161.387-3,1.041-1.212.942-1.081,2.792-1.765,4.17a3.806,3.806,0,0,1-4.35,1.9c.627-.119,1.019-.735,1.3-1.31a15.067,15.067,0,0,0-.047-13.041,3.632,3.632,0,0,1-.5-1.4c-.067-1.425,1.551-2.214,2.767-2.963a5.5,5.5,0,0,0,2.778-3.907c.164-1.6-.657-3.174-.573-4.784a1.294,1.294,0,0,1,.337-.913,1.441,1.441,0,0,1,.823-.283,26.188,26.188,0,0,1,5.831-.058c1.875.193,3.963.54,5.479-.576,1.081-.791,1.657-2.2,2.86-2.8,1.67-.825,3.676.333,4.847,1.781s1.962,3.242,3.444,4.373c.6.454,1.282.78,1.886,1.225a5.753,5.753,0,0,1,2.116,3.278h0A5.945,5.945,0,0,1,539.433,410.419Z" transform="translate(-430.868 -329.688)" fill="#383838"/>
    <g id="Group_10806" data-name="Group 10806" transform="translate(76.13 68.976)" opacity="0.1">
      <path id="Path_13148" data-name="Path 13148" d="M539.534,421.708c.139-1.362-.432-2.7-.555-4.058a1.452,1.452,0,0,0-.238.8c-.074,1.4.54,2.772.591,4.163A4.044,4.044,0,0,0,539.534,421.708Z" transform="translate(-533.018 -417.65)"/>
      <path id="Path_13149" data-name="Path 13149" d="M513.107,491.317a15.065,15.065,0,0,0-1.221-9.483,6.061,6.061,0,0,1-.411-.944,1.763,1.763,0,0,0-.3,1.068,3.66,3.66,0,0,0,.5,1.4A14.992,14.992,0,0,1,513.107,491.317Z" transform="translate(-510.417 -469.499)"/>
      <path id="Path_13150" data-name="Path 13150" d="M539.643,466.621a5.608,5.608,0,0,0-.881,1.293c-.274.711-.119,1.576-.56,2.2a2.752,2.752,0,0,1-2.075.825l-3.1.292c-.18-1.039-.821-2.781-2.219-2.066.652-2.835-1.581-2.972-3.716-3.12-1.3-.092-2.824-.661-4.055-.067a5.933,5.933,0,0,0-2.327,2.974q-.856,1.8-1.715,3.613c-.623,1.315-1.347,2.731-2.673,3.334-.967.441-2.161.387-3,1.039-1.21.942-1.081,2.794-1.765,4.17a3.816,3.816,0,0,1-3.231,2.034c-.014.029-.025.059-.04.088-.279.575-.672,1.191-1.3,1.31a3.81,3.81,0,0,0,4.352-1.9c.681-1.376.553-3.228,1.765-4.17.841-.652,2.028-.6,3-1.039,1.335-.6,2.055-2.019,2.673-3.334l1.713-3.613a5.9,5.9,0,0,1,2.329-2.974c1.228-.594,2.749-.025,4.055.067,2.133.15,4.368.285,3.714,3.12,1.4-.721,2.039,1.027,2.221,2.066l3.1-.292a2.736,2.736,0,0,0,2.077-.825c.447-.629.285-1.486.558-2.2a5.711,5.711,0,0,1,.883-1.293,5.669,5.669,0,0,0,1.1-3.33A5.348,5.348,0,0,1,539.643,466.621Z" transform="translate(-506.99 -456.324)"/>
    </g>
    <path id="Path_13151" data-name="Path 13151" d="M601.424,446.022a5.521,5.521,0,0,0-.883,1.293,3.529,3.529,0,0,0-.18.8,7.133,7.133,0,0,0-.7-.54,16.272,16.272,0,0,0-3.4-1.621l-5.207-2.023-3.693-1.43a10.117,10.117,0,0,0-1.416-.472L585.8,442h0a5.8,5.8,0,0,0-2.522.076c-.211.052-.423.117-.636.15a1.419,1.419,0,0,0-.014-.247c0-.133-.013-.267-.014-.4a3.24,3.24,0,0,0,1.817-.162,5.515,5.515,0,0,0,1.221-.9,10.369,10.369,0,0,1,3.179-1.9,15.151,15.151,0,0,1,5.62-.679,12.751,12.751,0,0,1,2.842.328,14.752,14.752,0,0,1,3.242,1.441,5.371,5.371,0,0,1,1.8,1.342h0A5.9,5.9,0,0,1,601.424,446.022Z" transform="translate(-492.859 -365.291)" opacity="0.1"/>
    <path id="Path_13152" data-name="Path 13152" d="M603.427,442.606c-.4.18.418.344.1.63-.456.407.2.872-.36,1.093-.133.052.209,1.16.072,1.165.294.886-2.185.9-2.185,1.893v.2a6.565,6.565,0,0,0-1.347-1.2,16.346,16.346,0,0,0-3.4-1.621l-5.213-2.017q-1.846-.72-3.694-1.432a10.261,10.261,0,0,0-1.416-.472l-.15-.032h0a5.8,5.8,0,0,0-2.522.074c-.209.052-.422.117-.636.151a1.615,1.615,0,0,0-.013-.247c0-.133-.013-.267-.016-.4a3.247,3.247,0,0,0,1.819-.16,5.616,5.616,0,0,0,1.221-.9,10.285,10.285,0,0,1,3.179-1.9,15.114,15.114,0,0,1,5.62-.681,12.737,12.737,0,0,1,2.841.328,14.678,14.678,0,0,1,3.242,1.441,4.717,4.717,0,0,1,2.007,1.637,4.777,4.777,0,0,1,.339.852C603.078,441.529,603.247,442.066,603.427,442.606Z" transform="translate(-492.892 -364.324)" fill="#009191"/>
    <path id="Path_13153" data-name="Path 13153" d="M647.476,465.945c-1.621-4.035-9.575-3.939-9.656-3.937v-.218c.333,0,8.179-.1,9.864,4.074Z" transform="translate(-538.124 -384.863)" opacity="0.1"/>
    <path id="Path_13154" data-name="Path 13154" d="M662.361,459.512c-1.054-2.812-7.052-3.062-7.111-3.062v-.22c.254.009,6.2.256,7.309,3.2Z" transform="translate(-552.415 -380.305)" opacity="0.1"/>
    <path id="Path_13155" data-name="Path 13155" d="M305.915,813.848s-7.165-.432-6.321,4.59a1.225,1.225,0,0,0,.636,1.29s.013-.373.735-.247a3.258,3.258,0,0,0,.778.038,1.608,1.608,0,0,0,.953-.393h0s2.014-.832,2.8-4.125c0,0,.58-.721.557-.9l-1.216.515a2.173,2.173,0,0,1,.088,1.6s-.04-1.565-.272-1.529c-.047,0-.629.3-.629.3a3.544,3.544,0,0,1,.18,2.624s.2-1.873-.4-2.522l-.852.5a3.761,3.761,0,0,1,.268,2.85,5.349,5.349,0,0,0-.447-2.729l-.771.6a3.678,3.678,0,0,1,.3,2.608s-.063-2.286-.472-2.459a4.675,4.675,0,0,0-.778.839s.54,1.124.2,1.717c0,0-.2-1.524-.371-1.531a5.064,5.064,0,0,0-.742,1.7,3.684,3.684,0,0,1,.58-1.8,2.028,2.028,0,0,0-1.03.54s.1-.721,1.2-.776a4.659,4.659,0,0,1,.7-.812,4.432,4.432,0,0,0-1.744.2,1.947,1.947,0,0,1,1.942-.36l.762-.621a6.272,6.272,0,0,0-2.034.02,2.476,2.476,0,0,1,2.239-.16l.829-.5a7.566,7.566,0,0,0-1.944-.167,2.984,2.984,0,0,1,2.187.034l.593-.265s-.892-.18-1.153-.2-.276-.1-.276-.1a3.1,3.1,0,0,1,1.677.18A7.528,7.528,0,0,0,305.915,813.848Z" transform="translate(-260.765 -673.5)" fill="#009191"/>
    <ellipse id="Ellipse_640" data-name="Ellipse 640" cx="5.07" cy="0.857" rx="5.07" ry="0.857" transform="translate(35.145 145.807)" fill="#6c63ff" opacity="0.1"/>
    <path id="Path_13156" data-name="Path 13156" d="M259.129,754.041s-4.878-.294-4.3,3.123a.836.836,0,0,0,.434.879s.009-.254.5-.168a2.162,2.162,0,0,0,.53.025,1.1,1.1,0,0,0,.648-.267h0a3.873,3.873,0,0,0,1.9-2.808s.394-.488.378-.614l-.823.36a1.469,1.469,0,0,1,.061,1.081s-.027-1.066-.18-1.041c-.032,0-.429.205-.429.205a2.433,2.433,0,0,1,.119,1.787s.139-1.273-.268-1.711l-.58.339a2.551,2.551,0,0,1,.18,1.94,3.625,3.625,0,0,0-.3-1.857l-.524.409a2.5,2.5,0,0,1,.207,1.776s-.043-1.556-.321-1.675a3.188,3.188,0,0,0-.53.573s.36.764.137,1.167c0,0-.137-1.038-.252-1.041a3.428,3.428,0,0,0-.5,1.156,2.5,2.5,0,0,1,.394-1.223,1.369,1.369,0,0,0-.7.36s.07-.486.814-.53a3.227,3.227,0,0,1,.479-.553,3.022,3.022,0,0,0-1.187.137,1.336,1.336,0,0,1,1.322-.25l.519-.422a4.3,4.3,0,0,0-1.385.013,1.685,1.685,0,0,1,1.524-.11l.566-.337a5.121,5.121,0,0,0-1.324-.113,2.027,2.027,0,0,1,1.488.023l.4-.18s-.607-.119-.784-.139-.18-.067-.18-.067a2.107,2.107,0,0,1,1.14.126A5.088,5.088,0,0,0,259.129,754.041Z" transform="translate(-224.078 -624.469)" fill="#009191"/>
    <ellipse id="Ellipse_641" data-name="Ellipse 641" cx="3.451" cy="0.584" rx="3.451" ry="0.584" transform="translate(28.241 133.289)" fill="#6c63ff" opacity="0.1"/>
    <ellipse id="Ellipse_642" data-name="Ellipse 642" cx="10.139" cy="1.392" rx="10.139" ry="1.392" transform="translate(137.345 138.116)" fill="#6c63ff" opacity="0.1"/>
    <path id="Path_13157" data-name="Path 13157" d="M889.769,730s1.36,1.776-.627,4.458-3.622,4.948-2.961,6.62c0,0,3-4.982,5.434-5.043S892.451,732.986,889.769,730Z" transform="translate(-741.628 -604.763)" fill="#009191"/>
    <path id="Path_13158" data-name="Path 13158" d="M890.12,730a2.148,2.148,0,0,1,.277.557c2.379,2.8,3.648,5.4,1.36,5.47-2.129.059-4.683,3.869-5.3,4.831.02.074.045.148.072.22,0,0,3-4.982,5.434-5.043S892.8,732.986,890.12,730Z" transform="translate(-741.979 -604.763)" opacity="0.1"/>
    <path id="Path_13159" data-name="Path 13159" d="M919.373,740.7c0,.625-.07,1.133-.157,1.133s-.157-.508-.157-1.133.088-.331.18-.331S919.373,740.073,919.373,740.7Z" transform="translate(-768.707 -613.206)" fill="#ffd037"/>
    <path id="Path_13160" data-name="Path 13160" d="M920.737,744.716c-.54.3-1.029.481-1.07.405s.369-.38.919-.679.333-.083.375,0S921.284,744.417,920.737,744.716Z" transform="translate(-769.202 -616.478)" fill="#ffd037"/>
    <path id="Path_13161" data-name="Path 13161" d="M853.114,730s-1.36,1.776.627,4.458,3.622,4.948,2.959,6.62c0,0-3-4.982-5.432-5.043S850.422,732.986,853.114,730Z" transform="translate(-712.138 -604.763)" fill="#009191"/>
    <path id="Path_13162" data-name="Path 13162" d="M853.085,730a2.18,2.18,0,0,0-.288.54c-2.378,2.8-3.646,5.4-1.358,5.47,2.129.059,4.683,3.869,5.3,4.831a1.968,1.968,0,0,1-.074.22s-3-4.982-5.432-5.043S850.392,732.986,853.085,730Z" transform="translate(-712.109 -604.763)" opacity="0.1"/>
    <path id="Path_13163" data-name="Path 13163" d="M852.92,740.7c0,.625.07,1.133.159,1.133s.157-.508.157-1.133-.088-.331-.18-.331S852.92,740.073,852.92,740.7Z" transform="translate(-714.48 -613.206)" fill="#ffd037"/>
    <path id="Path_13164" data-name="Path 13164" d="M846.594,744.716c.54.3,1.029.481,1.07.405s-.371-.38-.919-.679-.333-.083-.375,0S846.046,744.417,846.594,744.716Z" transform="translate(-709.02 -616.478)" fill="#ffd037"/>
    <path id="Path_13165" data-name="Path 13165" d="M855.33,780.813s3.8-.117,4.943-.933,5.843-1.789,6.124-.481,5.708,6.5,1.421,6.537-9.963-.668-11.106-1.369S855.33,780.813,855.33,780.813Z" transform="translate(-716.456 -644.74)" fill="#a8a8a8"/>
    <path id="Path_13166" data-name="Path 13166" d="M867.9,794.8c-4.289.036-9.964-.666-11.106-1.364-.87-.53-1.218-2.432-1.333-3.309h-.126s.24,3.062,1.383,3.759,6.818,1.4,11.106,1.364c1.237-.011,1.664-.45,1.641-1.1C869.29,794.55,868.816,794.79,867.9,794.8Z" transform="translate(-716.456 -654.062)" opacity="0.2"/>
  </g>
</svg>
