<svg xmlns="http://www.w3.org/2000/svg" width="104.999" height="99.313" viewBox="0 0 104.999 99.313">
  <g id="Group_10553" data-name="Group 10553" transform="translate(-8.596 0)">
    <path id="Path_12830" data-name="Path 12830" d="M467.81,332.356h5.055c.864-2.911,2.112-6,3.252-8.808,2.186-5.391,4.979-11.079,10.191-13.712a15.312,15.312,0,0,1,7.131-1.539,30.2,30.2,0,0,1,10.166,2.169c1.318.5,2.624,1.044,3.925,1.6,4.9,2.106,9.75,4.4,15.021,5.02,6.67.784,14.512-2.2,16.334-8.628,1.39-4.921-1.114-10.03-3.74-14.426s-5.562-9.1-5.082-14.186c0-.017,0-.036.007-.053a5.051,5.051,0,0,1,2.8-3.983h-6.637c-.088,4.747,2.659,8.937,5.13,13.074,2.626,4.393,5.13,9.5,3.74,14.426-1.822,6.426-16.907-1.107-23.577-1.892-2.886-1.084-8.421-3.2-8.421-3.2-2.817-.883-.2.625-2.943-.564-1.707-.741,1.391,8.312-.339,7.658-.717-.272-1.449-.526-2.19-.762l0,0c-4.974-1.575-10.413-2.188-15.009.089l-.095.046c-5.213,2.631-8.005,8.319-10.192,13.71A75.968,75.968,0,0,0,467.81,332.356Z" transform="translate(-425.686 -256.099)" fill="#1bada2"/>
    <path id="Path_12831" data-name="Path 12831" d="M304.82,398.661H271.944a1.016,1.016,0,1,0,0,2.031H304.82a1.016,1.016,0,1,0,0-2.031Z" transform="translate(-262.332 -357.841)" fill="#1bada2"/>
    <path id="Path_12832" data-name="Path 12832" d="M282.27,365.523H272.077a1.016,1.016,0,1,0,0,2.031H282.27a1.016,1.016,0,0,0,0-2.031Z" transform="translate(-262.442 -330.408)" fill="#1bada2"/>
    <path id="Path_12833" data-name="Path 12833" d="M297.014,510.213l-2.084-.018-.922-8.224,3.075.026Z" transform="translate(-238.022 -415.536)" fill="#ffb6b6"/>
    <path id="Path_12834" data-name="Path 12834" d="M526.165,709.019a.933.933,0,0,0,.924.94l4.143.035.725-1.47.266,1.478,1.563.014-.395-5.27-.544-.036-2.218-.153-.716-.048L529.9,706l-3.328,2.257a.932.932,0,0,0-.408.763Z" transform="translate(-473.842 -611.028)" fill="#2f2e41"/>
    <path id="Path_12835" data-name="Path 12835" d="M420.014,510.213l-2.084-.018-.922-8.224,3.075.026Z" transform="translate(-339.947 -415.536)" fill="#ffb6b6"/>
    <path id="Path_12836" data-name="Path 12836" d="M649.165,709.019a.933.933,0,0,0,.924.94l4.143.035.725-1.47.266,1.478,1.563.014-.395-5.27-.544-.036-2.218-.153-.716-.048L652.9,706l-3.328,2.257a.931.931,0,0,0-.408.763Z" transform="translate(-575.77 -611.028)" fill="#2f2e41"/>
    <path id="Path_12837" data-name="Path 12837" d="M496.985,277.017l9.377-7.217a1.91,1.91,0,0,0,.359-2.655h0a1.91,1.91,0,0,0-2.753-.32l-9.511,7.8-5.979,4.493a1.667,1.667,0,1,0,.728,2.011Z" transform="translate(-440.555 -248.328)" fill="#ffb6b6"/>
    <path id="Path_12838" data-name="Path 12838" d="M592.521,335.453l-.413,9.232,14.039,1.7c-1.1-3.709-2.916-8.862-2.086-11.443Z" transform="translate(-528.5 -305.085)" fill="#a0616a"/>
    <path id="Path_12839" data-name="Path 12839" d="M574.569,239.451h-4.325l-1.857,3.178-.885-.049a5.436,5.436,0,0,0-3.364,3.183h0l-3.345,2.809,2.578,3.094c1.781-.292,2.423-1.674,1.857-4.212,0,0-1.95,3.4.859,5.07,0,0-.5,3.15,0,3.116s1.655-.675.5-.034-.956.669-.919.876c.623,3.433,1.139,6.011,1.139,6.011l12.2,1.2s-.7-7.38-.665-7.8-.218.606.038-.42.641-.641.256-1.026,2.644-.716,1.462-2.564l3.953-1.031-2.21-5.251c0-1.773-2.848-3.21-4.621-3.21H577Z" transform="translate(-502.568 -226.063)" fill="#e6e6e6"/>
    <path id="Path_12840" data-name="Path 12840" d="M549.765,363.394c-4.774,1.642-9.072,1.282-12.706-1.871,0,0-1.023,3.781-2.058,3.265s-.524.927-.808,1.456c-.3.562.049,1.509-.949,1.831s-.623,1.269-.945,1.965a91.38,91.38,0,0,0-6.583,20.527c-1.791,8.993,2.578,24.061,2.578,24.061l4.125-.344,1.031-19.592,4.716-8.281s2.317-1.349.863-2.033-.48-1.532.58-1.366,2.263-5.333,2.263-5.333c-1.511,3.8,7.906,37.294,7.906,37.294l3.953-.344L551.5,367.882Z" transform="translate(-473.151 -326.989)" fill="#2f2e41"/>
    <path id="Path_12841" data-name="Path 12841" d="M597.328,166.961c.469,1.168,1.791,3.463,1.97,4.716l-.081-.079a5.654,5.654,0,0,1-.523.747,3.633,3.633,0,0,0-1.233-.848,4.348,4.348,0,0,1,.433,1.668c-.861.75-3.06.3-4.158.7a22.816,22.816,0,0,1-5.5,1.059,2.525,2.525,0,0,1-1.855-.28c-.461-.389-.186-1.109-.434-1.653-1.766-3.878-.136-5.277,1.249-7.036.3-.387.3-.964.674-1.334a3.712,3.712,0,0,1,2.031-.8,1.1,1.1,0,0,1-.968-.479.994.994,0,0,1,.013-1.038,1.791,1.791,0,0,1,1.322-.745,5.02,5.02,0,0,1,1.53.132,2.738,2.738,0,0,1,.927.3.758.758,0,0,1,.395.768.982.982,0,0,1-.581.626,2.571,2.571,0,0,1-.657.18,5.151,5.151,0,0,1,3.021.529A5.486,5.486,0,0,1,597.328,166.961Z" transform="translate(-522.756 -161.551)" fill="#2f2e41"/>
    <circle id="Ellipse_481" data-name="Ellipse 481" cx="4.167" cy="4.167" r="4.167" transform="translate(64.099 3.622)" fill="#ffb6b6"/>
    <path id="Path_12842" data-name="Path 12842" d="M594.343,175.588a1.882,1.882,0,0,1-1.57,1.112c-.2.047-.4.091-.608.129-.075-.094-.156-.187-.239-.274a3.632,3.632,0,0,0-1.233-.848,4.281,4.281,0,0,1,.4,1.308q-.579.084-1.164.137a1.316,1.316,0,0,1-1.545-.948,3.11,3.11,0,0,1-1.349,1.358,1.633,1.633,0,0,1-1.857-.556,3.931,3.931,0,0,1-.673-1.527,2.281,2.281,0,0,1,.067-1.8,1.2,1.2,0,0,1,1.106-.309,13.166,13.166,0,0,1,2.658.482l.073.165a1.941,1.941,0,0,1,.772-2.063,2.519,2.519,0,0,1,1.361-.129,6.2,6.2,0,0,1,1.777.344,3.413,3.413,0,0,1,1.61,1.286A2.675,2.675,0,0,1,594.343,175.588Z" transform="translate(-522.065 -170.034)" fill="#2f2e41"/>
    <path id="Path_12843" data-name="Path 12843" d="M601.155,165.713c.041-.012-.065,0-.029,0a.338.338,0,0,1-.055-.008s-.045-.014-.017,0a.334.334,0,0,1-.159-.1,1.386,1.386,0,0,1-.227-.4,1.451,1.451,0,0,0-.312-.521.357.357,0,0,0-.57.087.832.832,0,0,0,.051.577,1.791,1.791,0,0,0,.263.51,1.638,1.638,0,0,0,.753.552,1.714,1.714,0,0,0,1.077.031.26.26,0,0,0,.01-.476l-.589-.241a.258.258,0,1,0-.208.472l.589.241.01-.476a1.026,1.026,0,0,1-.225.039.864.864,0,0,1-.244-.01,1.07,1.07,0,0,1-.226-.055,1.474,1.474,0,0,1-.138-.058l-.048-.025s-.067-.039-.037-.021a1.452,1.452,0,0,1-.213-.166.579.579,0,0,1-.064-.071,1.357,1.357,0,0,1-.093-.129,1.554,1.554,0,0,1-.175-.439.556.556,0,0,0-.014-.075c-.022-.059,0,.034-.021.06l-.109.08a.142.142,0,0,1-.121-.019q-.019-.027.008.009a.839.839,0,0,1,.059.089,2.447,2.447,0,0,1,.105.223,2.452,2.452,0,0,0,.244.461.83.83,0,0,0,.909.348.26.26,0,0,0,.147-.334A.263.263,0,0,0,601.155,165.713Z" transform="translate(-534.812 -164.052)" fill="#2f2e41"/>
    <circle id="Ellipse_482" data-name="Ellipse 482" cx="12.32" cy="12.32" r="12.32" transform="translate(47.544 22.34)" fill="#fff"/>
    <path id="Path_12844" data-name="Path 12844" d="M509.916,315.231a12.492,12.492,0,1,1,12.492-12.492,12.492,12.492,0,0,1-12.492,12.492Zm0-24.64a12.148,12.148,0,1,0,12.148,12.148A12.148,12.148,0,0,0,509.916,290.591Z" transform="translate(-450.052 -268.08)" fill="#3f3d56"/>
    <path id="Path_12845" data-name="Path 12845" d="M537.531,338.446a1.37,1.37,0,0,1-1.1-.548l-3.361-4.482a1.37,1.37,0,1,1,2.193-1.644l2.2,2.932,5.648-8.471a1.37,1.37,0,0,1,2.281,1.52l-6.722,10.083a1.371,1.371,0,0,1-1.1.61Z" transform="translate(-479.348 -297.37)" fill="#1bada2"/>
    <path id="Path_12846" data-name="Path 12846" d="M491.148,736.274a.2.2,0,0,0,.2.2h43.531a.2.2,0,1,0,0-.409H491.352a.2.2,0,0,0-.2.2Z" transform="translate(-444.895 -637.165)" fill="#ccc"/>
    <path id="Path_12847" data-name="Path 12847" d="M678.158,305.723,674.13,294.6a1.91,1.91,0,0,0-2.421-1.149h0a1.91,1.91,0,0,0-1.141,2.526l4.538,11.429,2.465,7.061a1.667,1.667,0,1,0,2.137-.083Z" transform="translate(-593.394 -270.642)" fill="#ffb6b6"/>
    <path id="Path_12848" data-name="Path 12848" d="M659.529,271.813l3.265,5.843s-7.525,2.577-7.544,2.148.374-6.382.374-6.382Z" transform="translate(-580.812 -252.829)" fill="#e6e6e6"/>
  </g>
</svg>
