<svg xmlns="http://www.w3.org/2000/svg" width="226.793" height="223.686" viewBox="0 0 226.793 223.686">
  <g id="Enter_OTP-bro" data-name="Enter OTP-bro" transform="translate(-12.784 -16.36)">
    <g id="freepik--background-simple--inject-24" transform="translate(13.384 19.15)">
      <path id="Path_1229" data-name="Path 1229" d="M234.955,144.419c-6.454,19.61-20.362,41.11-40.834,48.108-30.926,10.58-33.7,36-89.816,35.83a113.079,113.079,0,0,1-24.371-2.623,94.225,94.225,0,0,1-11.54-3.357C35.142,210.353,16.938,181.76,14.33,151.205c-3.421-40.19,23.86-60.462,41.624-72.418S94,22.459,149.187,22.2a109.178,109.178,0,0,1,25.046,2.681c18.735,4.316,38.016,14.709,49.6,30.55.866,1.189,1.7,2.4,2.5,3.654C241.974,83.458,243.759,117.677,234.955,144.419Z" transform="translate(-14.037 -22.191)" fill="#f51d46"/>
      <path id="Path_1230" data-name="Path 1230" d="M234.955,144.419c-6.454,19.61-20.362,41.11-40.834,48.108-30.926,10.58-33.7,36-89.816,35.83a113.079,113.079,0,0,1-24.371-2.623,94.225,94.225,0,0,1-11.54-3.357C35.142,210.353,16.938,181.76,14.33,151.205c-3.421-40.19,23.86-60.462,41.624-72.418S94,22.459,149.187,22.2a109.178,109.178,0,0,1,25.046,2.681c18.735,4.316,38.016,14.709,49.6,30.55.866,1.189,1.7,2.4,2.5,3.654C241.974,83.458,243.759,117.677,234.955,144.419Z" transform="translate(-14.037 -22.191)" fill="#fff" opacity="0.63"/>
    </g>
    <g id="freepik--Window--inject-24" transform="translate(16.476 16.36)">
      <path id="Path_1231" data-name="Path 1231" d="M83.364,33.337H20.927a.239.239,0,0,1-.22-.139.244.244,0,0,1,.038-.258L24.234,28.9a.244.244,0,0,1,.34-.024.234.234,0,0,1,.024.335l-3.149,3.661H83.125V29.039a.239.239,0,0,1,.479,0v4.053a.239.239,0,0,1-.239.244Z" transform="translate(-20.597 -22.847)" fill="#263238"/>
      <path id="Path_1232" data-name="Path 1232" d="M83.364,45.556H20.927a.239.239,0,0,1-.22-.139.234.234,0,0,1,.038-.254l3.489-4.053a.239.239,0,1,1,.364.311l-3.149,3.656H83.124V41.249a.239.239,0,1,1,.479,0v4.063a.239.239,0,0,1-.239.244Z" transform="translate(-20.597 -29.214)" fill="#263238"/>
      <path id="Path_1233" data-name="Path 1233" d="M83.364,57.8H20.927a.239.239,0,0,1-.182-.4l3.489-4.053a.244.244,0,0,1,.34-.024.234.234,0,0,1,.024.335l-3.149,3.661H83.125V53.489a.239.239,0,0,1,.479,0v4.053a.239.239,0,0,1-.239.254Z" transform="translate(-20.597 -35.596)" fill="#263238"/>
      <path id="Path_1234" data-name="Path 1234" d="M83.364,70.046H20.927a.239.239,0,0,1-.22-.139.244.244,0,0,1,.038-.258L24.234,65.6a.239.239,0,0,1,.364.311l-3.149,3.656H83.125V65.739a.239.239,0,0,1,.479,0v4.053a.239.239,0,0,1-.239.254Z" transform="translate(-20.597 -41.984)" fill="#263238"/>
      <path id="Path_1235" data-name="Path 1235" d="M83.364,82.292H20.927a.244.244,0,0,1-.22-.144.234.234,0,0,1,.038-.254l3.489-4.053a.244.244,0,0,1,.34,0,.234.234,0,0,1,.024.335l-3.149,3.661H83.124V78.009a.239.239,0,1,1,.479,0v4.053A.239.239,0,0,1,83.364,82.292Z" transform="translate(-20.597 -48.382)" fill="#263238"/>
      <path id="Path_1236" data-name="Path 1236" d="M83.364,94.5H20.927a.239.239,0,0,1-.22-.139.244.244,0,0,1,.038-.258l3.489-4.053a.241.241,0,1,1,.364.316l-3.149,3.656H83.125V90.189a.239.239,0,0,1,.479,0v4.092A.239.239,0,0,1,83.364,94.5Z" transform="translate(-20.597 -54.733)" fill="#263238"/>
      <path id="Path_1237" data-name="Path 1237" d="M83.364,106.726H20.927a.239.239,0,0,1-.22-.139.234.234,0,0,1,.038-.254l3.489-4.053a.249.249,0,0,1,.34-.029.244.244,0,0,1,.024.34l-3.149,3.656H83.124v-3.828a.239.239,0,1,1,.479,0v4.053a.239.239,0,0,1-.239.254Z" transform="translate(-20.597 -61.111)" fill="#263238"/>
      <path id="Path_1238" data-name="Path 1238" d="M83.364,118.966H20.927a.239.239,0,0,1-.182-.4l3.489-4.053a.244.244,0,0,1,.34-.024.234.234,0,0,1,.024.335l-3.149,3.661H83.125v-3.828a.239.239,0,1,1,.479,0v4.053a.239.239,0,0,1-.239.254Z" transform="translate(-20.597 -67.493)" fill="#263238"/>
      <path id="Path_1239" data-name="Path 1239" d="M83.364,131.2H20.927a.239.239,0,0,1-.22-.139.234.234,0,0,1,.038-.254l3.489-4.053a.239.239,0,0,1,.364.311l-3.149,3.656H83.124v-3.828a.239.239,0,0,1,.479,0v4.053a.239.239,0,0,1-.239.254Z" transform="translate(-20.597 -73.871)" fill="#263238"/>
      <path id="Path_1240" data-name="Path 1240" d="M83.364,143.436H20.927a.244.244,0,0,1-.22-.144.235.235,0,0,1,.038-.254l3.489-4.053a.244.244,0,0,1,.34-.024.234.234,0,0,1,.024.335l-3.149,3.661H83.124v-3.828a.239.239,0,0,1,.479,0v4.053a.239.239,0,0,1-.239.254Z" transform="translate(-20.597 -80.253)" fill="#263238"/>
      <path id="Path_1241" data-name="Path 1241" d="M83.364,155.666H20.927a.239.239,0,0,1-.22-.139.244.244,0,0,1,.038-.258l3.489-4.053a.241.241,0,0,1,.364.316l-3.149,3.656H83.125v-3.828a.239.239,0,1,1,.479,0v4.053a.239.239,0,0,1-.239.254Z" transform="translate(-20.597 -86.63)" fill="#263238"/>
      <path id="Path_1242" data-name="Path 1242" d="M83.364,167.9H20.927a.239.239,0,0,1-.22-.139.235.235,0,0,1,.038-.254l3.489-4.053a.244.244,0,0,1,.34-.024.234.234,0,0,1,.024.335l-3.149,3.656H83.124v-3.828a.239.239,0,0,1,.479,0v4.053a.239.239,0,0,1-.239.254Z" transform="translate(-20.597 -93.008)" fill="#263238"/>
      <path id="Path_1243" data-name="Path 1243" d="M83.364,180.162H20.927a.239.239,0,0,1-.182-.4l3.489-4.053a.244.244,0,0,1,.34,0,.235.235,0,0,1,.024.335l-3.149,3.661H83.125v-3.828a.239.239,0,1,1,.479,0v4.053A.239.239,0,0,1,83.364,180.162Z" transform="translate(-20.597 -99.416)" fill="#263238"/>
      <path id="Path_1244" data-name="Path 1244" d="M83.364,192.351H20.927a.239.239,0,0,1-.22-.139.235.235,0,0,1,.038-.254l3.489-4.068a.239.239,0,1,1,.364.311l-3.149,3.656H83.124v-3.828a.239.239,0,0,1,.479,0v4.053a.239.239,0,0,1-.239.268Z" transform="translate(-20.597 -105.752)" fill="#263238"/>
      <path id="Path_1245" data-name="Path 1245" d="M83.364,204.632H20.927a.239.239,0,0,1-.182-.4l3.489-4.053a.244.244,0,0,1,.34,0,.234.234,0,0,1,.024.335l-3.149,3.661H83.125v-3.828a.239.239,0,0,1,.479,0V204.4A.239.239,0,0,1,83.364,204.632Z" transform="translate(-20.597 -112.176)" fill="#263238"/>
      <path id="Path_1246" data-name="Path 1246" d="M83.364,216.836H20.927a.239.239,0,0,1-.22-.139.244.244,0,0,1,.038-.258l3.489-4.053a.241.241,0,1,1,.364.316l-3.149,3.656H83.125v-3.828a.239.239,0,0,1,.479,0v4.053a.239.239,0,0,1-.239.254Z" transform="translate(-20.597 -118.528)" fill="#263238"/>
      <path id="Path_1247" data-name="Path 1247" d="M83.362,229.046H20.925a.234.234,0,0,1-.182-.392l3.489-4.053a.244.244,0,0,1,.34,0,.235.235,0,0,1,.024.335l-3.149,3.632H83.122v-3.828a.239.239,0,1,1,.479,0v4.049a.239.239,0,0,1-.239.258Z" transform="translate(-20.595 -124.894)" fill="#263238"/>
      <path id="Path_1248" data-name="Path 1248" d="M86.243,22.854h-65.5a.239.239,0,0,1-.239-.239V16.6a.239.239,0,0,1,.239-.239h65.5a.239.239,0,0,1,.239.239v6.015A.239.239,0,0,1,86.243,22.854Zm-65.27-.479H86V16.839H20.974Z" transform="translate(-20.5 -16.36)" fill="#263238"/>
      <path id="Path_1249" data-name="Path 1249" d="M154.529,89.467a.239.239,0,0,1-.239-.239V29.739a.239.239,0,0,1,.479,0V89.223a.239.239,0,0,1-.239.244Z" transform="translate(-90.265 -23.212)" fill="#263238"/>
      <path id="Path_1250" data-name="Path 1250" d="M154.6,158.911h-2.134a.239.239,0,0,1-.239-.239v-4.192a.239.239,0,0,1,.239-.239H154.6a.239.239,0,0,1,.239.239v4.192A.239.239,0,0,1,154.6,158.911Zm-1.914-.479h1.656v-3.714h-1.656Z" transform="translate(-89.191 -88.257)" fill="#263238"/>
    </g>
    <g id="freepik--Plant--inject-24" transform="translate(12.784 112.892)">
      <path id="Path_1251" data-name="Path 1251" d="M64.162,278.81h0a.037.037,0,1,0-.057-.038,59.914,59.914,0,0,0-3.163,9.916,93.028,93.028,0,0,0-1.771,10.279l-.244,2.6c-.038.435-.086.866-.12,1.3l-.067,1.3c-.038.871-.091,1.737-.12,2.608l.024,2.608.029,1.306c.024.435.053.871.081,1.3.067.871.12,1.737.2,2.6.163,1.728.426,3.45.694,5.164a.038.038,0,0,0,.043.038.048.048,0,0,0,.048-.043h0c0-.871-.043-1.737-.062-2.6s-.1-1.728-.086-2.594,0-1.728-.029-2.589l-.024-1.3V306.8l.072-2.584.024-1.292c0-.431.048-.861.072-1.292l.158-2.584a92.721,92.721,0,0,1,1.464-10.251A60.033,60.033,0,0,1,64.162,278.81Z" transform="translate(-36.685 -249.266)" fill="#263238"/>
      <path id="Path_1252" data-name="Path 1252" d="M67.134,307.084a.053.053,0,0,0-.029-.057.043.043,0,0,0-.035,0,.043.043,0,0,0-.022.027,59.905,59.905,0,0,0-2.929,13.318c-.23,2.264-.479,4.532-.517,6.805A57.069,57.069,0,0,0,63.846,334a.046.046,0,0,0,.091,0c.263-2.264.421-4.527.579-6.786s.182-4.522.33-6.781a59.928,59.928,0,0,1,.794-6.724,61.634,61.634,0,0,1,1.493-6.628Z" transform="translate(-39.274 -264.011)" fill="#263238"/>
      <path id="Path_1253" data-name="Path 1253" d="M76.428,317.075a.048.048,0,0,0-.067,0,22.831,22.831,0,0,0-5.03,4.355,19.812,19.812,0,0,0-1.962,2.728l-.4.761-.316.79a8.32,8.32,0,0,0-.278.8c-.081.268-.167.541-.244.809A32.412,32.412,0,0,0,67.1,333.93a37.777,37.777,0,0,0,.249,6.661.048.048,0,0,0,.038.043.053.053,0,0,0,.053-.043L68.006,334a58.776,58.776,0,0,1,.837-6.5c.057-.263.134-.526.2-.785a6.981,6.981,0,0,1,.23-.78l.287-.761.345-.718a18.917,18.917,0,0,1,1.8-2.728,22.49,22.49,0,0,1,4.7-4.584h0A.053.053,0,0,0,76.428,317.075Z" transform="translate(-41.079 -269.246)" fill="#263238"/>
      <path id="Path_1254" data-name="Path 1254" d="M74.463,334.789a7.326,7.326,0,0,0-2.278,2.742,15.936,15.936,0,0,0-1.278,3.35,8.939,8.939,0,0,0-.225.871l-.206.876a14.84,14.84,0,0,0-.22,1.78c0,.6-.029,1.2,0,1.79a14.834,14.834,0,0,0,.234,1.78.053.053,0,0,0,.038.038.043.043,0,0,0,.053-.038,16.026,16.026,0,0,0,.316-1.751c.091-.579.182-1.158.254-1.732s.158-1.149.206-1.728a12.248,12.248,0,0,1,.249-1.723,15.433,15.433,0,0,1,.957-3.326,7.326,7.326,0,0,1,1.914-2.871h0a.038.038,0,0,0,0-.057Z" transform="translate(-42.746 -278.49)" fill="#263238"/>
      <path id="Path_1255" data-name="Path 1255" d="M52.173,320.219c-.249-2.924-.732-5.824-1.187-8.719s-.957-5.786-1.493-8.671-1.12-5.743-1.742-8.614a.048.048,0,0,0-.091,0c.5,2.871.957,5.781,1.383,8.676s.852,5.8,1.22,8.7.636,5.819,1,8.714l1.072,8.729a.043.043,0,0,0,.043.043.053.053,0,0,0,.048-.043c.034-.737.034-1.469.053-2.206s-.034-1.469-.043-2.2C52.407,323.147,52.283,321.688,52.173,320.219Z" transform="translate(-30.97 -257.315)" fill="#263238"/>
      <path id="Path_1256" data-name="Path 1256" d="M45.313,327.273c-.158-1.163-.368-2.316-.593-3.465l-.407-1.708c-.139-.569-.263-1.139-.431-1.7a48.144,48.144,0,0,0-2.24-6.657l-.359-.8-.392-.79c-.244-.531-.546-1.034-.833-1.546a12.831,12.831,0,0,0-2.11-2.8.044.044,0,1,0-.062.062h0a12.706,12.706,0,0,1,1.914,2.871c.258.517.526,1.029.742,1.57l.345.794.306.814a47.857,47.857,0,0,1,1.948,6.661c.268,1.125.445,2.273.665,3.407l.273,1.718c.1.569.22,1.134.3,1.708.182,1.144.392,2.287.593,3.431s.388,2.3.627,3.441a.048.048,0,0,0,.048.038.043.043,0,0,0,.043-.043q0-1.756-.081-3.508C45.59,329.6,45.432,328.435,45.313,327.273Z" transform="translate(-25.866 -264.407)" fill="#263238"/>
      <path id="Path_1257" data-name="Path 1257" d="M43.717,339.23c-.546-1.536-1.172-3.039-1.857-4.513a40.2,40.2,0,0,0-2.331-4.278.053.053,0,0,0-.062,0,.048.048,0,0,0,0,.062,40.531,40.531,0,0,1,1.991,4.412c.593,1.493,1.129,3.015,1.574,4.556s.79,3.115,1.2,4.666.78,3.111,1.259,4.675a.046.046,0,0,0,.091-.01,23.448,23.448,0,0,0-.455-4.872,30.792,30.792,0,0,0-1.407-4.7Z" transform="translate(-26.692 -276.216)" fill="#263238"/>
      <path id="Path_1258" data-name="Path 1258" d="M41.834,352.376a10.485,10.485,0,0,0-1.292-2.7,11.14,11.14,0,0,0-1.876-2.326,8.742,8.742,0,0,0-1.211-.9,4.948,4.948,0,0,0-1.354-.613.048.048,0,0,0-.053.029.043.043,0,0,0,0,.057h0a6.657,6.657,0,0,1,2.244,1.742,10.528,10.528,0,0,1,1.565,2.369c.445.842.675,1.771,1.062,2.637.167.445.34.89.536,1.335a11.423,11.423,0,0,0,.589,1.35h0a.048.048,0,0,0,.038.024.053.053,0,0,0,.053-.043,11.17,11.17,0,0,0-.057-1.5A8.105,8.105,0,0,0,41.834,352.376Z" transform="translate(-24.909 -284.246)" fill="#263238"/>
      <path id="Path_1259" data-name="Path 1259" d="M38.782,269.2a8.322,8.322,0,0,1-5.9-6.269c-1.11-5.168,2.46-2.953-.737-11.074s-2.46-9.959-1.354-12.3,1.723-1.6,2.7,1.479,4.561,7.872,5.905,16.85S38.782,269.2,38.782,269.2Z" transform="translate(-21.681 -228.115)" fill="#f51d46"/>
      <path id="Path_1260" data-name="Path 1260" d="M64.7,249.5s-3.2-1.11-3.321-7.135,2.335-4.786,2.7-12.3.861-12.792,2.216-12.921,4.92,3.69,6.149,12.055-1.6,13.878-4.058,16.357S64.7,249.5,64.7,249.5Z" transform="translate(-38.12 -217.143)" fill="#f51d46"/>
      <path id="Path_1261" data-name="Path 1261" d="M30.445,298.151s-.742-4.427-2.216-6.518-4.675-3.939-6.767-8-4.427-6.025-4.307-.244,2.7,8.729,5.905,10.7S30.445,298.151,30.445,298.151Z" transform="translate(-15.061 -249.805)" fill="#f51d46"/>
      <path id="Path_1262" data-name="Path 1262" d="M26.813,317.928a44.345,44.345,0,0,0-7.255-9.839c-4.3-4.182-7.753-6.274-6.523-4.182s2.709,1.972,4.786,5.661,1.474,6.393,4.427,8.485S26.813,317.928,26.813,317.928Z" transform="translate(-12.784 -261.958)" fill="#f51d46"/>
      <path id="Path_1263" data-name="Path 1263" d="M28.147,342.043c-.124-.368-.249-3.077-4.427-5.264s-8.135-1.354-7.628-.249,3.077,2.953,5.656,4.058A25.652,25.652,0,0,0,28.147,342.043Z" transform="translate(-14.486 -278.814)" fill="#f51d46"/>
      <path id="Path_1264" data-name="Path 1264" d="M66.558,294.02s-1.819-2.335-.861-7.255,3.2-3.69,5.661-6.274,1.967-2.953,4.427-5.656,4.671-4.183,5.656-3.077-.479,4.551-1.967,6.518-3.828,2.953-4.92,5.412-.617,6.4-3.446,8.241A12.868,12.868,0,0,1,66.558,294.02Z" transform="translate(-40.23 -245.429)" fill="#f51d46"/>
      <path id="Path_1265" data-name="Path 1265" d="M80.65,306.562s4.431-5.03,7.628-8.734,4.427-6.518,4.551-4.058,1.105,4.427-1.479,7.623S80.65,306.562,80.65,306.562Z" transform="translate(-48.173 -256.618)" fill="#f51d46"/>
      <path id="Path_1266" data-name="Path 1266" d="M75.77,326.492s-.124-1.967,6.886-6.518,9.963-5.412,9.226-3.565-3.828,3.69-7.135,7.011S75.77,326.492,75.77,326.492Z" transform="translate(-45.628 -268.431)" fill="#f51d46"/>
      <path id="Path_1267" data-name="Path 1267" d="M42.136,274.45a.244.244,0,0,1-.239-.2c0-.086-1.661-8.887-3.35-15.074s-2.819-10.05-2.828-10.083a.234.234,0,0,1,.163-.3.239.239,0,0,1,.3.163c0,.038,1.125,3.886,2.828,10.088s3.35,15.026,3.374,15.117a.239.239,0,0,1-.191.278Z" transform="translate(-24.737 -233.645)" fill="#263238"/>
      <path id="Path_1268" data-name="Path 1268" d="M67.462,254.411H67.39a.239.239,0,0,1-.153-.3A156.239,156.239,0,0,0,71.2,238.8a30.185,30.185,0,0,0-.445-11.744c-.062-.3-.12-.579-.167-.837a.244.244,0,1,1,.479-.091c.053.258.105.536.168.833a30.8,30.8,0,0,1,.45,11.921A151.032,151.032,0,0,1,67.7,254.253.239.239,0,0,1,67.462,254.411Z" transform="translate(-41.172 -221.723)" fill="#263238"/>
      <path id="Path_1269" data-name="Path 1269" d="M32.352,302.013a.239.239,0,0,1-.211-.12,46.563,46.563,0,0,0-4.508-6.422c-.689-.818-1.33-1.527-1.952-2.211a19.1,19.1,0,0,1-4.111-5.848.234.234,0,0,1,.134-.311.239.239,0,0,1,.311.134,18.711,18.711,0,0,0,4.025,5.7c.622.689,1.263,1.4,1.962,2.221a47.132,47.132,0,0,1,4.556,6.5.239.239,0,0,1-.091.325A.254.254,0,0,1,32.352,302.013Z" transform="translate(-17.356 -253.614)" fill="#263238"/>
      <path id="Path_1270" data-name="Path 1270" d="M67.541,296.913H67.5a.235.235,0,0,1-.2-.273c.038-.244,1.019-6,3.35-9.092.909-1.2,2.158-2.637,3.479-4.159a57.373,57.373,0,0,0,5.365-6.767.239.239,0,1,1,.407.244,57.352,57.352,0,0,1-5.412,6.834c-1.316,1.517-2.555,2.953-3.455,4.135-2.273,2.991-3.264,8.815-3.278,8.872a.235.235,0,0,1-.22.206Z" transform="translate(-41.212 -248.084)" fill="#263238"/>
      <path id="Path_1271" data-name="Path 1271" d="M32.737,344.421a.268.268,0,0,1-.129-.038c-.038-.029-4.159-2.709-7.068-4.159a.244.244,0,0,1-.105-.321.239.239,0,0,1,.321-.11c2.929,1.469,7.073,4.159,7.116,4.187a.239.239,0,0,1,.067.33A.229.229,0,0,1,32.737,344.421Z" transform="translate(-19.368 -281.086)" fill="#263238"/>
      <path id="Path_1272" data-name="Path 1272" d="M57.716,387.232c-.278-7.461-8.571-12.442-8.571-12.442H36.434s-8.293,4.977-8.571,12.442,9.4,34.829,9.4,34.829H48.317S57.988,394.7,57.716,387.232Z" transform="translate(-20.644 -299.348)" fill="#263238"/>
      <path id="Path_1273" data-name="Path 1273" d="M48.056,422.029H37a.239.239,0,0,1-.225-.158c-.4-1.12-9.686-27.493-9.413-34.934.278-7.5,8.614-12.586,8.686-12.634a.229.229,0,0,1,.124-.034h12.71a.229.229,0,0,1,.124.034c.081.048,8.4,5.13,8.681,12.634h0c.278,7.427-9.016,33.8-9.408,34.934a.239.239,0,0,1-.225.158Zm-10.882-.479h10.71c.794-2.254,9.571-27.541,9.332-34.58-.258-6.929-7.657-11.758-8.4-12.208H36.241c-.718.45-8.135,5.264-8.4,12.208-.258,7.039,8.537,32.326,9.332,34.58Z" transform="translate(-20.383 -299.077)" fill="#263238"/>
      <path id="Path_1274" data-name="Path 1274" d="M58.088,359.46H41.87l1.871,7.341H56.217Z" transform="translate(-27.951 -291.354)" fill="#263238"/>
      <path id="Path_1275" data-name="Path 1275" d="M55.955,366.78H43.479a.244.244,0,0,1-.234-.182l-1.871-7.336a.258.258,0,0,1,.043-.206.234.234,0,0,1,.191-.1H57.826a.244.244,0,0,1,.23.3L56.185,366.6A.234.234,0,0,1,55.955,366.78ZM43.666,366.3h12.1l1.747-6.843h-15.6Z" transform="translate(-27.689 -291.094)" fill="#263238"/>
    </g>
    <g id="freepik--Device--inject-24" transform="translate(14.959 25.127)">
      <path id="Path_1276" data-name="Path 1276" d="M239.887,473.549H17.569a.239.239,0,0,1,0-.479H239.887a.239.239,0,0,1,0,.479Z" transform="translate(-17.33 -262.831)" fill="#263238"/>
      <path id="Path_1277" data-name="Path 1277" d="M208.943,49.569V214.415a8.184,8.184,0,0,1-8.174,8.194H129.714a8.184,8.184,0,0,1-8.174-8.194V49.564a8.179,8.179,0,0,1,8.169-8.189h30.5l.029.091c.766,2.744,2.508,4.524,4.451,4.524h1.1c1.943,0,3.69-1.785,4.451-4.529l.033-.091h30.5A8.184,8.184,0,0,1,208.943,49.569Z" transform="translate(-71.691 -38.168)" fill="#fff"/>
      <path id="Path_1278" data-name="Path 1278" d="M200.487,222.592H129.432A8.433,8.433,0,0,1,121,214.159V49.309a8.428,8.428,0,0,1,8.408-8.429h30.68l.077.269c.732,2.643,2.393,4.351,4.221,4.351h1.12c1.833,0,3.489-1.708,4.221-4.351l.086-.269h30.675a8.433,8.433,0,0,1,8.413,8.434V214.159A8.433,8.433,0,0,1,200.487,222.592ZM129.427,41.36a7.949,7.949,0,0,0-7.949,7.949v164.85a7.954,7.954,0,0,0,7.934,7.954h71.074a7.954,7.954,0,0,0,7.934-7.954V49.314a7.954,7.954,0,0,0-7.934-7.954H170.176c-.8,2.806-2.627,4.62-4.661,4.62H164.4c-2.034,0-3.857-1.813-4.661-4.62Z" transform="translate(-71.409 -37.913)" fill="#263238"/>
      <rect id="Rectangle_600" data-name="Rectangle 600" width="29.981" height="9.341" rx="4.671" transform="translate(79.302 110.873)" fill="#263238"/>
      <path id="Path_1279" data-name="Path 1279" d="M210.469,275.17H185.105a2.56,2.56,0,0,1-2.555-2.555v-4.709a2.556,2.556,0,0,1,2.555-2.555h25.363a2.56,2.56,0,0,1,2.56,2.555v4.709A2.56,2.56,0,0,1,210.469,275.17Zm-25.363-9.341a2.077,2.077,0,0,0-2.077,2.077v4.709a2.082,2.082,0,0,0,2.077,2.077h25.363a2.082,2.082,0,0,0,2.082-2.077v-4.709a2.077,2.077,0,0,0-2.082-2.077Z" transform="translate(-103.507 -154.717)" fill="#263238"/>
      <path id="Path_1280" data-name="Path 1280" d="M121.54,312.26v42.983a8.174,8.174,0,0,0,8.174,8.174h71.055a8.174,8.174,0,0,0,8.174-8.174V312.26Z" transform="translate(-71.691 -178.977)" fill="#dbdbdb"/>
      <path id="Path_1281" data-name="Path 1281" d="M200.487,363.4H129.432A8.422,8.422,0,0,1,121,354.983V312a.239.239,0,0,1,.239-.239h87.422a.239.239,0,0,1,.239.239v42.983a8.423,8.423,0,0,1-8.413,8.413Zm-79.009-51.157v42.744a7.944,7.944,0,0,0,7.934,7.934h71.074a7.944,7.944,0,0,0,7.934-7.934V312.239Z" transform="translate(-71.409 -178.716)" fill="#263238"/>
      <rect id="Rectangle_601" data-name="Rectangle 601" width="23.961" height="8.049" rx="2.27" transform="translate(53.597 138.329)" fill="#fff"/>
      <rect id="Rectangle_602" data-name="Rectangle 602" width="23.961" height="8.049" rx="2.27" transform="translate(80.408 138.329)" fill="#fff"/>
      <rect id="Rectangle_603" data-name="Rectangle 603" width="23.961" height="8.049" rx="2.27" transform="translate(107.213 138.329)" fill="#fff"/>
      <rect id="Rectangle_604" data-name="Rectangle 604" width="23.961" height="8.049" rx="2.27" transform="translate(53.597 148.64)" fill="#fff"/>
      <rect id="Rectangle_605" data-name="Rectangle 605" width="23.961" height="8.049" rx="2.27" transform="translate(80.408 148.64)" fill="#fff"/>
      <rect id="Rectangle_606" data-name="Rectangle 606" width="23.961" height="8.049" rx="2.27" transform="translate(107.213 148.64)" fill="#fff"/>
      <rect id="Rectangle_607" data-name="Rectangle 607" width="23.961" height="8.049" rx="2.27" transform="translate(53.597 158.947)" fill="#fff"/>
      <rect id="Rectangle_608" data-name="Rectangle 608" width="23.961" height="8.049" rx="2.27" transform="translate(80.408 158.947)" fill="#fff"/>
      <rect id="Rectangle_609" data-name="Rectangle 609" width="23.961" height="8.049" rx="2.27" transform="translate(107.213 158.947)" fill="#fff"/>
      <rect id="Rectangle_610" data-name="Rectangle 610" width="23.961" height="8.049" rx="2.27" transform="translate(80.408 169.332)" fill="#fff"/>
      <path id="Path_1282" data-name="Path 1282" d="M265.655,395.639h-14.95l-3.225-3.747,3.225-4.3h14.95Z" transform="translate(-137.371 -218.258)" fill="#fff"/>
      <path id="Path_1283" data-name="Path 1283" d="M196.974,119.023l-.215-.163-.215.163s-11.007,6.264-15.984,8.643c0,0,2.393,13.4,4.1,19.439s8.427,9.289,12.1,11.447c3.675-2.158,10.37-5.4,12.1-11.447s4.106-19.439,4.106-19.439C207.991,125.287,196.974,119.023,196.974,119.023Z" transform="translate(-102.469 -78.47)" fill="#f51d46"/>
      <path id="Path_1284" data-name="Path 1284" d="M203.454,157.406l-7.3-6.259a1.675,1.675,0,1,1,2.177-2.546l4.786,4.106,8.2-9.327a1.675,1.675,0,1,1,2.517,2.211Z" transform="translate(-110.293 -90.946)" fill="#fff"/>
      <rect id="Rectangle_611" data-name="Rectangle 611" width="9.935" height="9.935" transform="translate(55.847 87.65)" fill="#fff"/>
      <path id="Path_1285" data-name="Path 1285" d="M143.978,227.343H133.56V216.93h10.418Zm-9.94-.479H143.5v-9.456h-9.461Z" transform="translate(-77.952 -129.519)" fill="#263238"/>
      <rect id="Rectangle_612" data-name="Rectangle 612" width="9.935" height="9.935" transform="translate(69.238 87.65)" fill="#fff"/>
      <path id="Path_1286" data-name="Path 1286" d="M171.963,227.343H161.55V216.93h10.413Zm-9.935-.479h9.456v-9.456h-9.456Z" transform="translate(-92.551 -129.519)" fill="#263238"/>
      <rect id="Rectangle_613" data-name="Rectangle 613" width="9.935" height="9.935" transform="translate(82.629 87.65)" fill="#fff"/>
      <path id="Path_1287" data-name="Path 1287" d="M199.953,227.343H189.54V216.93h10.413Zm-9.935-.479h9.456v-9.456h-9.456Z" transform="translate(-107.15 -129.519)" fill="#263238"/>
      <rect id="Rectangle_614" data-name="Rectangle 614" width="9.935" height="9.935" transform="translate(96.015 87.65)" fill="#fff"/>
      <path id="Path_1288" data-name="Path 1288" d="M227.938,227.343H217.52V216.93h10.418ZM218,226.865h9.461v-9.456H218Z" transform="translate(-121.744 -129.519)" fill="#263238"/>
      <rect id="Rectangle_615" data-name="Rectangle 615" width="9.935" height="9.935" transform="translate(109.407 87.65)" fill="#fff"/>
      <path id="Path_1289" data-name="Path 1289" d="M255.923,227.343H245.51V216.93h10.413Zm-9.935-.479h9.456v-9.456h-9.456Z" transform="translate(-136.343 -129.519)" fill="#263238"/>
      <rect id="Rectangle_616" data-name="Rectangle 616" width="9.935" height="9.935" transform="translate(122.798 87.65)" fill="#fff"/>
      <path id="Path_1290" data-name="Path 1290" d="M283.913,227.343H273.5V216.93h10.413Zm-9.935-.479h9.456v-9.456h-9.456Z" transform="translate(-150.942 -129.519)" fill="#263238"/>
      <path id="Path_1291" data-name="Path 1291" d="M208.943,57.2V49.539a8.174,8.174,0,0,0-8.174-8.164H170.276l-.029.091c-.761,2.737-2.508,4.513-4.46,4.513h-1.1c-1.943,0-3.694-1.78-4.451-4.518l-.029-.091h-30.5a8.169,8.169,0,0,0-8.169,8.169V57.2Z" transform="translate(-71.691 -38.168)" fill="#dbdbdb"/>
      <path id="Path_1292" data-name="Path 1292" d="M208.677,57.174h-87.4a.239.239,0,0,1-.239-.239V49.278a8.418,8.418,0,0,1,8.408-8.408h30.5a.234.234,0,0,1,.23.177l.029.091c.732,2.637,2.393,4.34,4.221,4.34h1.1c1.833,0,3.489-1.7,4.221-4.34l.033-.1a.235.235,0,0,1,.225-.167h30.5a8.418,8.418,0,0,1,8.408,8.413V56.94A.239.239,0,0,1,208.677,57.174ZM121.5,56.7h86.938V49.288a7.939,7.939,0,0,0-7.93-7.934H170.2c-.8,2.8-2.627,4.608-4.661,4.608h-1.11c-2.034,0-3.857-1.809-4.661-4.608H129.448a7.939,7.939,0,0,0-7.949,7.93Z" transform="translate(-71.43 -37.908)" fill="#263238"/>
      <path id="Path_1293" data-name="Path 1293" d="M210.045,85.712V69.25h-1.488V48.174A12.974,12.974,0,0,0,195.6,35.18h-69.62A12.979,12.979,0,0,0,113,48.174V215.647a12.974,12.974,0,0,0,12.964,12.989H195.6a12.969,12.969,0,0,0,12.959-12.989V99.742h1.488V90.015h-1.488V85.7Zm-5.556,120.653a12.979,12.979,0,0,1-12.964,12.994H130.051a12.979,12.979,0,0,1-12.964-12.994V51.143a12.979,12.979,0,0,1,12.964-12.989h25.7l.029.091c.766,2.744,2.508,4.523,4.451,4.523h1.1c1.943,0,3.69-1.784,4.451-4.528l.033-.091h25.7A12.979,12.979,0,0,1,204.48,51.138Z" transform="translate(-67.237 -34.941)" fill="#f51d46"/>
      <path id="Path_1294" data-name="Path 1294" d="M195.353,228.615h-69.62a13.233,13.233,0,0,1-13.2-13.229V47.914a13.238,13.238,0,0,1,13.2-13.234h69.62a13.233,13.233,0,0,1,13.2,13.234V68.75H209.8a.24.24,0,0,1,.239.24V85.452a.24.24,0,0,1-.239.24h-1.249v3.837H209.8a.24.24,0,0,1,.239.24V99.5a.24.24,0,0,1-.239.24h-1.249v115.65a13.228,13.228,0,0,1-13.2,13.229ZM125.733,35.16a12.754,12.754,0,0,0-12.725,12.754V215.386a12.749,12.749,0,0,0,12.725,12.749h69.62a12.749,12.749,0,0,0,12.72-12.749V99.482a.24.24,0,0,1,.239-.24h1.249V89.994h-1.249a.244.244,0,0,1-.239-.24V85.437a.24.24,0,0,1,.239-.24h1.249V69.23h-1.249a.244.244,0,0,1-.239-.24V47.914a12.749,12.749,0,0,0-12.72-12.754Zm65.561,184.188H129.806A13.238,13.238,0,0,1,116.583,206.1V50.883a13.233,13.233,0,0,1,13.2-13.229h25.7a.23.23,0,0,1,.23.177l.029.091c.732,2.643,2.393,4.35,4.221,4.35h1.12c1.833,0,3.489-1.708,4.221-4.35l.034-.1a.235.235,0,0,1,.225-.168h25.7a13.233,13.233,0,0,1,13.2,13.229V206.1a13.238,13.238,0,0,1-13.194,13.234ZM129.806,38.134a12.749,12.749,0,0,0-12.744,12.749V206.1a12.754,12.754,0,0,0,12.725,12.754H191.28A12.754,12.754,0,0,0,204,206.1V50.883A12.749,12.749,0,0,0,191.28,38.134H165.759c-.8,2.806-2.627,4.619-4.661,4.619h-1.11c-2.034,0-3.857-1.813-4.661-4.619Z" transform="translate(-66.992 -34.68)" fill="#263238"/>
      <path id="Path_1295" data-name="Path 1295" d="M196.212,38.91H128.67a12.519,12.519,0,0,0-12.5,12.515V216.267a12.515,12.515,0,0,0,12.5,12.529h67.543a12.515,12.515,0,0,0,12.5-12.529V51.425A12.519,12.519,0,0,0,196.212,38.91Zm9.93,169.85a12.519,12.519,0,0,1-12.5,12.529H131.244a12.519,12.519,0,0,1-12.5-12.529V52.619a12.51,12.51,0,0,1,12.5-12.524h26.167l.029.091c.766,2.744,2.508,4.523,4.451,4.523h1.1c1.943,0,3.69-1.784,4.451-4.528l.034-.091h26.158a12.515,12.515,0,0,1,12.514,12.534Z" transform="translate(-68.89 -36.886)" fill="#263238"/>
      <path id="Path_1296" data-name="Path 1296" d="M195.952,228.759H128.409A12.768,12.768,0,0,1,115.67,215.99V51.149A12.768,12.768,0,0,1,128.409,38.38h67.543a12.768,12.768,0,0,1,12.739,12.769V215.99a12.768,12.768,0,0,1-12.739,12.769ZM128.409,38.879a12.289,12.289,0,0,0-12.26,12.27V215.99a12.289,12.289,0,0,0,12.26,12.289h67.543a12.289,12.289,0,0,0,12.26-12.289V51.149a12.289,12.289,0,0,0-12.26-12.289Zm64.968,182.392H130.984a12.773,12.773,0,0,1-12.763-12.788V52.343A12.768,12.768,0,0,1,130.96,39.579h26.167a.23.23,0,0,1,.23.177l.029.091c.732,2.643,2.393,4.351,4.221,4.351h1.12c1.833,0,3.489-1.708,4.221-4.351l.034-.1a.235.235,0,0,1,.225-.168h26.162a12.773,12.773,0,0,1,12.753,12.769V208.483a12.773,12.773,0,0,1-12.744,12.788Zm-62.4-181.212A12.284,12.284,0,0,0,118.7,52.343v156.14a12.294,12.294,0,0,0,12.265,12.289h62.413a12.294,12.294,0,0,0,12.265-12.289V52.348a12.289,12.289,0,0,0-12.265-12.289H167.4c-.8,2.806-2.627,4.619-4.661,4.619h-1.11c-2.034,0-3.857-1.813-4.661-4.619Z" transform="translate(-68.629 -36.609)" fill="#263238"/>
      <path id="Path_1297" data-name="Path 1297" d="M212.191,41.351a1.216,1.216,0,1,0-.354.863,1.216,1.216,0,0,0,.354-.863Z" transform="translate(-117.696 -37.527)" fill="#fff"/>
      <path id="Path_1298" data-name="Path 1298" d="M135.778,51.288c0,1.23-1.383,1.675-1.393,2.613v.057h1.345v.416h-1.79v-.349c0-1.321,1.383-1.574,1.383-2.728,0-.416-.144-.641-.479-.641s-.479.239-.479.6v.359h-.426v-.33c0-.627.282-1.038.914-1.038S135.778,50.662,135.778,51.288Z" transform="translate(-78.15 -42.799)" fill="#263238"/>
      <path id="Path_1299" data-name="Path 1299" d="M140.432,51.284v.105a.818.818,0,0,1-.479.842.814.814,0,0,1,.479.847v.316c0,.622-.292,1.029-.924,1.029s-.914-.407-.914-1.029v-.282h.426v.311c0,.364.148.589.479.589s.479-.215.479-.632v-.316c0-.4-.172-.593-.517-.6h-.244V52.05h.268a.479.479,0,0,0,.479-.56V51.3c0-.421-.148-.636-.479-.636s-.479.23-.479.6v.206h-.426v-.187c0-.622.292-1.024.914-1.024A.9.9,0,0,1,140.432,51.284Z" transform="translate(-80.57 -42.804)" fill="#263238"/>
      <path id="Path_1300" data-name="Path 1300" d="M143.81,53.05v.565h-.44V53.05Zm0,2.225v.565h-.44v-.565Z" transform="translate(-83.068 -44.259)" fill="#263238"/>
      <path id="Path_1301" data-name="Path 1301" d="M145.7,52.005a.651.651,0,0,1,.6-.34c.526,0,.761.388.761.957v.8c0,.622-.3,1.029-.924,1.029s-.914-.407-.914-1.029v-.278h.426v.306c0,.364.153.589.479.589s.479-.225.479-.589v-.78c0-.368-.153-.589-.479-.589a.44.44,0,0,0-.479.435v.1h-.421l.11-2.273h1.608v.412h-1.2Z" transform="translate(-84.039 -42.846)" fill="#263238"/>
      <path id="Path_1302" data-name="Path 1302" d="M151.766,51.279v.077h-.426v-.105c0-.368-.148-.584-.479-.584s-.479.225-.479.66v.914a.665.665,0,0,1,.66-.435c.526,0,.761.378.761.957v.622a.96.96,0,1,1-1.914,0V51.308c0-.646.292-1.048.957-1.048S151.766,50.657,151.766,51.279Zm-1.407,1.531v.613c0,.364.153.589.479.589s.479-.225.479-.589v-.613c0-.368-.158-.589-.479-.589S150.359,52.442,150.359,52.811Z" transform="translate(-86.469 -42.804)" fill="#263238"/>
      <rect id="Rectangle_617" data-name="Rectangle 617" width="1.153" height="2.881" transform="translate(108.719 8.657)" fill="#263238"/>
      <rect id="Rectangle_618" data-name="Rectangle 618" width="1.153" height="3.46" transform="translate(110.255 8.078)" fill="#263238"/>
      <rect id="Rectangle_619" data-name="Rectangle 619" width="1.153" height="3.871" transform="translate(111.79 7.666)" fill="#263238"/>
      <rect id="Rectangle_620" data-name="Rectangle 620" width="1.153" height="4.585" transform="translate(113.331 6.953)" fill="#263238"/>
      <path id="Path_1303" data-name="Path 1303" d="M278.906,54.02H272V49.79h6.915Zm-6.532-.388h6.149v-3.46h-6.149Z" transform="translate(-150.159 -42.559)" fill="#263238"/>
      <rect id="Rectangle_621" data-name="Rectangle 621" width="3.651" height="2.622" transform="translate(122.789 8.035)" fill="#263238"/>
      <rect id="Rectangle_622" data-name="Rectangle 622" width="0.871" height="0.995" transform="translate(128.507 8.848)" fill="#263238"/>
      <path id="Path_1304" data-name="Path 1304" d="M263.463,55.7a.263.263,0,0,1-.134-.034,2.05,2.05,0,0,0-2.393-.029.258.258,0,0,1-.364,0,.263.263,0,0,1,.024-.364,2.51,2.51,0,0,1,2.981-.029.258.258,0,0,1,.091.354.254.254,0,0,1-.206.1Z" transform="translate(-144.166 -45.164)" fill="#263238"/>
      <path id="Path_1305" data-name="Path 1305" d="M263.427,53.72a.215.215,0,0,1-.129-.038,2.925,2.925,0,0,0-3.422-.029.258.258,0,0,1-.364,0,.268.268,0,0,1,.024-.368,3.422,3.422,0,0,1,4.025,0,.258.258,0,0,1-.134.479Z" transform="translate(-143.613 -44.049)" fill="#263238"/>
      <path id="Path_1306" data-name="Path 1306" d="M263.385,51.458a.254.254,0,0,1-.129-.038c-2.579-1.531-4.307-.091-4.364-.029a.258.258,0,0,1-.368,0,.263.263,0,0,1,.024-.364A4.289,4.289,0,0,1,263.519,51a.263.263,0,0,1,.091.354A.268.268,0,0,1,263.385,51.458Z" transform="translate(-143.097 -42.792)" fill="#263238"/>
      <path id="Path_1307" data-name="Path 1307" d="M263.632,56.9a.646.646,0,1,1-.188-.46A.651.651,0,0,1,263.632,56.9Z" transform="translate(-145.114 -45.928)" fill="#263238"/>
      <path id="Path_1308" data-name="Path 1308" d="M266.272,392.524l2.331-2.331a.718.718,0,0,0-1.015-1.015l-2.331,2.331-2.331-2.331a.719.719,0,1,0-1.019,1.015l2.321,2.331-2.335,2.331a.719.719,0,1,0,1.019,1.015l2.331-2.331,2.331,2.331a.7.7,0,0,0,.507.211.694.694,0,0,0,.507-.211.713.713,0,0,0,0-1.014Z" transform="translate(-144.779 -218.976)" fill="#263238"/>
      <path id="Path_1309" data-name="Path 1309" d="M150.8,330.944v-4.714l-.168.067-.278.081-.278.077a1,1,0,0,0-.172.057v-.742l.249-.1.321-.148a2.58,2.58,0,0,0,.316-.182,1.317,1.317,0,0,0,.239-.211h.761v5.814Z" transform="translate(-86.48 -185.831)" fill="#263238"/>
      <path id="Path_1310" data-name="Path 1310" d="M207.8,330.871v-.7l1.436-2.22c.105-.163.206-.316.3-.479a2.168,2.168,0,0,0,.23-.479,1.474,1.474,0,0,0,.091-.531.9.9,0,0,0-.115-.479.4.4,0,0,0-.359-.172.478.478,0,0,0-.359.129.684.684,0,0,0-.177.335,2.258,2.258,0,0,0-.048.479V327h-.957v-.258a2.394,2.394,0,0,1,.158-.909,1.278,1.278,0,0,1,.479-.617,1.627,1.627,0,0,1,.857-.225,1.436,1.436,0,0,1,1.12.4,1.584,1.584,0,0,1,.373,1.12,2,2,0,0,1-.1.651,2.825,2.825,0,0,1-.268.555q-.163.268-.359.546l-1.192,1.809h1.766v.794Z" transform="translate(-116.673 -185.758)" fill="#263238"/>
      <path id="Path_1311" data-name="Path 1311" d="M264.677,330.956a1.7,1.7,0,0,1-.881-.2,1.187,1.187,0,0,1-.478-.584,2.33,2.33,0,0,1-.148-.876v-.2h.957v.168a2.447,2.447,0,0,0,.053.479.556.556,0,0,0,.158.3.5.5,0,0,0,.33.1.45.45,0,0,0,.33-.11.579.579,0,0,0,.153-.316,2.964,2.964,0,0,0,.038-.479,1.507,1.507,0,0,0-.139-.7.593.593,0,0,0-.541-.273h-.167v-.828h.182a.66.66,0,0,0,.546-.211,1.144,1.144,0,0,0,.148-.66,1.277,1.277,0,0,0-.11-.574.44.44,0,0,0-.426-.206.416.416,0,0,0-.416.23,1.56,1.56,0,0,0-.11.593v.215H263.2v-.278a1.876,1.876,0,0,1,.172-.842,1.206,1.206,0,0,1,.517-.531,1.67,1.67,0,0,1,.818-.182,1.757,1.757,0,0,1,.833.177,1.2,1.2,0,0,1,.512.522,1.818,1.818,0,0,1,.177.833,1.522,1.522,0,0,1-.268.866.372.372,0,1,0-.153.679,1.2,1.2,0,0,1,.268.479,2.072,2.072,0,0,1,.1.689,2.7,2.7,0,0,1-.148.919,1.239,1.239,0,0,1-.479.622,1.565,1.565,0,0,1-.871.182Z" transform="translate(-145.552 -185.757)" fill="#263238"/>
      <path id="Path_1312" data-name="Path 1312" d="M150.9,352.474v-1.436H149.16v-.847l1.512-3.541h1.158v3.6h.6v.79h-.593v1.436Zm-.9-2.216h.9v-2.527Z" transform="translate(-86.088 -197.03)" fill="#263238"/>
      <path id="Path_1313" data-name="Path 1313" d="M209.4,352.571a1.594,1.594,0,0,1-.9-.215,1.082,1.082,0,0,1-.44-.608,3.006,3.006,0,0,1-.124-.928h.957a2.869,2.869,0,0,0,.038.522.627.627,0,0,0,.158.349.416.416,0,0,0,.345.12.392.392,0,0,0,.359-.163,1.049,1.049,0,0,0,.129-.45c0-.2.029-.421.029-.68a3.57,3.57,0,0,0-.038-.589.794.794,0,0,0-.153-.392.445.445,0,0,0-.359-.139.478.478,0,0,0-.345.139.876.876,0,0,0-.2.373H208l.057-3.24h2.613v.89H208.9l-.057,1.4a.7.7,0,0,1,.311-.211,1.474,1.474,0,0,1,.479-.091,1.12,1.12,0,0,1,.747.191,1.249,1.249,0,0,1,.421.627,3.1,3.1,0,0,1,.139.957,5.178,5.178,0,0,1-.062.847,1.875,1.875,0,0,1-.225.67,1.144,1.144,0,0,1-.479.44A1.632,1.632,0,0,1,209.4,352.571Z" transform="translate(-116.745 -197.04)" fill="#263238"/>
      <path id="Path_1314" data-name="Path 1314" d="M264.747,352.52a1.312,1.312,0,0,1-1.354-.938,2.957,2.957,0,0,1-.153-.957v-2.039a3.749,3.749,0,0,1,.129-1.024,1.373,1.373,0,0,1,.479-.723,1.436,1.436,0,0,1,.924-.263,1.767,1.767,0,0,1,.833.167,1.043,1.043,0,0,1,.479.479,1.87,1.87,0,0,1,.148.794s0,.029,0,.048a.161.161,0,0,1,0,.048h-.957a1.435,1.435,0,0,0-.091-.584.4.4,0,0,0-.4-.191.407.407,0,0,0-.3.115.713.713,0,0,0-.168.373,3.452,3.452,0,0,0-.057.7v.694a.727.727,0,0,1,.306-.263,1.354,1.354,0,0,1,1.225.115,1.192,1.192,0,0,1,.392.593,3.024,3.024,0,0,1,.115.871,3.349,3.349,0,0,1-.144,1.014,1.316,1.316,0,0,1-1.4.967Zm0-.77a.388.388,0,0,0,.316-.129.776.776,0,0,0,.153-.359,2.931,2.931,0,0,0,.043-.536,4.086,4.086,0,0,0-.024-.565.827.827,0,0,0-.134-.4.421.421,0,0,0-.359-.144.569.569,0,0,0-.225.043.7.7,0,0,0-.182.12.792.792,0,0,0-.12.144v.914a2.2,2.2,0,0,0,.048.45.714.714,0,0,0,.167.335.417.417,0,0,0,.321.12Z" transform="translate(-145.589 -196.99)" fill="#263238"/>
      <path id="Path_1315" data-name="Path 1315" d="M150.107,374.024l1.177-5.054H149.71v-.761h2.532v.608l-1.172,5.207Z" transform="translate(-86.375 -208.25)" fill="#263238"/>
      <path id="Path_1316" data-name="Path 1316" d="M209.262,374.021a1.594,1.594,0,0,1-.89-.22,1.206,1.206,0,0,1-.479-.622,2.713,2.713,0,0,1-.144-.924,2.273,2.273,0,0,1,.043-.479,1.546,1.546,0,0,1,.139-.388,1.163,1.163,0,0,1,.22-.3,1.09,1.09,0,0,1,.292-.22,1.464,1.464,0,0,1-.435-.479,1.679,1.679,0,0,1-.182-.794,2.029,2.029,0,0,1,.153-.818,1.105,1.105,0,0,1,.479-.531,1.584,1.584,0,0,1,.8-.187,1.56,1.56,0,0,1,.8.187,1.129,1.129,0,0,1,.479.531,1.881,1.881,0,0,1,.148.818,1.689,1.689,0,0,1-.177.8,1.368,1.368,0,0,1-.426.479,1.115,1.115,0,0,1,.3.22,1.148,1.148,0,0,1,.215.3,1.545,1.545,0,0,1,.139.388,2.26,2.26,0,0,1,.048.479,2.5,2.5,0,0,1-.144.924,1.23,1.23,0,0,1-.479.622,1.6,1.6,0,0,1-.9.215Zm0-.751a.426.426,0,0,0,.354-.144.723.723,0,0,0,.158-.364,2.765,2.765,0,0,0,.034-.45,2.17,2.17,0,0,0-.034-.479.843.843,0,0,0-.163-.368.431.431,0,0,0-.349-.144.411.411,0,0,0-.34.144.828.828,0,0,0-.167.364,2.493,2.493,0,0,0-.043.479,2.393,2.393,0,0,0,.038.455.727.727,0,0,0,.163.364.445.445,0,0,0,.349.168Zm0-2.78a.364.364,0,0,0,.282-.124.665.665,0,0,0,.148-.325,2.349,2.349,0,0,0,.043-.479,1.182,1.182,0,0,0-.105-.541.383.383,0,0,0-.368-.206.388.388,0,0,0-.369.206,1.039,1.039,0,0,0-.12.531,2.078,2.078,0,0,0,.048.479.665.665,0,0,0,.153.33.383.383,0,0,0,.287.129Z" transform="translate(-116.647 -208.171)" fill="#263238"/>
      <path id="Path_1317" data-name="Path 1317" d="M209.262,395.128a1.517,1.517,0,0,1-.842-.211,1.335,1.335,0,0,1-.5-.6,2.1,2.1,0,0,1-.167-.876v-2.579a2.24,2.24,0,0,1,.163-.89,1.245,1.245,0,0,1,.479-.6,1.814,1.814,0,0,1,1.713,0,1.278,1.278,0,0,1,.479.6,2.326,2.326,0,0,1,.163.89v2.579a2.1,2.1,0,0,1-.172.876,1.336,1.336,0,0,1-.5.6A1.517,1.517,0,0,1,209.262,395.128Zm0-.852a.407.407,0,0,0,.33-.134.761.761,0,0,0,.144-.335,2.023,2.023,0,0,0,.038-.378v-2.551a2.839,2.839,0,0,0-.034-.4.756.756,0,0,0-.139-.335.407.407,0,0,0-.34-.134.4.4,0,0,0-.335.134.761.761,0,0,0-.144.335,2.825,2.825,0,0,0-.029.4v2.551a1.69,1.69,0,0,0,.038.378.765.765,0,0,0,.148.335A.392.392,0,0,0,209.262,394.276Z" transform="translate(-116.647 -219.077)" fill="#263238"/>
      <path id="Path_1318" data-name="Path 1318" d="M264.531,374.026a1.756,1.756,0,0,1-.828-.172,1.048,1.048,0,0,1-.479-.5,1.914,1.914,0,0,1-.148-.8v-.077h.957a1.378,1.378,0,0,0,.1.579.416.416,0,0,0,.412.2.392.392,0,0,0,.3-.115.775.775,0,0,0,.158-.383,3.828,3.828,0,0,0,.053-.694v-.7a.67.67,0,0,1-.3.258,1.221,1.221,0,0,1-.479.1,1.125,1.125,0,0,1-.742-.215,1.253,1.253,0,0,1-.392-.617,2.913,2.913,0,0,1-.12-.876,3.043,3.043,0,0,1,.148-1,1.388,1.388,0,0,1,.479-.684,1.479,1.479,0,0,1,.885-.249,1.435,1.435,0,0,1,.876.244,1.359,1.359,0,0,1,.479.66,2.873,2.873,0,0,1,.153.957v2.058a3.626,3.626,0,0,1-.134,1.029,1.35,1.35,0,0,1-1.373,1.01Zm0-3.063a.478.478,0,0,0,.321-.1.887.887,0,0,0,.191-.215v-.9a2.193,2.193,0,0,0-.043-.455.708.708,0,0,0-.153-.33.407.407,0,0,0-.321-.129.383.383,0,0,0-.311.129.732.732,0,0,0-.158.359,2.978,2.978,0,0,0-.043.541,4.958,4.958,0,0,0,.029.56.766.766,0,0,0,.129.4.412.412,0,0,0,.364.148Z" transform="translate(-145.474 -208.175)" fill="#263238"/>
      <path id="Path_1319" data-name="Path 1319" d="M197.21,275.1V269.29h2.441v.746h-1.378v1.67h1.086v.742h-1.086v1.914h1.393v.732Z" transform="translate(-111.15 -156.772)" fill="#fff"/>
      <path id="Path_1320" data-name="Path 1320" d="M203.63,275.1V269.29h.742l1.412,3.316V269.29h.895V275.1h-.7l-1.436-3.474V275.1Z" transform="translate(-114.498 -156.772)" fill="#fff"/>
      <path id="Path_1321" data-name="Path 1321" d="M211.994,275.1V270.07h-.924v-.78h2.9v.78h-.914V275.1Z" transform="translate(-118.379 -156.772)" fill="#fff"/>
      <path id="Path_1322" data-name="Path 1322" d="M218.26,275.1V269.29H220.7v.746h-1.378v1.67H220.4v.742h-1.082v1.914h1.393v.732Z" transform="translate(-122.129 -156.772)" fill="#fff"/>
      <path id="Path_1323" data-name="Path 1323" d="M224.68,275.1v-5.814h1.393a3.028,3.028,0,0,1,1,.139,1.149,1.149,0,0,1,.617.479,1.742,1.742,0,0,1,.211.919,2.808,2.808,0,0,1-.067.632,1.2,1.2,0,0,1-.215.479,1,1,0,0,1-.431.306l.814,2.871h-1.062l-.7-2.666h-.479v2.666Zm1.062-3.35h.33a1.177,1.177,0,0,0,.479-.091.546.546,0,0,0,.258-.287,1.388,1.388,0,0,0,.081-.507,1.076,1.076,0,0,0-.163-.656.708.708,0,0,0-.613-.22h-.388Z" transform="translate(-125.477 -156.77)" fill="#fff"/>
      <path id="Path_1324" data-name="Path 1324" d="M166.135,100.789,165.12,95.75h.814l.665,3.565.622-3.565h.833l-1.015,5.039Z" transform="translate(-94.413 -66.525)" fill="#263238"/>
      <path id="Path_1325" data-name="Path 1325" d="M172.33,100.789V95.75h2.115V96.4h-1.192v1.436h.957v.641h-.957v1.7h1.206v.632Z" transform="translate(-98.173 -66.525)" fill="#263238"/>
      <path id="Path_1326" data-name="Path 1326" d="M177.89,100.788V95.749H179.1a2.642,2.642,0,0,1,.861.124.99.99,0,0,1,.536.412,1.512,1.512,0,0,1,.182.794,2.392,2.392,0,0,1-.057.55,1.053,1.053,0,0,1-.187.412.876.876,0,0,1-.373.268l.7,2.479h-.909l-.613-2.307h-.421v2.307Zm.924-2.871h.287a.957.957,0,0,0,.426-.077.445.445,0,0,0,.225-.249,1.168,1.168,0,0,0,.067-.44.957.957,0,0,0-.139-.569.622.622,0,0,0-.531-.187h-.335Z" transform="translate(-101.073 -66.524)" fill="#263238"/>
      <path id="Path_1327" data-name="Path 1327" d="M185.21,100.789V95.75h.909v5.039Z" transform="translate(-104.891 -66.525)" fill="#263238"/>
      <path id="Path_1328" data-name="Path 1328" d="M188.74,100.789V95.75h2.072v.636h-1.153v1.469h.957V98.5h-.957v2.292Z" transform="translate(-106.732 -66.525)" fill="#263238"/>
      <path id="Path_1329" data-name="Path 1329" d="M194.12,100.789V95.75h.9v5.039Z" transform="translate(-109.538 -66.525)" fill="#263238"/>
      <path id="Path_1330" data-name="Path 1330" d="M198.92,100.8a1.522,1.522,0,0,1-.871-.22,1.115,1.115,0,0,1-.435-.593,2.665,2.665,0,0,1-.124-.866v-1.8a2.79,2.79,0,0,1,.124-.895,1.043,1.043,0,0,1,.435-.584,1.565,1.565,0,0,1,.871-.206,1.6,1.6,0,0,1,.818.177.957.957,0,0,1,.416.507,2.082,2.082,0,0,1,.124.761v.426H199.4v-.435a3.183,3.183,0,0,0,0-.388.479.479,0,0,0-.12-.278.44.44,0,0,0-.33-.1.479.479,0,0,0-.345.11.546.546,0,0,0-.144.292,2.646,2.646,0,0,0-.029.412v2.192a1.962,1.962,0,0,0,.043.45.432.432,0,0,0,.474.359.416.416,0,0,0,.325-.11.479.479,0,0,0,.12-.287,2.622,2.622,0,0,0,.029-.407v-.479h.881v.407a2.546,2.546,0,0,1-.115.794,1.067,1.067,0,0,1-.416.541,1.5,1.5,0,0,1-.852.22Z" transform="translate(-111.295 -66.465)" fill="#263238"/>
      <path id="Path_1331" data-name="Path 1331" d="M204.13,100.789l1-5.039h.986l1,5.039h-.852l-.2-1.163H205.2l-.2,1.163Zm1.163-1.747h.689l-.345-2.115Z" transform="translate(-114.759 -66.525)" fill="#263238"/>
      <path id="Path_1332" data-name="Path 1332" d="M211.124,100.789V96.43h-.8v-.68h2.512v.68h-.79v4.36Z" transform="translate(-117.988 -66.525)" fill="#263238"/>
      <path id="Path_1333" data-name="Path 1333" d="M216.59,100.789V95.75h.909v5.039Z" transform="translate(-121.258 -66.525)" fill="#263238"/>
      <path id="Path_1334" data-name="Path 1334" d="M221.435,100.78a1.57,1.57,0,0,1-.852-.2,1.115,1.115,0,0,1-.455-.574,2.555,2.555,0,0,1-.129-.866V97.225a2.508,2.508,0,0,1,.139-.876,1.086,1.086,0,0,1,.436-.56,1.617,1.617,0,0,1,.852-.191,1.642,1.642,0,0,1,.861.191,1.11,1.11,0,0,1,.455.555,2.508,2.508,0,0,1,.129.881v1.914a2.546,2.546,0,0,1-.139.876,1.149,1.149,0,0,1-.455.569,1.594,1.594,0,0,1-.842.2Zm0-.68a.426.426,0,0,0,.483-.373,1.869,1.869,0,0,0,.038-.378V97.028a1.852,1.852,0,0,0-.038-.383.478.478,0,0,0-.144-.263.512.512,0,0,0-.34-.115.5.5,0,0,0-.33.1.479.479,0,0,0-.148.263,1.574,1.574,0,0,0-.038.383V99.33a1.888,1.888,0,0,0,.033.378.458.458,0,0,0,.483.388Z" transform="translate(-123.036 -66.444)" fill="#263238"/>
      <path id="Path_1335" data-name="Path 1335" d="M227.44,100.789V95.75h.641l1.225,2.871V95.75h.756v5.039h-.608l-1.23-3.005v3.01Z" transform="translate(-126.917 -66.525)" fill="#263238"/>
      <path id="Path_1336" data-name="Path 1336" d="M238.95,100.8a1.517,1.517,0,0,1-.866-.22,1.115,1.115,0,0,1-.435-.593,2.661,2.661,0,0,1-.129-.866v-1.8a2.779,2.779,0,0,1,.129-.895,1.043,1.043,0,0,1,.435-.584,1.556,1.556,0,0,1,.866-.206,1.575,1.575,0,0,1,.818.177.957.957,0,0,1,.421.507,2.081,2.081,0,0,1,.124.761v.426h-.881v-.435a3.171,3.171,0,0,0-.024-.388.479.479,0,0,0-.12-.278.44.44,0,0,0-.33-.1.478.478,0,0,0-.345.11.512.512,0,0,0-.144.292,2.638,2.638,0,0,0-.029.412v2.192a1.961,1.961,0,0,0,.043.45.432.432,0,0,0,.474.359.416.416,0,0,0,.325-.11.527.527,0,0,0,.12-.287,2.624,2.624,0,0,0,.029-.407v-.479h.881v.407a2.393,2.393,0,0,1-.12.794,1.034,1.034,0,0,1-.412.541,1.507,1.507,0,0,1-.833.22Z" transform="translate(-132.174 -66.465)" fill="#263238"/>
      <path id="Path_1337" data-name="Path 1337" d="M245.99,100.788a1.579,1.579,0,0,1-.852-.2,1.115,1.115,0,0,1-.455-.574,2.56,2.56,0,0,1-.134-.881v-1.9a2.517,2.517,0,0,1,.134-.876,1.086,1.086,0,0,1,.455-.555,2.015,2.015,0,0,1,1.713,0,1.086,1.086,0,0,1,.455.555,2.393,2.393,0,0,1,.139.876v1.914a2.435,2.435,0,0,1-.139.876,1.12,1.12,0,0,1-.455.569,1.594,1.594,0,0,1-.861.2Zm0-.68a.479.479,0,0,0,.34-.1.541.541,0,0,0,.148-.273,1.884,1.884,0,0,0,.033-.378V97.036a1.872,1.872,0,0,0-.033-.383.531.531,0,0,0-.148-.263.632.632,0,0,0-.67,0,.479.479,0,0,0-.148.263,1.851,1.851,0,0,0-.038.383v2.321a2.314,2.314,0,0,0,.033.378.426.426,0,0,0,.483.368Z" transform="translate(-135.84 -66.452)" fill="#263238"/>
      <path id="Path_1338" data-name="Path 1338" d="M252,100.787V95.748h1.187a2.268,2.268,0,0,1,.957.167,1.015,1.015,0,0,1,.479.517,2.346,2.346,0,0,1,.144.885V99.16a2.5,2.5,0,0,1-.144.909,1,1,0,0,1-.479.541,2.005,2.005,0,0,1-.928.177Zm.919-.641h.282a.713.713,0,0,0,.455-.11.479.479,0,0,0,.168-.325,4.089,4.089,0,0,0,.029-.526V97.27a2.263,2.263,0,0,0-.043-.479.412.412,0,0,0-.177-.273.88.88,0,0,0-.445-.086h-.268Z" transform="translate(-139.727 -66.523)" fill="#263238"/>
      <path id="Path_1339" data-name="Path 1339" d="M259.26,100.789V95.75h2.115V96.4h-1.2v1.436h.957v.641h-.957v1.7h1.211v.632Z" transform="translate(-143.513 -66.525)" fill="#263238"/>
    </g>
    <g id="freepik--Arrow--inject-24" transform="translate(157.754 19.504)">
      <path id="Path_1340" data-name="Path 1340" d="M401.529,44.943a.239.239,0,0,1-.239-.239V42.311a.239.239,0,1,1,.479,0V44.7A.239.239,0,0,1,401.529,44.943Zm0-4.786a.239.239,0,0,1-.239-.239V37.526a.239.239,0,1,1,.479,0v2.393A.239.239,0,0,1,401.529,40.158Zm0-4.786a.239.239,0,0,1-.239-.239V32.74a.239.239,0,1,1,.479,0v2.393A.239.239,0,0,1,401.529,35.372Zm0-4.786a.239.239,0,0,1-.239-.239V27.955a.239.239,0,1,1,.479,0v2.393A.239.239,0,0,1,401.529,30.587Zm0-4.786a.239.239,0,0,1-.239-.239V23.169a.239.239,0,1,1,.479,0v2.393A.239.239,0,0,1,401.529,25.8Z" transform="translate(-360.384 -22.93)" fill="#263238"/>
      <path id="Path_1341" data-name="Path 1341" d="M349.525,188.356h-2.168a.239.239,0,0,1-.239-.239.244.244,0,0,1,.239-.239h2.393a.239.239,0,0,1,0,.479Zm-4.561,0h-2.393a.239.239,0,0,1-.239-.239.244.244,0,0,1,.239-.239h2.393a.239.239,0,1,1-.014.479Zm-4.786,0h-2.393a.239.239,0,0,1-.239-.239.244.244,0,0,1,.239-.239h2.393a.239.239,0,1,1-.014.479Zm-4.785,0H333a.239.239,0,0,1-.239-.239.244.244,0,0,1,.239-.239h2.393a.239.239,0,1,1-.014.479Zm-4.786,0h-2.393a.239.239,0,0,1-.239-.239.244.244,0,0,1,.239-.239h2.393a.239.239,0,1,1-.014.479Zm-4.786,0h-1.273a.239.239,0,0,1-.239-.239.244.244,0,0,1,.239-.239h1.273a.239.239,0,1,1-.014.479Zm26.32-.282a.241.241,0,0,1-.053-.479,11.406,11.406,0,0,0,2.221-.737.235.235,0,0,1,.316.12.239.239,0,0,1-.12.316,12.025,12.025,0,0,1-2.311.77Zm4.336-1.948a.239.239,0,0,1-.144-.431,12.048,12.048,0,0,0,1.756-1.551.239.239,0,0,1,.349.321,12.212,12.212,0,0,1-1.823,1.617.249.249,0,0,1-.172.043Zm3.225-3.489a.23.23,0,0,1-.124-.033.244.244,0,0,1-.081-.33,11.7,11.7,0,0,0,1.01-2.11.235.235,0,0,1,.306-.144.239.239,0,0,1,.144.306,12.163,12.163,0,0,1-1.048,2.2.239.239,0,0,1-.239.115Zm1.6-4.474h-.038a.244.244,0,0,1-.2-.273,11.914,11.914,0,0,0,.115-1.651v-.7a.239.239,0,0,1,.479,0v.7a12.105,12.105,0,0,1-.12,1.718.239.239,0,0,1-.268.206Zm.115-4.786a.244.244,0,0,1-.239-.239v-2.393a.239.239,0,1,1,.479,0v2.393a.239.239,0,0,1-.273.249Zm0-4.785a.244.244,0,0,1-.239-.239V165.96a.239.239,0,1,1,.479,0v2.393a.239.239,0,0,1-.273.249Zm0-4.786a.244.244,0,0,1-.239-.239v-2.393a.239.239,0,1,1,.479,0v2.393a.239.239,0,0,1-.273.249Zm0-4.785a.244.244,0,0,1-.239-.239v-2.393a.239.239,0,0,1,.479,0v2.393a.239.239,0,0,1-.273.249Z" transform="translate(-320.242 -92.397)" fill="#263238"/>
      <path id="Path_1342" data-name="Path 1342" d="M320.978,216.72,315.81,219.7l5.168,2.986Z" transform="translate(-315.81 -123.982)" fill="#263238"/>
    </g>
    <g id="freepik--Envelope--inject-24" transform="translate(174.171 42.006)">
      <rect id="Rectangle_623" data-name="Rectangle 623" width="43.357" height="31.039" transform="matrix(0.979, 0.202, -0.202, 0.979, 8.736, 3.109)" fill="#263238"/>
      <rect id="Rectangle_624" data-name="Rectangle 624" width="43.357" height="31.039" transform="matrix(0.979, 0.202, -0.202, 0.979, 6.537, 0.279)" fill="#fff"/>
      <path id="Path_1343" data-name="Path 1343" d="M393.076,109.646l-42.936-8.834.048-.234L356.5,69.95l42.936,8.829-.048.234ZM350.7,100.438l42,8.643,6.183-29.929L356.864,70.51Z" transform="translate(-350.14 -69.95)" fill="#263238"/>
      <path id="Path_1344" data-name="Path 1344" d="M381.626,90.048a.249.249,0,0,1-.177-.077L363.346,70.4a.239.239,0,1,1,.349-.321l17.989,19.444,24.205-10.763a.239.239,0,0,1,.316.12.235.235,0,0,1-.12.316L381.722,90.029A.215.215,0,0,1,381.626,90.048Z" transform="translate(-356.981 -69.963)" fill="#263238"/>
    </g>
    <g id="freepik--Character--inject-24" transform="translate(90.533 132.344)">
      <path id="Path_1345" data-name="Path 1345" d="M277.3,396.641s-8.3-11.083-18.654-18.74-19.238-10.815-21.678-10.083a12.143,12.143,0,0,0-4.58,3.087l-28.938,29.058s-9.547,7.537-10.6,8.2-5.982,3.733-9,4.68-7.963.8-7.987,1.718.641,1.627,2.115,2.249a27.426,27.426,0,0,0,8.576,1.866,28.963,28.963,0,0,1,6.647.89c1.029.258,3.982,1.613,4.7.479s1.723-7.657,1.972-8.341,9.423-7.312,15.845-10.456,14.285-8.317,16.548-10.782,5.594-6.274,5.594-6.274,10.294,9.739,13.84,14.333,9.241,10.284,19.568,15.079,14.127.885,14.835-3.01S277.3,396.641,277.3,396.641Z" transform="translate(-175.624 -315.111)" fill="#fff"/>
      <path id="Path_1346" data-name="Path 1346" d="M196.569,420.454a9.98,9.98,0,0,1-2.871-.675c-.33-.11-.613-.206-.809-.258a29.189,29.189,0,0,0-6.594-.881,27.359,27.359,0,0,1-8.662-1.885c-1.574-.66-2.3-1.436-2.264-2.479,0-.684,1.192-.857,3.632-1.144a26.327,26.327,0,0,0,4.522-.794,46.517,46.517,0,0,0,8.944-4.652c1.034-.646,10.485-8.111,10.581-8.183l28.914-29.053a12.382,12.382,0,0,1,4.68-3.149c2.474-.756,11.423,2.393,21.884,10.117,10.126,7.5,18.391,18.367,18.7,18.774.507.536,9.542,10.212,8.844,14.151a6.264,6.264,0,0,1-3.225,4.623c-2.761,1.436-6.771.957-11.93-1.436-8.351-3.881-14.782-8.834-19.659-15.151-3.235-4.192-12.246-12.816-13.634-14.136-.7.8-3.484,3.967-5.436,6.092-2.35,2.565-10.27,7.729-16.615,10.839-6.465,3.163-15.352,9.624-15.725,10.332-.072.2-.244,1.082-.44,2.106-.44,2.311-1.043,5.475-1.555,6.274a1.436,1.436,0,0,1-1.278.57Zm41.021-52.775a2.839,2.839,0,0,0-.814.1,12.064,12.064,0,0,0-4.47,3.015l-28.948,29.062c-.412.325-9.571,7.575-10.643,8.231a46.591,46.591,0,0,1-9.054,4.709,26.827,26.827,0,0,1-4.608.809c-1.2.144-3.2.383-3.211.684-.024.809.6,1.436,1.972,2.024a26.918,26.918,0,0,0,8.49,1.847,29.4,29.4,0,0,1,6.7.895c.22.057.512.153.847.268,1.168.4,3.12,1.062,3.6.321s1.082-3.962,1.488-6.106a18.171,18.171,0,0,1,.479-2.187c.325-.881,9.758-7.552,15.964-10.59s14.2-8.25,16.477-10.729,5.556-6.221,5.589-6.274a.235.235,0,0,1,.168-.081.22.22,0,0,1,.177.062c.105.1,10.351,9.81,13.878,14.357,4.829,6.255,11.2,11.165,19.487,15.007,4.939,2.3,8.92,2.795,11.485,1.436a5.891,5.891,0,0,0,2.977-4.283c.66-3.733-8.614-13.648-8.729-13.749h0c-.081-.115-8.4-11.126-18.606-18.664C248.889,370.871,240.753,367.679,237.59,367.679Z" transform="translate(-175.368 -314.838)" fill="#263238"/>
      <path id="Path_1347" data-name="Path 1347" d="M289.076,377.9c-10.361-7.657-19.238-10.815-21.678-10.083a12.142,12.142,0,0,0-4.58,3.087l-28.6,28.713a9.443,9.443,0,0,0,5.264,5.446,73.706,73.706,0,0,1,6.676-3.828c6.422-3.149,14.285-8.322,16.548-10.787s5.594-6.274,5.594-6.274,10.294,9.739,13.84,14.333,13.155,17.453,24.167,20.348c20.267,5.336,19.578-5,20.267-8.891s-18.836-13.337-18.836-13.337S299.432,385.558,289.076,377.9Z" transform="translate(-206.056 -315.111)" fill="#263238"/>
      <path id="Path_1348" data-name="Path 1348" d="M315.779,420.3a39.241,39.241,0,0,1-9.786-1.5c-10.739-2.823-19.989-14.835-23.928-19.97l-.354-.479c-3.235-4.192-12.246-12.816-13.634-14.136-.7.8-3.484,3.967-5.436,6.092-2.35,2.565-10.27,7.729-16.615,10.839a73.52,73.52,0,0,0-6.657,3.8.235.235,0,0,1-.225,0,9.623,9.623,0,0,1-5.379-5.58.239.239,0,0,1,.057-.249l28.6-28.713a12.383,12.383,0,0,1,4.68-3.149c2.474-.756,11.423,2.393,21.884,10.117h0c9.925,7.355,18.065,17.946,18.663,18.74,2.244,1.086,19.621,9.648,18.917,13.572-.062.34-.11.727-.163,1.144-.292,2.278-.732,5.709-3.742,7.743A12.111,12.111,0,0,1,315.779,420.3Zm-47.731-36.647a.253.253,0,0,1,.163.062c.105.1,10.351,9.81,13.878,14.357l.359.479c3.919,5.092,13.1,17.017,23.679,19.8,7.657,2.02,13.151,1.976,16.271-.129,2.828-1.914,3.235-5.087,3.532-7.4.057-.431.105-.823.167-1.168.541-3.048-13.318-10.48-18.707-13.084a.311.311,0,0,1-.086-.072c-.081-.115-8.4-11.126-18.606-18.663h0c-10.337-7.657-19.109-10.753-21.468-10.05a11.924,11.924,0,0,0-4.47,3.015l-28.507,28.584a9.231,9.231,0,0,0,4.958,5.111,73.377,73.377,0,0,1,6.59-3.757c6.192-3.034,14.2-8.25,16.477-10.729s5.556-6.221,5.589-6.274a.234.234,0,0,1,.168-.081Z" transform="translate(-205.812 -314.817)" fill="#263238"/>
      <path id="Path_1349" data-name="Path 1349" d="M175.859,458.633c-.029.919.641,1.627,2.115,2.249a27.425,27.425,0,0,0,8.576,1.866,28.963,28.963,0,0,1,6.647.89c1.029.258,3.982,1.613,4.7.479.622-.957,1.436-5.929,1.828-7.733a20.469,20.469,0,0,1-6.738-1.273,6.7,6.7,0,0,0-.144-2.871c-1.058.66-5.982,3.733-9,4.68S175.883,457.715,175.859,458.633Z" transform="translate(-175.623 -359.186)" fill="#fff"/>
      <path id="Path_1350" data-name="Path 1350" d="M196.569,464.548a9.98,9.98,0,0,1-2.871-.675c-.33-.11-.613-.206-.809-.258a29.194,29.194,0,0,0-6.594-.881,27.357,27.357,0,0,1-8.662-1.885c-1.574-.66-2.3-1.436-2.264-2.479h0c0-.684,1.192-.857,3.632-1.144a26.324,26.324,0,0,0,4.522-.794,46.524,46.524,0,0,0,8.944-4.652.249.249,0,0,1,.225,0,.239.239,0,0,1,.139.177,8.528,8.528,0,0,1,.182,2.771,19.869,19.869,0,0,0,6.456,1.187.239.239,0,0,1,.191.081.23.23,0,0,1,.048.206c-.081.392-.182.928-.3,1.541-.44,2.311-1.043,5.475-1.555,6.274a1.435,1.435,0,0,1-1.283.531Zm-20.726-6.164c-.024.809.6,1.436,1.972,2.024a26.952,26.952,0,0,0,8.489,1.847,29.4,29.4,0,0,1,6.7.895c.22.057.512.153.847.268,1.168.4,3.12,1.062,3.6.321s1.082-3.962,1.488-6.1c.091-.479.172-.909.244-1.259a20.99,20.99,0,0,1-6.527-1.292.239.239,0,0,1-.144-.3,6.256,6.256,0,0,0-.086-2.422,45.363,45.363,0,0,1-8.757,4.522,26.833,26.833,0,0,1-4.608.809c-1.2.144-3.2.383-3.211.684Z" transform="translate(-175.368 -358.933)" fill="#263238"/>
      <path id="Path_1351" data-name="Path 1351" d="M406.734,297.054A69.687,69.687,0,0,1,393.521,281.4c-4.307-7.341-3.13-9.686-6.36-15.462s-7.925-8.614-14.29-7.341a13.847,13.847,0,0,0-8.614,5.264c-.187.254-.373.479-.574.737-.928,1.086-3.867,5.116-6.063,14.553-2.646,11.351-2.546,16.926,1.464,19.568s6.853,1.469,8.025,2.742,1.565,2.838.589,2.838a1.962,1.962,0,0,1-1.469-.589s2.249,3.426,4.4,2.445,4.6-4.5,3.034-9.2-5.771-9.49-6.46-10.37-2.053-11.059-2.053-11.059.1-3.426,3.915-2.249,9,3.326,10.667,6.752,7.829,11.155,13.208,13.5,7.537,4.5,9.494,10.279,1.957,7.628,1.957,7.628a9.1,9.1,0,0,0,4.786-6.063C409.954,301.165,409.471,299.5,406.734,297.054Zm-47.266.191c-1.857-2.053-.684-5.771-.684-5.771-.589,5.264,5.479,8.221,5.479,8.221A8.73,8.73,0,0,1,359.467,297.246Z" transform="translate(-269.465 -258.053)" fill="#263238"/>
      <path id="Path_1352" data-name="Path 1352" d="M404.107,311.412a.23.23,0,0,1-.239-.234s-.034-1.914-1.948-7.556-3.9-7.753-9.36-10.136-11.7-10.231-13.328-13.62-6.6-5.422-10.528-6.628a2.994,2.994,0,0,0-2.67.139,2.661,2.661,0,0,0-.933,1.89c.526,3.871,1.536,10.3,2.005,10.906l.345.431c1.3,1.584,4.747,5.8,6.154,10.011,1.608,4.829-.885,8.456-3.163,9.494s-4.608-2.393-4.7-2.536a.239.239,0,0,1,.383-.282,1.737,1.737,0,0,0,1.287.5c.187,0,.249-.077.278-.144.167-.383-.211-1.393-1.043-2.292-.435-.479-1.168-.569-2.182-.7a12.442,12.442,0,0,1-5.8-2.005c-3.958-2.608-4.369-7.8-1.57-19.826,2.22-9.542,5.264-13.629,6.116-14.653.177-.206.354-.435.56-.718a14.148,14.148,0,0,1,8.777-5.36c6.188-1.235,11.083,1.273,14.543,7.461a27.9,27.9,0,0,1,2.637,6.638,33.466,33.466,0,0,0,3.709,8.82,70.663,70.663,0,0,0,13.179,15.6c2.8,2.5,3.316,4.259,2.522,8.542a9.147,9.147,0,0,1-4.929,6.221A.25.25,0,0,1,404.107,311.412Zm.239-.239Zm-37.016-38.648a5.173,5.173,0,0,1,1.522.258c4.005,1.235,9.136,3.426,10.81,6.877,1.6,3.307,7.657,11.007,13.088,13.4,5.613,2.445,7.681,4.685,9.624,10.418a38.289,38.289,0,0,1,1.943,7.322,8.805,8.805,0,0,0,4.35-5.743c.766-4.125.3-5.714-2.393-8.1a69.6,69.6,0,0,1-13.256-15.716,33.82,33.82,0,0,1-3.771-8.93,27.276,27.276,0,0,0-2.594-6.537c-3.35-5.982-8.068-8.413-14.031-7.217a13.614,13.614,0,0,0-8.48,5.164c-.211.3-.4.536-.584.751-.857,1-3.828,5.01-6.015,14.452-2.742,11.791-2.393,16.845,1.369,19.314a12.016,12.016,0,0,0,5.594,1.914,3.875,3.875,0,0,1,2.474.847c.924,1,1.4,2.182,1.125,2.809a.722.722,0,0,1-.713.431,2.5,2.5,0,0,1-.56-.062c.794.885,2.134,2.034,3.393,1.464,2.12-.957,4.422-4.364,2.91-8.906-1.378-4.135-4.786-8.3-6.068-9.863-.158-.191-.278-.34-.354-.44-.7-.9-1.962-10.121-2.1-11.169a3.086,3.086,0,0,1,1.125-2.307A2.652,2.652,0,0,1,367.331,272.525Zm-3.35,27.148h-.034a8.79,8.79,0,0,1-4.939-2.522h0c-1.914-2.13-.785-5.848-.737-6.006a.239.239,0,0,1,.278-.163.249.249,0,0,1,.191.263c-.565,5.049,5.264,7.949,5.345,7.977a.236.236,0,0,1-.1.45Zm-4.618-2.847a7.618,7.618,0,0,0,3.12,1.972,9.7,9.7,0,0,1-4.1-5.427,4.857,4.857,0,0,0,.957,3.455Z" transform="translate(-269.189 -257.791)" fill="#263238"/>
      <path id="Path_1353" data-name="Path 1353" d="M335.2,428.4s-12.993-2.3-16.213-1.148-11.615,14.95-13.112,16.558a6.324,6.324,0,0,1-4.484,2.3c-1.378,0-6.326-.919-9.2-.345s-6.441,2.417-6.092,4.139,1.952,2.532,7.245,3.35a23.364,23.364,0,0,0,12.418-1.957c1.493-.809,3.221-1.952,3.68-2.182s4.6-1.153,6.9-2.646a39.873,39.873,0,0,0,4.829-3.91s9.777,4.484,13.457,6.441a32.106,32.106,0,0,0,12.653,3.221c3.221,0,10.236-.924,11.964-1.728s4.943-3.91,4.943-7.47.383-8.542-.79-8.758-2.2.249-3.35.134-7.48-3.68-9.092-4.374S335.2,428.4,335.2,428.4Z" transform="translate(-233.093 -345.985)" fill="#263238"/>
      <path id="Path_1354" data-name="Path 1354" d="M295.718,453.428a17.308,17.308,0,0,1-2.675-.2c-5.326-.809-7.063-1.632-7.441-3.522s3.465-3.857,6.279-4.422a27.553,27.553,0,0,1,7.288.163c.876.1,1.57.177,1.962.177a6.124,6.124,0,0,0,4.307-2.225,44.8,44.8,0,0,0,2.7-3.828c3.24-4.785,8.135-11.964,10.5-12.811,3.221-1.153,15.629,1.015,16.323,1.134.747.048,14.2.957,15.826,1.627.579.254,1.742.857,3.091,1.56a41.679,41.679,0,0,0,5.924,2.795,6.222,6.222,0,0,0,1.484-.086,5.742,5.742,0,0,1,1.885-.043c1.067.191,1.1,2.694,1.014,6.786,0,.756-.029,1.507-.029,2.206,0,3.714-3.35,6.891-5.087,7.69s-8.777,1.752-12.059,1.752a32.34,32.34,0,0,1-12.763-3.249c-3.388-1.8-12.064-5.8-13.3-6.369a39.037,39.037,0,0,1-4.747,3.828,25.515,25.515,0,0,1-5.987,2.364c-.45.134-.837.244-.933.3-.177.086-.565.325-1.058.632-.727.45-1.718,1.062-2.618,1.546A23.294,23.294,0,0,1,295.718,453.428Zm-1.464-7.853a11.873,11.873,0,0,0-2.278.182c-2.972.593-6.2,2.393-5.905,3.857.325,1.641,1.972,2.393,7.044,3.149a23.729,23.729,0,0,0,12.27-1.914c.89-.479,1.876-1.086,2.594-1.531.522-.325.9-.56,1.1-.656a9.08,9.08,0,0,1,1.015-.325,24.281,24.281,0,0,0,5.862-2.307,40.223,40.223,0,0,0,4.786-3.881A.244.244,0,0,1,321,442.1c.1.048,9.825,4.513,13.471,6.451a32.058,32.058,0,0,0,12.538,3.192c3.245,0,10.169-.914,11.859-1.7s4.809-3.757,4.809-7.26c0-.7,0-1.436.029-2.216.048-2.46.12-6.173-.622-6.307a5.3,5.3,0,0,0-1.737.048,6.485,6.485,0,0,1-1.594.086c-.727-.072-3.091-1.278-6.1-2.847-1.335-.694-2.488-1.3-3.058-1.541-1.244-.531-10.8-1.273-15.677-1.589h-.024c-.129,0-12.969-2.273-16.094-1.158-2.22.79-7.26,8.2-10.27,12.629-1.287,1.914-2.307,3.388-2.747,3.867a6.609,6.609,0,0,1-4.661,2.393c-.416,0-1.125-.081-2.015-.177A45.485,45.485,0,0,0,294.254,445.575Z" transform="translate(-232.836 -345.726)" fill="#263238"/>
      <path id="Path_1355" data-name="Path 1355" d="M346.428,431.176a.258.258,0,0,1-.163-.057.244.244,0,0,1,0-.34,49.03,49.03,0,0,1,3.943-4.125c1.469-1.182,11.174-.1,12.28.029a.239.239,0,0,1,.211.263.244.244,0,0,1-.268.211c-4.245-.479-10.93-.928-11.925-.129a45.261,45.261,0,0,0-3.881,4.068.23.23,0,0,1-.2.081Z" transform="translate(-264.446 -345.559)" fill="#fff"/>
      <path id="Path_1356" data-name="Path 1356" d="M342.161,439.549a.239.239,0,0,1-.182-.392s.479-.579,1.206-1.4a.241.241,0,1,1,.364.316c-.713.814-1.206,1.393-1.206,1.393A.249.249,0,0,1,342.161,439.549Z" transform="translate(-262.218 -351.592)" fill="#fff"/>
      <path id="Path_1357" data-name="Path 1357" d="M305.523,463a6.107,6.107,0,0,1-4.135,1.952c-1.383,0-6.326-.919-9.2-.345s-6.441,2.417-6.092,4.139,1.952,2.532,7.245,3.35a23.365,23.365,0,0,0,12.418-1.957c1.493-.809,3.13-1.914,3.642-2.163A7.37,7.37,0,0,1,305.523,463Z" transform="translate(-233.093 -364.797)" fill="#fff"/>
      <path id="Path_1358" data-name="Path 1358" d="M295.718,472.224a17.308,17.308,0,0,1-2.675-.2c-5.326-.809-7.063-1.632-7.441-3.522s3.465-3.857,6.279-4.422a27.553,27.553,0,0,1,7.288.163c.876.1,1.57.177,1.962.177a5.9,5.9,0,0,0,3.967-1.885.249.249,0,0,1,.234-.057.239.239,0,0,1,.167.168,7.169,7.169,0,0,0,3.742,4.809.239.239,0,0,1,0,.431c-.191.1-.56.325-1.024.613-.723.45-1.713,1.062-2.613,1.546A23.6,23.6,0,0,1,295.718,472.224Zm-1.464-7.853a11.88,11.88,0,0,0-2.278.182c-2.972.593-6.2,2.393-5.905,3.857.325,1.641,1.972,2.393,7.044,3.149a23.729,23.729,0,0,0,12.27-1.914c.89-.479,1.871-1.086,2.594-1.531.254-.158.479-.3.66-.407a7.628,7.628,0,0,1-3.5-4.537,6.173,6.173,0,0,1-4.01,1.751c-.416,0-1.125-.081-2.015-.177A45.472,45.472,0,0,0,294.254,464.371Z" transform="translate(-232.836 -364.522)" fill="#263238"/>
      <path id="Path_1359" data-name="Path 1359" d="M301.733,468.885c-.555-.9.062-1.914.641-2.531a4.5,4.5,0,0,1-.986.115c-1.383,0-6.326-.919-9.2-.345s-6.441,2.417-6.092,4.139,1.952,2.531,7.245,3.35a23.365,23.365,0,0,0,12.418-1.957c.23-.12.479-.254.7-.388C305,471.053,302.537,470.187,301.733,468.885Z" transform="translate(-233.093 -366.328)" fill="#fff"/>
      <path id="Path_1360" data-name="Path 1360" d="M295.718,473.769a17.3,17.3,0,0,1-2.675-.2c-5.326-.809-7.063-1.632-7.441-3.522s3.465-3.857,6.279-4.422a27.552,27.552,0,0,1,7.288.163c.876.1,1.57.177,1.962.177a4.238,4.238,0,0,0,.933-.11.239.239,0,0,1,.258.115.23.23,0,0,1-.029.278c-.541.6-1.086,1.479-.613,2.244h0c.747,1.22,3.158,2.067,4.551,2.259a.239.239,0,0,1,.2.191.244.244,0,0,1-.115.254c-.239.139-.479.268-.7.392A23.7,23.7,0,0,1,295.718,473.769Zm-1.464-7.853a11.878,11.878,0,0,0-2.278.182c-2.972.593-6.2,2.393-5.905,3.857.325,1.641,1.972,2.393,7.044,3.149a23.729,23.729,0,0,0,12.27-1.914l.12-.062c-1.512-.34-3.508-1.177-4.235-2.359a2.023,2.023,0,0,1,.273-2.321,4.024,4.024,0,0,1-.412,0c-.416,0-1.125-.081-2.015-.177A45.484,45.484,0,0,0,294.254,465.916Z" transform="translate(-232.836 -366.067)" fill="#263238"/>
      <path id="Path_1361" data-name="Path 1361" d="M381.5,330.122s-9.006.1-9.983,3.522-.1,20.257-.2,25.842-.1,9.2.589,10.571,4.695,3.915,4.991,4.01-.1,3.13-.1,3.13,6.949.881,10.863.981,7.437,1.565,11.055,4.4,5.972,4.695,5.972,4.695l2.249-2.445a121.318,121.318,0,0,0,1.862,12.136,5.133,5.133,0,0,0,5.264,4.01c.957,0,4.207-.1,4.207-.1a86.367,86.367,0,0,1-4.5-9.691c-1.373-3.915-2.249-7.24-2.249-7.24a6.811,6.811,0,0,0,.684-3.422c0-2.345-.479-3.718-.388-6.068s4.307-12.624,2.541-24.071-1.172-14.682-5.479-16.931-13.7-3.623-16.342-3.828S381.5,330.122,381.5,330.122Z" transform="translate(-277.409 -295.231)" fill="#f51d46"/>
      <path id="Path_1362" data-name="Path 1362" d="M413.849,400.961a5.376,5.376,0,0,1-5.518-4.192,115.177,115.177,0,0,1-1.809-11.643l-1.89,2.058a.239.239,0,0,1-.325.029s-2.35-1.862-5.968-4.7-7.14-4.254-10.916-4.35c-3.886-.1-10.82-.957-10.887-.981a.253.253,0,0,1-.158-.091.22.22,0,0,1-.048-.177,14.879,14.879,0,0,0,.177-2.91c-.651-.34-4.345-2.694-5.049-4.1s-.708-5.164-.613-10.681c.029-1.761-.034-4.6-.11-7.887-.163-6.963-.364-15.629.316-18.008,1.01-3.532,9.715-3.69,10.2-3.694s8.475-.68,11.088-.479c2.331.172,11.964,1.512,16.433,3.828,3.551,1.852,3.881,4.379,4.785,11.131.225,1.718.479,3.666.837,5.972,1.33,8.667-.756,16.749-1.876,21.056a20.07,20.07,0,0,0-.665,3.044,18,18,0,0,0,.182,3.2,23.224,23.224,0,0,1,.206,2.871,7.561,7.561,0,0,1-.665,3.455c.153.569,1,3.632,2.22,7.13a84.95,84.95,0,0,0,4.484,9.652.239.239,0,0,1,0,.234.234.234,0,0,1-.2.12C418.022,400.846,414.806,400.961,413.849,400.961Zm-7.154-16.625a.217.217,0,0,1,.077,0,.239.239,0,0,1,.163.2,119.605,119.605,0,0,0,1.852,12.1,4.834,4.834,0,0,0,5.054,3.828c.761,0,2.929-.057,3.828-.086a82.753,82.753,0,0,1-4.336-9.38c-1.354-3.876-2.244-7.226-2.254-7.26a.235.235,0,0,1,.029-.187,6.789,6.789,0,0,0,.646-3.3,22.445,22.445,0,0,0-.206-2.8,19.02,19.02,0,0,1-.182-3.278,19.617,19.617,0,0,1,.68-3.144c1.11-4.307,3.182-12.313,1.866-20.884-.354-2.307-.613-4.259-.842-5.982-.885-6.757-1.187-9.03-4.513-10.772-4.388-2.292-13.935-3.618-16.271-3.79-2.594-.191-10.94.479-11.007.479h0c-.086,0-8.834.134-9.753,3.35-.66,2.3-.479,10.93-.3,17.864.077,3.292.139,6.135.11,7.906-.091,5.264-.105,9.121.56,10.456s4.484,3.747,4.857,3.9c.172.057.479.153.091,3.149,1.254.153,7.15.861,10.6.957,3.886.1,7.446,1.512,11.2,4.455,3.048,2.393,5.192,4.077,5.8,4.561l2.1-2.288a.249.249,0,0,1,.153-.053Zm-30.149-10.3Zm4.695-44.156Z" transform="translate(-277.159 -294.986)" fill="#263238"/>
      <path id="Path_1363" data-name="Path 1363" d="M367.185,295.248a6.43,6.43,0,0,1-.526-1.728,50.558,50.558,0,0,1-4.4-8.657c-.742-2.551-.172-7.4.215-9.954-1.326,2.106-3.3,6.1-4.876,12.921-2.646,11.351-2.546,16.926,1.464,19.568s6.853,1.469,8.025,2.742,1.565,2.838.589,2.838a1.962,1.962,0,0,1-1.469-.589s2.249,3.426,4.4,2.445,4.6-4.5,3.034-9.2S367.86,296.129,367.185,295.248Zm-7.729,10.662c-1.857-2.053-.684-5.771-.684-5.771-.589,5.264,5.479,8.221,5.479,8.221A8.729,8.729,0,0,1,359.457,305.911Z" transform="translate(-269.455 -266.718)" fill="#263238"/>
      <path id="Path_1364" data-name="Path 1364" d="M369.537,314.973c-1.967,0-3.7-2.6-3.79-2.733a.239.239,0,0,1,.383-.282,1.737,1.737,0,0,0,1.287.5c.187,0,.249-.077.278-.144.167-.383-.211-1.393-1.043-2.292-.436-.479-1.168-.569-2.182-.7a12.443,12.443,0,0,1-5.8-2.005c-3.958-2.608-4.369-7.8-1.57-19.826,1.579-6.781,3.541-10.8,4.905-12.969a.239.239,0,0,1,.44.163c-.392,2.608-.957,7.36-.22,9.849a50.2,50.2,0,0,0,4.374,8.614.249.249,0,0,1,.029.072,5.522,5.522,0,0,0,.479,1.627h0l.345.431c1.3,1.584,4.747,5.8,6.154,10.011,1.608,4.829-.885,8.456-3.163,9.494A2.187,2.187,0,0,1,369.537,314.973Zm-2.68-2.1c.794.885,2.134,2.034,3.393,1.464,2.12-.957,4.422-4.364,2.91-8.906-1.378-4.135-4.785-8.3-6.068-9.863-.158-.191-.278-.34-.354-.44h0a5.077,5.077,0,0,1-.565-1.78,51.374,51.374,0,0,1-4.4-8.681c-.646-2.23-.321-6.135.038-8.868a46.426,46.426,0,0,0-4.24,11.8c-2.742,11.792-2.393,16.845,1.369,19.314a12.017,12.017,0,0,0,5.594,1.914,3.875,3.875,0,0,1,2.474.847c.924,1,1.4,2.182,1.125,2.809a.723.723,0,0,1-.713.431,2.5,2.5,0,0,1-.56-.043Zm-2.871-4.537h-.034a8.79,8.79,0,0,1-4.939-2.522h0c-1.914-2.13-.785-5.848-.737-6.006a.239.239,0,0,1,.278-.163.249.249,0,0,1,.191.263c-.565,5.049,5.264,7.949,5.345,7.977a.236.236,0,0,1-.1.45Zm-4.618-2.847a7.658,7.658,0,0,0,3.115,1.967,9.682,9.682,0,0,1-4.092-5.422,4.857,4.857,0,0,0,.957,3.455Z" transform="translate(-269.194 -266.458)" fill="#263238"/>
      <path id="Path_1365" data-name="Path 1365" d="M421.417,425.6h-.034l-2.795-.4a.239.239,0,0,1,.067-.474l2.795.4a.24.24,0,0,1-.034.479Z" transform="translate(-302.089 -344.839)" fill="#263238"/>
      <path id="Path_1366" data-name="Path 1366" d="M397.858,408.5h-.038c-9.538-1.393-14.61-2.235-15.065-2.5-.857-.479.268-8.064,1.015-12.533a.242.242,0,1,1,.479.077c-.924,5.518-1.632,11.538-1.23,12.059.177.091,2.029.546,14.878,2.421a.24.24,0,0,1-.034.479Z" transform="translate(-283.349 -328.433)" fill="#263238"/>
      <path id="Path_1367" data-name="Path 1367" d="M382.838,424.678H382.8a.235.235,0,0,1-.172-.287l.957-4a.244.244,0,0,1,.292-.177.234.234,0,0,1,.172.287l-.957,4A.239.239,0,0,1,382.838,424.678Z" transform="translate(-283.441 -342.483)" fill="#263238"/>
      <path id="Path_1368" data-name="Path 1368" d="M440.738,439.71a12.246,12.246,0,0,1-3.029-.6c-2.871-.828-8.781-2.847-8.844-2.871a.241.241,0,0,1,.158-.455c.057.024,5.934,2.039,8.815,2.871,2.618.747,3.149.565,3.168.555a.22.22,0,0,1,.316.062.258.258,0,0,1-.067.345A.957.957,0,0,1,440.738,439.71Z" transform="translate(-307.47 -350.599)" fill="#263238"/>
      <path id="Path_1369" data-name="Path 1369" d="M412.681,350.327a.215.215,0,0,1-.12-.033l-4.412-2.5a.239.239,0,0,1,.234-.416l4.068,2.311.11-3.307a.23.23,0,0,1,.244-.23.239.239,0,0,1,.234.249l-.12,3.7a.254.254,0,0,1-.124.2A.239.239,0,0,1,412.681,350.327Z" transform="translate(-296.694 -303.865)" fill="#263238"/>
      <path id="Path_1370" data-name="Path 1370" d="M393.921,348.752a.239.239,0,0,1-.148-.426l.837-.66a.239.239,0,1,1,.292.378l-.833.656A.244.244,0,0,1,393.921,348.752Z" transform="translate(-289.208 -304.625)" fill="#263238"/>
      <path id="Path_1371" data-name="Path 1371" d="M384.006,362.357a.239.239,0,0,1-.239-.234l-.057-2.263a.239.239,0,0,1,.23-.249h0a.244.244,0,0,1,.239.235l.057,2.268a.239.239,0,0,1-.234.244Z" transform="translate(-284.007 -310.884)" fill="#263238"/>
      <path id="Path_1372" data-name="Path 1372" d="M374.436,283.88s-5.106,4.455-5.106,5.661,1.67,6.5,2.321,8.638a17.227,17.227,0,0,0,3.714,6.125c1.483,1.579,4.364,3.436,5.015,3.436a3.829,3.829,0,0,0,1.484-.479s.373,7.614,1.67,10.308,1.952,2.6,2.23,1.948,3.714-11.882,3.714-11.882l1.67-7.987-3.527-9.092s-4.919-4.364-8.265-5.479A21.356,21.356,0,0,0,374.436,283.88Z" transform="translate(-276.509 -271.395)" fill="#fff"/>
      <path id="Path_1373" data-name="Path 1373" d="M385.037,319.887c-.354,0-.957-.273-2.01-2.465-1.158-2.393-1.579-8.475-1.675-10.05a3.383,3.383,0,0,1-1.263.33c-.814,0-3.771-2-5.187-3.508a17.4,17.4,0,0,1-3.771-6.221l-.254-.828c-.78-2.532-2.077-6.767-2.077-7.877,0-1.254,4.307-5.087,5.187-5.843a.23.23,0,0,1,.172-.057,21.647,21.647,0,0,1,4.982,1.216c3.336,1.11,8.135,5.35,8.346,5.527a.23.23,0,0,1,.067.1l3.527,9.092a.215.215,0,0,1,0,.134l-1.67,7.987c-.144.479-3.446,11.275-3.728,11.93-.182.426-.45.522-.641.526Zm-3.465-13.117a.23.23,0,0,1,.115.029.249.249,0,0,1,.124.2c0,.077.383,7.595,1.646,10.212,1.019,2.106,1.493,2.206,1.584,2.2s.172-.148.211-.234c.215-.507,2.517-7.982,3.7-11.863l1.656-7.9-3.484-8.978c-.479-.431-5.044-4.36-8.135-5.393a24.267,24.267,0,0,0-4.762-1.187c-1.948,1.708-4.948,4.628-4.948,5.417,0,1.039,1.335,5.393,2.053,7.733l.258.833a16.75,16.75,0,0,0,3.656,6.035c1.546,1.637,4.307,3.35,4.843,3.35a3.609,3.609,0,0,0,1.369-.435.239.239,0,0,1,.11-.019Z" transform="translate(-276.233 -271.128)" fill="#263238"/>
      <path id="Path_1374" data-name="Path 1374" d="M386.829,319.333a2.87,2.87,0,0,1-.9-.163c-.124-.038-.445-.144-.445-1.991a.244.244,0,0,1,.239-.239.239.239,0,0,1,.239.239,5.561,5.561,0,0,0,.158,1.555c.479.148,1.268.287,1.517-.345a.239.239,0,0,1,.311-.129.235.235,0,0,1,.134.306,1.239,1.239,0,0,1-1.249.766Zm-.7-.579Z" transform="translate(-284.931 -288.634)" fill="#263238"/>
      <path id="Path_1375" data-name="Path 1375" d="M388.412,323.3c-.33,0-.555-.029-.589-.029a.241.241,0,0,1,.062-.479c.029,0,2.627.325,3.47-1.436a.239.239,0,1,1,.431.206A3.575,3.575,0,0,1,388.412,323.3Z" transform="translate(-286.044 -290.868)" fill="#263238"/>
      <path id="Path_1376" data-name="Path 1376" d="M395.49,327.712a30.549,30.549,0,0,0,4.738-4.642s-1.857,4.364-2.417,5.479a16.756,16.756,0,0,0-.833,1.948Z" transform="translate(-290.15 -291.831)" fill="#263238"/>
      <path id="Path_1377" data-name="Path 1377" d="M396.719,330.477a.244.244,0,0,1-.215-.124l-1.483-2.785a.244.244,0,0,1,.062-.3,31.253,31.253,0,0,0,4.695-4.6.239.239,0,0,1,.311-.062.234.234,0,0,1,.1.3c-.077.182-1.866,4.388-2.421,5.494a17.376,17.376,0,0,0-.823,1.914.239.239,0,0,1-.206.163Zm-1.182-2.962,1.139,2.144c.144-.359.364-.876.66-1.479.34-.68,1.182-2.6,1.771-3.977A35.611,35.611,0,0,1,395.537,327.514Z" transform="translate(-289.891 -291.571)" fill="#263238"/>
      <path id="Path_1378" data-name="Path 1378" d="M393.045,307.745a5.352,5.352,0,0,1-1.383-.187.248.248,0,0,1,.134-.479c.024,0,2.35.67,3.259-.737a.244.244,0,0,1,.33-.072.234.234,0,0,1,.072.33A2.728,2.728,0,0,1,393.045,307.745Z" transform="translate(-288.06 -283.052)" fill="#263238"/>
      <path id="Path_1379" data-name="Path 1379" d="M389.412,302.65a.239.239,0,0,1-.12-.445c.12-.067,2.9-1.627,4.929-.957a.234.234,0,0,1,.153.3.244.244,0,0,1-.3.153c-1.828-.613-4.517.89-4.541.909a.274.274,0,0,1-.12.038Z" transform="translate(-286.857 -280.365)" fill="#263238"/>
      <path id="Path_1380" data-name="Path 1380" d="M376.829,310.858a2.479,2.479,0,0,1-1.335-.383.244.244,0,0,1-.053-.335.239.239,0,0,1,.33-.053,2.067,2.067,0,0,0,2.5-.268.238.238,0,1,1,.3.368A2.733,2.733,0,0,1,376.829,310.858Z" transform="translate(-279.673 -284.893)" fill="#263238"/>
      <path id="Path_1381" data-name="Path 1381" d="M373.889,305.642a.234.234,0,0,1-.215-.134.244.244,0,0,1,.105-.321,3.715,3.715,0,0,1,3.675-.077.239.239,0,0,1-.263.4h0a3.269,3.269,0,0,0-3.2.11.281.281,0,0,1-.105.024Z" transform="translate(-278.762 -282.241)" fill="#263238"/>
      <path id="Path_1382" data-name="Path 1382" d="M425.156,345.551a18.265,18.265,0,0,0-.684,6.264c.392,2.546-.191,10.753-.191,11.155s-2.154,1.369-2.058,2.053a18.225,18.225,0,0,0,.479,1.957l-3.134-1.273-4.206,5.58a45.7,45.7,0,0,0,9,6.36c5.676,3.13,9.571,2.153,9.571,2.153s2.249-13.8,2.546-19.965,1.661-14.285-.479-20.056c-1.68-4.513-9.092-5.092-10.763,2.642" transform="translate(-300.512 -298.821)" fill="#f51d46"/>
      <path id="Path_1383" data-name="Path 1383" d="M432.077,379.924A16.856,16.856,0,0,1,424,377.593a46.526,46.526,0,0,1-9.069-6.4.239.239,0,0,1,0-.316l4.206-5.58a.239.239,0,0,1,.282-.077l2.67,1.086a13.6,13.6,0,0,1-.354-1.517c-.077-.541.646-1.053,1.345-1.546a3.67,3.67,0,0,0,.713-.579c0-.029,0-.33.038-.79.129-2.244.479-8.207.153-10.294a18.178,18.178,0,0,1,.694-6.365.239.239,0,0,1,.3-.144.244.244,0,0,1,.163.3,18.462,18.462,0,0,0-.68,6.159c.33,2.134,0,8.135-.148,10.394-.029.445-.043.732-.043.8,0,.273-.3.479-.909.928-.416.292-1.187.837-1.149,1.091a17.039,17.039,0,0,0,.479,1.914.234.234,0,0,1-.316.287l-2.962-1.2-3.967,5.264a47.186,47.186,0,0,0,8.8,6.178c4.9,2.7,8.5,2.292,9.265,2.163.254-1.579,2.244-14.055,2.517-19.774.062-1.335.177-2.747.3-4.24.421-5.264.895-11.251-.77-15.725a4.915,4.915,0,0,0-4.953-3.149c-2.632.191-4.637,2.34-5.369,5.743a.244.244,0,0,1-.479-.1c.78-3.623,2.948-5.91,5.8-6.121a5.384,5.384,0,0,1,5.436,3.446c1.708,4.575,1.225,10.609.8,15.931-.12,1.488-.23,2.9-.292,4.226-.292,6.106-2.527,19.85-2.551,19.989a.225.225,0,0,1-.177.191,7.239,7.239,0,0,1-1.694.158Z" transform="translate(-300.259 -298.556)" fill="#263238"/>
      <path id="Path_1384" data-name="Path 1384" d="M446.459,387.307a.239.239,0,0,1-.22-.148.234.234,0,0,1,.129-.311l.957-.4a.239.239,0,0,1,.311.129.235.235,0,0,1-.129.311l-.957.4a.205.205,0,0,1-.091.019Z" transform="translate(-316.603 -324.871)" fill="#263238"/>
      <path id="Path_1385" data-name="Path 1385" d="M436.125,390.3a.244.244,0,1,1-.091-.479l3.723-1.55a.239.239,0,1,1,.187.44l-3.728,1.551A.2.2,0,0,1,436.125,390.3Z" transform="translate(-311.189 -325.82)" fill="#263238"/>
      <path id="Path_1386" data-name="Path 1386" d="M431.887,398.987a.239.239,0,0,1-.235-.182.234.234,0,0,1,.177-.287c2.871-.723,7.786-1.857,8.312-1.388a.32.32,0,0,1,.1.282c-.11.785-2.168,1.086-3.048,1.182a.239.239,0,0,1-.263-.211.235.235,0,0,1,.211-.263,6.877,6.877,0,0,0,2.527-.651,51.66,51.66,0,0,0-7.724,1.512Z" transform="translate(-309.003 -330.392)" fill="#263238"/>
      <path id="Path_1387" data-name="Path 1387" d="M440.865,404.657a.244.244,0,0,1-.22-.148c-1.01-2.393-6.891-3.077-6.949-3.082a.241.241,0,1,1,.053-.479c.254.029,6.221.732,7.341,3.374a.249.249,0,0,1-.129.316A.311.311,0,0,1,440.865,404.657Z" transform="translate(-309.961 -332.44)" fill="#263238"/>
      <path id="Path_1388" data-name="Path 1388" d="M447.614,413.917h-.057a4.308,4.308,0,0,1-1.206-.536.244.244,0,0,1-.086-.33.234.234,0,0,1,.335-.091,3.75,3.75,0,0,0,1.053.479.24.24,0,0,1-.043.479Z" transform="translate(-316.61 -338.685)" fill="#263238"/>
      <path id="Path_1389" data-name="Path 1389" d="M438.305,407.513a.215.215,0,0,1-.129-.038c-2.364-1.574-5.594-4.235-5.623-4.264a.235.235,0,0,1-.033-.335.239.239,0,0,1,.335-.034c.034.029,3.245,2.675,5.585,4.235a.239.239,0,0,1,.067.33.23.23,0,0,1-.2.105Z" transform="translate(-309.431 -333.4)" fill="#263238"/>
      <path id="Path_1390" data-name="Path 1390" d="M352.089,364.557s-2.206,4.714-1.373,5.489,5.848,5.6,6.326,5.843,1.847,4.417,2.565,6.025,1.134,5.369,2.5,5.905,4.307-2.264,4.355-3.694,0-1.972-1.311-3.828-4.307-7.815-4.307-7.815l-8.178-8.882Z" transform="translate(-266.705 -312.965)" fill="#fff"/>
      <path id="Path_1391" data-name="Path 1391" d="M362.22,387.89a1.342,1.342,0,0,1-.479-.086c-1.038-.407-1.531-2.235-2.005-4a15.309,15.309,0,0,0-.632-2.029c-.249-.565-.574-1.436-.919-2.335a20.3,20.3,0,0,0-1.546-3.58c-.273-.2-2.173-1.914-5.264-4.819-.522-.479-.933-.885-1.125-1.062-.89-.828.785-4.623,1.321-5.743v-.029l.593-.957a.249.249,0,0,1,.182-.11.244.244,0,0,1,.2.077l8.169,8.887a.212.212,0,0,1,.038.053c.029.062,2.991,5.972,4.278,7.786,1.369,1.914,1.436,2.522,1.354,3.967-.043,1.048-1.378,2.6-2.594,3.4A3.221,3.221,0,0,1,362.22,387.89Zm-10.2-23.449c-1.024,2.187-1.857,4.786-1.436,5.2l1.129,1.067c1.551,1.479,4.786,4.556,5.14,4.742s.814,1.306,1.771,3.828c.34.9.66,1.756.9,2.307a15.127,15.127,0,0,1,.66,2.1c.4,1.5.9,3.35,1.718,3.68a2.05,2.05,0,0,0,1.646-.479c1.211-.79,2.345-2.23,2.393-3.02.057-1.378,0-1.857-1.268-3.666s-4.044-7.307-4.307-7.82l-7.939-8.614Z" transform="translate(-266.427 -312.724)" fill="#263238"/>
      <path id="Path_1392" data-name="Path 1392" d="M345.81,353.38l9.246,15.036,7.1.952-6.92-13.663Z" transform="translate(-264.245 -307.636)" fill="#263238"/>
      <path id="Path_1393" data-name="Path 1393" d="M361.927,369.348h-.034l-7.1-.957a.249.249,0,0,1-.172-.11l-9.246-15.036a.235.235,0,0,1,.258-.354l9.427,2.326a.225.225,0,0,1,.153.124L362.138,369a.244.244,0,0,1,0,.249.249.249,0,0,1-.211.1Zm-6.953-1.436,6.532.881-6.661-13.16-8.753-2.158Z" transform="translate(-264 -307.376)" fill="#263238"/>
      <path id="Path_1394" data-name="Path 1394" d="M387.355,378.287s-10.566-7.446-13.309-9.293a38.5,38.5,0,0,1-3.915-2.938,6.939,6.939,0,0,0-.957-2.642,2.735,2.735,0,0,0-2.642-.881,8.724,8.724,0,0,1-3.135,0c-.785-.3-2.249-2.737-2.445-1.661a2.37,2.37,0,0,0,.881,2.642,10.037,10.037,0,0,0,2.742,1.268c.392.191-.622.359-.622.359a10.849,10.849,0,0,1-4.915.536,18.434,18.434,0,0,1-4.762-1.282c-.684-.2-.589.78.2,1.369s1.268.881,1.268.881-2.445-.392-2.149.392,1.369,1.469,2.053,1.957a24.962,24.962,0,0,0,1.957,1.661c.589.292.684,1.665,1.665,2.254s.689.522,3.187.751a44.471,44.471,0,0,0,7.867-.067l12.82,10.275Z" transform="translate(-268.29 -311.401)" fill="#fff"/>
      <path id="Path_1395" data-name="Path 1395" d="M382.915,383.855a.244.244,0,0,1-.148-.053L370.023,373.59a45.416,45.416,0,0,1-7.815.053l-.479-.043c-1.828-.163-1.866-.167-2.594-.613l-.211-.124a3.183,3.183,0,0,1-1.144-1.488,1.762,1.762,0,0,0-.479-.756,5.177,5.177,0,0,1-1.115-.909,9.7,9.7,0,0,0-.876-.775l-.234-.163a5.033,5.033,0,0,1-1.914-1.914.479.479,0,0,1,.067-.5c.225-.278.828-.325,1.378-.306l-.479-.354c-.589-.44-.895-1.134-.689-1.546a.541.541,0,0,1,.7-.244,1.851,1.851,0,0,1,.345.124,16.491,16.491,0,0,0,4.379,1.148,10.886,10.886,0,0,0,4.786-.517h.053l.2-.038-.129-.043a7.6,7.6,0,0,1-2.3-1.12,2.6,2.6,0,0,1-.957-2.871.517.517,0,0,1,.335-.455c.368-.1.747.287,1.388.986a4.365,4.365,0,0,0,1.043.957,5.524,5.524,0,0,0,2.283.053l.747-.067a2.957,2.957,0,0,1,2.838.957,6.545,6.545,0,0,1,1.024,2.68A40.03,40.03,0,0,0,374,368.57c2.713,1.842,13.208,9.226,13.313,9.3a.263.263,0,0,1,.1.163.234.234,0,0,1-.048.177l-4.206,5.58a.22.22,0,0,1-.163.091ZM370.095,373.1a.225.225,0,0,1,.148.053l12.629,10.121,3.91-5.187c-1.479-1.038-10.6-7.456-13.1-9.15a38.8,38.8,0,0,1-3.943-2.957.258.258,0,0,1-.072-.139,6.613,6.613,0,0,0-.924-2.522,2.451,2.451,0,0,0-2.441-.8l-.742.067a5.9,5.9,0,0,1-2.493-.081,4.268,4.268,0,0,1-1.225-1.072,4.863,4.863,0,0,0-.885-.837.5.5,0,0,0,0,.062,2.135,2.135,0,0,0,.794,2.417,7.068,7.068,0,0,0,2.158,1.038,4.767,4.767,0,0,1,.541.206.33.33,0,0,1,.22.349c0,.1-.048.316-.88.45a11.122,11.122,0,0,1-4.982.546,17.27,17.27,0,0,1-4.5-1.177c-.148-.057-.249-.1-.3-.115s-.129-.024-.139,0c-.057.12.053.584.546.957.761.569,1.244.866,1.249.866a.235.235,0,0,1,.1.287.23.23,0,0,1-.258.153,3.634,3.634,0,0,0-1.914.038,4.693,4.693,0,0,0,1.747,1.713l.234.168a9.089,9.089,0,0,1,.928.818,4.965,4.965,0,0,0,1,.828,1.914,1.914,0,0,1,.723.957,2.843,2.843,0,0,0,.957,1.283l.215.129c.632.388.632.388,2.393.546l.479.043a44.856,44.856,0,0,0,7.82-.067Z" transform="translate(-268.057 -311.149)" fill="#263238"/>
      <path id="Path_1396" data-name="Path 1396" d="M365.971,374.373h-5.288a17.042,17.042,0,0,1-2.938-1.2.239.239,0,1,1,.206-.431,18.275,18.275,0,0,0,2.737,1.148h5.264a.244.244,0,0,1,.239.239A.239.239,0,0,1,365.971,374.373Z" transform="translate(-270.389 -317.718)" fill="#263238"/>
      <path id="Path_1397" data-name="Path 1397" d="M363.55,378.949a15.837,15.837,0,0,1-1.847-.072,19.009,19.009,0,0,1-3.35-.828,6.129,6.129,0,0,0-1.565-.378.239.239,0,0,1-.2-.273.244.244,0,0,1,.273-.2,6.424,6.424,0,0,1,1.761.455,20.276,20.276,0,0,0,3.178.751c.66.11,3.029.053,3.053.053a.239.239,0,1,1,0,.479C364.794,378.935,364.215,378.949,363.55,378.949Z" transform="translate(-269.863 -320.054)" fill="#263238"/>
      <path id="Path_1398" data-name="Path 1398" d="M365.588,383.073a3.761,3.761,0,0,1-.613-.034c-.531-.12-3.02-1.335-3.3-1.474a.239.239,0,0,1-.11-.321.244.244,0,0,1,.321-.11,33.929,33.929,0,0,0,3.2,1.436,25.264,25.264,0,0,0,3.254-.12.239.239,0,0,1,.258.22.244.244,0,0,1-.22.258C368.134,382.973,366.545,383.073,365.588,383.073Z" transform="translate(-272.446 -322.097)" fill="#263238"/>
      <path id="Path_1399" data-name="Path 1399" d="M418.257,304.186a101.078,101.078,0,0,1-9.686-12.136s-1.077,15.362,1.268,21.918,10.964,3.828,13.993,2.153,4.111-2.933,5.972-2.642A58.329,58.329,0,0,1,418.257,304.186Z" transform="translate(-296.843 -275.655)" fill="#263238"/>
      <path id="Path_1400" data-name="Path 1400" d="M416,318.082a8.5,8.5,0,0,1-3.024-.479,6.02,6.02,0,0,1-3.627-3.828c-2.335-6.527-1.326-21.386-1.283-22.013a.239.239,0,0,1,.436-.115,101.739,101.739,0,0,0,9.662,12.1A58.555,58.555,0,0,0,429.646,313a.239.239,0,0,1-.158.445c-1.23-.2-2.12.364-3.594,1.287-.627.4-1.34.842-2.225,1.326A17.4,17.4,0,0,1,416,318.082Zm-7.5-25.6c-.172,3.077-.723,15.486,1.3,21.128a5.59,5.59,0,0,0,3.35,3.527c3.283,1.244,7.963-.22,10.308-1.5.876-.479,1.579-.924,2.2-1.311a7.4,7.4,0,0,1,3.01-1.383,59.907,59.907,0,0,1-10.839-8.872A101.128,101.128,0,0,1,408.5,292.5Z" transform="translate(-296.575 -275.391)" fill="#263238"/>
      <path id="Path_1401" data-name="Path 1401" d="M380.813,280.483c-3.417-4.058-1.436.78-1.436.78s6.542,6.245,13.184,6.7C392.547,287.949,384.24,284.541,380.813,280.483Z" transform="translate(-281.451 -268.778)" fill="#263238"/>
      <path id="Path_1402" data-name="Path 1402" d="M392.309,287.926h0c-6.652-.436-13.27-6.7-13.337-6.748a.2.2,0,0,1-.053-.086c-.431-1.053-.837-2.393-.345-2.67.33-.2.828,0,2.211,1.651,3.35,3.962,11.547,7.36,11.629,7.394a.244.244,0,0,1,.144.278A.239.239,0,0,1,392.309,287.926Zm-12.983-7.063c.479.479,5.7,5.2,11.332,6.355-2.589-1.2-7.709-3.828-10.255-6.843-1.072-1.273-1.474-1.493-1.589-1.527A5.579,5.579,0,0,0,379.326,280.863Z" transform="translate(-281.212 -268.517)" fill="#263238"/>
    </g>
  </g>
</svg>
