<svg xmlns="http://www.w3.org/2000/svg" width="21" height="21" viewBox="0 0 21 21">
  <g id="vuesax_outline_clipboard-text" data-name="vuesax/outline/clipboard-text" transform="translate(-108 -252)">
    <g id="vuesax_outline_wallet-minus" data-name="vuesax/outline/wallet-minus" transform="translate(-640 -256)">
      <g id="wallet-minus" transform="translate(748 508)">
        <path id="Vector" d="M5.031,1.313H.656A.661.661,0,0,1,0,.656.661.661,0,0,1,.656,0H5.031a.661.661,0,0,1,.656.656A.661.661,0,0,1,5.031,1.313Z" transform="translate(7.656 13.344)" fill="#868383"/>
        <path id="Vector-2" data-name="Vector" d="M.655,8.059a.687.687,0,0,1-.464-.192.659.659,0,0,1-.14-.717L1.679,3.264a1.887,1.887,0,0,1,.079-.175C3.052.1,4.706-.621,7.629.5A.644.644,0,0,1,8,.857a.661.661,0,0,1,0,.516L5.432,7.324a.663.663,0,0,1-.6.394H2.335a3.614,3.614,0,0,0-1.426.289A.628.628,0,0,1,.655,8.059ZM5.389,1.312c-1.085,0-1.75.709-2.441,2.319-.009.026-.026.052-.035.079L1.766,6.431c.192-.018.376-.026.569-.026H4.391L6.5,1.5A3.664,3.664,0,0,0,5.389,1.312Z" transform="translate(3.895 1.094)" fill="#868383"/>
        <path id="Vector-3" data-name="Vector" d="M7.936,7.43A.729.729,0,0,1,7.743,7.4a3.713,3.713,0,0,0-1.05-.149H.656a.669.669,0,0,1-.551-.3.679.679,0,0,1-.053-.621L2.59.447a.719.719,0,0,1,.84-.42c.105.035.2.079.306.123L5.8,1.016A6.332,6.332,0,0,1,8.338,2.67a2.8,2.8,0,0,1,.271.385,2.342,2.342,0,0,1,.245.516,1.7,1.7,0,0,1,.1.3,4.861,4.861,0,0,1-.4,3.159A.669.669,0,0,1,7.936,7.43ZM1.653,5.942H6.7a5.131,5.131,0,0,1,.823.07,3.117,3.117,0,0,0,.157-1.82c-.017-.079-.035-.114-.044-.149a1.56,1.56,0,0,0-.131-.289A1.85,1.85,0,0,0,7.332,3.5,5.125,5.125,0,0,0,5.3,2.224L3.57,1.5Z" transform="translate(8.068 1.556)" fill="#868383"/>
        <path id="Vector-4" data-name="Vector" d="M12.6,12.408H5.775a6.012,6.012,0,0,1-.7-.044C2,12.154.254,10.4.044,7.3A5.088,5.088,0,0,1,0,6.632V4.926A4.91,4.91,0,0,1,4.926,0h8.54a4.766,4.766,0,0,1,1.426.21,4.965,4.965,0,0,1,3.5,4.716V6.632c0,.193-.009.376-.018.551C18.183,10.605,16.188,12.408,12.6,12.408ZM4.918,1.313A3.6,3.6,0,0,0,1.3,4.926V6.632c0,.184.017.368.035.543.166,2.494,1.391,3.719,3.85,3.885a4.745,4.745,0,0,0,.577.044h6.825c2.887,0,4.3-1.269,4.445-3.981.009-.157.018-.315.018-.49V4.926A3.653,3.653,0,0,0,14.49,1.461a3.713,3.713,0,0,0-1.05-.149Z" transform="translate(1.313 7.499)" fill="#868383"/>
        <path id="Vector-5" data-name="Vector" d="M.656,8.892A.661.661,0,0,1,0,8.236V5.672A5.766,5.766,0,0,1,4.646.011a.682.682,0,0,1,.639.227.655.655,0,0,1,.1.665L3.85,4.561a.7.7,0,0,1-.341.35A3.624,3.624,0,0,0,1.321,8.236.669.669,0,0,1,.656,8.892ZM3.6,1.779A4.467,4.467,0,0,0,1.409,4.8a4.777,4.777,0,0,1,1.339-.971Z" transform="translate(1.304 4.189)" fill="#868383"/>
        <path id="Vector-6" data-name="Vector" d="M3.687,8.405a.661.661,0,0,1-.656-.656A3.653,3.653,0,0,0,.467,4.284a.65.65,0,0,1-.42-.866A3.705,3.705,0,0,0,.4,1.073C.38.994.362.959.354.924A.658.658,0,0,1,.5.18.65.65,0,0,1,1.255.075a5.748,5.748,0,0,1,3.089,5.11V7.749A.661.661,0,0,1,3.687,8.405Zm-2.2-5.127A4.8,4.8,0,0,1,2.944,4.319,4.385,4.385,0,0,0,1.762,2.07,6.494,6.494,0,0,1,1.491,3.278Z" transform="translate(15.353 4.676)" fill="#868383"/>
        <path id="Vector-7" data-name="Vector" d="M0,0H21V21H0Z" fill="none" opacity="0"/>
      </g>
    </g>
  </g>
</svg>
