<svg id="Group_10793" data-name="Group 10793" xmlns="http://www.w3.org/2000/svg" width="12.579" height="21.287" viewBox="0 0 12.579 21.287">
  <path id="Icon_material-phone-iphone" data-name="Icon material-phone-iphone" d="M17.66,1.5H9.919A2.42,2.42,0,0,0,7.5,3.919V20.368a2.42,2.42,0,0,0,2.419,2.419H17.66a2.42,2.42,0,0,0,2.419-2.419V3.919A2.42,2.42,0,0,0,17.66,1.5Zm-3.87,20.32a1.451,1.451,0,1,1,1.451-1.451A1.449,1.449,0,0,1,13.789,21.82Zm4.354-3.87H9.435V4.4h8.708Z" transform="translate(-7.5 -1.5)" fill="#adadad"/>
  <line id="Line_306" data-name="Line 306" x2="6" transform="translate(3.289 1.5)" fill="none" stroke="#fff" stroke-linecap="round" stroke-width="0.5"/>
</svg>
