<svg xmlns="http://www.w3.org/2000/svg" width="287.775" height="287.775" viewBox="0 0 287.775 287.775">
  <g id="Pxora" transform="translate(10.69 -146.414)">
    <g id="Group_10347" data-name="Group 10347" transform="translate(-10.69 146.414)">
      <path id="Path_12887" data-name="Path 12887" d="M84.157,106.33a60.37,60.37,0,0,0-13.321,37.845v126.2a144.2,144.2,0,0,1-61.736-74Z" transform="translate(-0.226 -2.643)" fill="#de2d3f"/>
      <path id="Path_12888" data-name="Path 12888" d="M116.822,65.4l-32.2,38.655c-.244.283-.468.575-.692.858L8.874,194.968l-.02-.019A144.094,144.094,0,0,1,36.2,49.71l34.413,6.7Z" transform="translate(0 -1.236)" fill="#fe3f46"/>
      <path id="Path_12889" data-name="Path 12889" d="M285.046,99.277l-51.917,60.43-17.406-47.353L175.42,2.64A144.008,144.008,0,0,1,285.046,99.277Z" transform="translate(-4.36 -0.066)" fill="#ffaf02"/>
      <path id="Path_12890" data-name="Path 12890" d="M212.285,112.288A60.475,60.475,0,0,0,167.1,73.78L120.017,64.6l-2.272-.439-46.222-9-34.413-6.7A144.037,144.037,0,0,1,171.982,2.574Z" transform="translate(-0.922)" fill="#f6a000"/>
      <path id="Path_12891" data-name="Path 12891" d="M291.324,146.421a143.277,143.277,0,0,1-35.534,94.658L142.76,220.669a60.449,60.449,0,0,0,56.558-20.108l32.989-38.391,51.917-60.43A142.817,142.817,0,0,1,291.324,146.421Z" transform="translate(-3.548 -2.529)" fill="#6ca2a4"/>
      <path id="Path_12892" data-name="Path 12892" d="M255.286,244.017A143.957,143.957,0,0,1,122.13,291.1V219.96l20.127,3.647Z" transform="translate(-3.035 -5.467)" fill="#7fbab8"/>
      <line id="Line_164" data-name="Line 164" x1="46.212" y2="55.476" transform="translate(70.61 64.165)" fill="none"/>
    </g>
  </g>
</svg>
