<svg xmlns="http://www.w3.org/2000/svg" width="21.497" height="21.5" viewBox="0 0 21.497 21.5">
  <g id="Group_10934" data-name="Group 10934" transform="translate(-429.25 -189.25)">
    <path id="Vector" d="M10.25,20.5A10.25,10.25,0,1,1,20.5,10.25,10.264,10.264,0,0,1,10.25,20.5Zm0-19A8.75,8.75,0,1,0,19,10.25,8.76,8.76,0,0,0,10.25,1.5Z" transform="translate(429.25 189.25)" fill="#222"/>
    <path id="Vector-2" data-name="Vector" d="M2.748,3.5a.742.742,0,0,1-.53-.22l-2-2A.75.75,0,0,1,1.278.218l2,2a.754.754,0,0,1,0,1.06A.742.742,0,0,1,2.748,3.5Z" transform="translate(447.252 207.252)" fill="#222"/>
  </g>
</svg>
