<svg id="vuesax_outline_calendar-circle" data-name="vuesax/outline/calendar-circle" xmlns="http://www.w3.org/2000/svg" width="16" height="16" viewBox="0 0 16 16">
  <g id="calendar-circle">
    <path id="Vector" d="M7.152,14.3A7.152,7.152,0,1,1,14.3,7.152,7.158,7.158,0,0,1,7.152,14.3ZM7.152,1a6.154,6.154,0,1,0,6.154,6.154A6.161,6.161,0,0,0,7.152,1Z" transform="translate(0.848 0.848)" fill="#383838"/>
    <path id="Vector-2" data-name="Vector" d="M.509,2.375A.513.513,0,0,1,0,1.866V.509A.513.513,0,0,1,.509,0a.513.513,0,0,1,.509.509V1.866A.508.508,0,0,1,.509,2.375Z" transform="translate(6.086 3.376)" fill="#383838"/>
    <path id="Vector-3" data-name="Vector" d="M.509,2.375A.513.513,0,0,1,0,1.866V.509A.513.513,0,0,1,.509,0a.513.513,0,0,1,.509.509V1.866A.513.513,0,0,1,.509,2.375Z" transform="translate(8.896 3.376)" fill="#383838"/>
    <path id="Vector-4" data-name="Vector" d="M6.583,1.018H.509A.513.513,0,0,1,0,.509.513.513,0,0,1,.509,0H6.583a.509.509,0,1,1,0,1.018Z" transform="translate(4.451 6.253)" fill="#383838"/>
    <path id="Vector-5" data-name="Vector" d="M5.081,8.2H3.114A3.014,3.014,0,0,1,0,5.081V3.114A3.014,3.014,0,0,1,3.114,0H5.081A3.014,3.014,0,0,1,8.2,3.114V5.081A3.014,3.014,0,0,1,5.081,8.2ZM3.114.984A2.018,2.018,0,0,0,.984,3.114V5.081A2.018,2.018,0,0,0,3.114,7.212H5.081A2.018,2.018,0,0,0,7.212,5.081V3.114A2.018,2.018,0,0,0,5.081.984Z" transform="translate(3.902 4.017)" fill="#383838"/>
    <path id="Vector-6" data-name="Vector" d="M0,0H16V16H0Z" fill="none" opacity="0"/>
  </g>
</svg>
