<svg xmlns="http://www.w3.org/2000/svg" width="22" height="22" viewBox="0 0 22 22">
  <g id="vuesax_outline_sms" data-name="vuesax/outline/sms" transform="translate(-556 -252)">
    <g id="sms" transform="translate(556 252)">
      <path id="Vector" d="M14.517,17.2H5.3C1.936,17.2,0,15.245,0,11.852V5.345C0,1.952,1.936,0,5.3,0h9.217c3.364,0,5.3,1.952,5.3,5.345v6.507C19.817,15.245,17.881,17.2,14.517,17.2ZM5.3,1.394c-2.636,0-3.917,1.292-3.917,3.951v6.507c0,2.659,1.281,3.951,3.917,3.951h9.217c2.636,0,3.917-1.292,3.917-3.951V5.345c0-2.659-1.281-3.951-3.917-3.951Z" transform="translate(1.092 2.402)" fill="#555"/>
      <path id="Vector-2" data-name="Vector" d="M5.024,4.04A3.246,3.246,0,0,1,2.98,3.35L.247,1.167A.653.653,0,0,1,1.059.145L3.792,2.328a2.084,2.084,0,0,0,2.454,0L8.98.145A.645.645,0,0,1,9.9.25a.645.645,0,0,1-.1.917L7.058,3.35A3.2,3.2,0,0,1,5.024,4.04Z" transform="translate(5.976 7.643)" fill="#555"/>
      <path id="Vector-3" data-name="Vector" d="M0,0H22V22H0Z" fill="none" opacity="0"/>
    </g>
  </g>
</svg>
