<svg id="vuesax_outline_sms" data-name="vuesax/outline/sms" xmlns="http://www.w3.org/2000/svg" width="14" height="14" viewBox="0 0 14 14">
  <g id="sms">
    <path id="Vector" d="M9.25,10.979H3.377A3.093,3.093,0,0,1,0,7.567V3.413A3.093,3.093,0,0,1,3.377,0H9.25a3.093,3.093,0,0,1,3.377,3.413V7.567A3.093,3.093,0,0,1,9.25,10.979ZM3.377.89a2.206,2.206,0,0,0-2.5,2.522V7.567a2.206,2.206,0,0,0,2.5,2.522H9.25a2.206,2.206,0,0,0,2.5-2.522V3.413A2.206,2.206,0,0,0,9.25.89Z" transform="translate(0.686 1.51)" fill="#292929"/>
    <path id="Vector-2" data-name="Vector" d="M3.159,2.54a2.042,2.042,0,0,1-1.285-.434L.155.734A.41.41,0,1,1,.666.091L2.385,1.464a1.31,1.31,0,0,0,1.543,0L5.647.091a.405.405,0,0,1,.577.066.405.405,0,0,1-.066.577L4.439,2.107A2.015,2.015,0,0,1,3.159,2.54Z" transform="translate(3.84 4.876)" fill="#292929"/>
    <path id="Vector-3" data-name="Vector" d="M0,0H14V14H0Z" fill="none" opacity="0"/>
  </g>
</svg>
