<svg id="upload-svgrepo-com" xmlns="http://www.w3.org/2000/svg" width="90.876" height="84.385" viewBox="0 0 90.876 84.385">
  <g id="Group_9482" data-name="Group 9482" transform="translate(0 0)">
    <path id="Path_3941" data-name="Path 3941" d="M73.908,39.516a24.994,24.994,0,0,0-8.2-14.479,27.125,27.125,0,0,0-32.03-2.59,25.663,25.663,0,0,0-8.54,8.651,15.649,15.649,0,0,0-2.766-.252c-7.942,0-14.408,6.223-14.408,13.867a14.609,14.609,0,0,0,.3,2.878A19.079,19.079,0,0,0,0,63.149,20.2,20.2,0,0,0,5.438,76.8a19.686,19.686,0,0,0,13.455,6.511H35.113a2.43,2.43,0,1,0,0-4.856h-16c-7.643-.45-14.072-7.446-14.072-15.324a14.323,14.323,0,0,1,7.419-12.41,2.4,2.4,0,0,0,1.1-2.95,8.516,8.516,0,0,1-.561-3.094,9.208,9.208,0,0,1,9.362-9.011,9.524,9.524,0,0,1,3.2.54,2.573,2.573,0,0,0,3.158-1.241A21.427,21.427,0,0,1,47.97,23.22C59,23.22,68.1,31.17,69.143,41.71a2.466,2.466,0,0,0,2.093,2.158A17.582,17.582,0,0,1,85.831,61.063,17.775,17.775,0,0,1,69.517,78.437H55.744a2.43,2.43,0,1,0,0,4.856H69.8a22.691,22.691,0,0,0,14.987-7.122,21.937,21.937,0,0,0,6.092-15.108A22.566,22.566,0,0,0,73.908,39.516Z" transform="translate(0 -18.4)" fill="#cacaca"/>
    <path id="Path_3942" data-name="Path 3942" d="M193.091,203.876a2.5,2.5,0,0,0,0-3.73l-15.02-13.965a2.981,2.981,0,0,0-2-.781,2.89,2.89,0,0,0-2,.781l-15.02,13.965a2.5,2.5,0,0,0,0,3.73,2.966,2.966,0,0,0,2,.781,2.875,2.875,0,0,0,2-.781L173.24,194.4v43.534a2.843,2.843,0,0,0,5.672,0V194.4l10.188,9.472A2.953,2.953,0,0,0,193.091,203.876Z" transform="translate(-130.637 -156.19)" fill="#cacaca"/>
  </g>
</svg>
