<svg xmlns="http://www.w3.org/2000/svg" width="22" height="22" viewBox="0 0 22 22">
  <g id="vuesax_outline_frame" data-name="vuesax/outline/frame" transform="translate(-108 -252)">
    <g id="frame" transform="translate(108 252)">
      <path id="Vector" d="M4.9,9.506H4.831a.5.5,0,0,0-.165,0,4.716,4.716,0,1,1,.266,0ZM4.758,1.375a3.379,3.379,0,0,0-.128,6.756,1.513,1.513,0,0,1,.293,0,3.38,3.38,0,0,0-.165-6.756Z" transform="translate(6.242 1.146)" fill="#555"/>
      <path id="Vector-2" data-name="Vector" d="M0,0H22V22H0Z" fill="none" opacity="0"/>
      <path id="Vector-3" data-name="Vector" d="M6.939,9.27A9.055,9.055,0,0,1,1.971,7.895,3.934,3.934,0,0,1,0,4.641,3.974,3.974,0,0,1,1.971,1.368a9.705,9.705,0,0,1,9.937,0,3.955,3.955,0,0,1,1.971,3.254,3.974,3.974,0,0,1-1.971,3.273A9.077,9.077,0,0,1,6.939,9.27ZM2.732,2.523A2.636,2.636,0,0,0,1.375,4.65,2.63,2.63,0,0,0,2.732,6.758a8.284,8.284,0,0,0,8.415,0A2.636,2.636,0,0,0,12.5,4.631a2.63,2.63,0,0,0-1.357-2.108A8.327,8.327,0,0,0,2.732,2.523Z" transform="translate(4.216 11.401)" fill="#555"/>
    </g>
  </g>
</svg>
