<svg xmlns="http://www.w3.org/2000/svg" width="21.257" height="18.524" viewBox="0 0 21.257 18.524">
  <g id="vuesax_outline_video" data-name="vuesax/outline/video" transform="translate(-102.446 -252)">
    <g id="video" transform="translate(102.446 252)">
      <path id="Vector" d="M10.147,14.226H4.486c-3.311,0-4.486-2-4.486-3.862v-6.5C0,1.084,1.259,0,4.486,0h5.661c3.227,0,4.486,1.084,4.486,3.862v6.5C14.632,13.142,13.373,14.226,10.147,14.226ZM4.486,1.22c-2.434,0-3.241.546-3.241,2.641v6.5c0,.987.574,2.79,3.241,2.79h5.661c2.434,0,3.245-.695,3.245-2.79v-6.5c0-2.1-.811-2.641-3.245-2.641Z" transform="translate(0 2.149)"/>
      <path id="Vector-2" data-name="Vector" d="M4.636,10.464a3.187,3.187,0,0,1-1.623-.5L.322,8.366A.622.622,0,0,1,0,7.835V2.63A.622.622,0,0,1,.322,2.1L3.013.5A2.665,2.665,0,0,1,5.5.173,1.932,1.932,0,0,1,6.621,2.091V8.366A1.922,1.922,0,0,1,5.5,10.284,2.012,2.012,0,0,1,4.636,10.464ZM.775,6.973,3.89,8.9a1.17,1.17,0,0,0,.907.231c.141-.06.292-.3.292-.762V2.1c0-.471-.161-.7-.292-.762a1.17,1.17,0,0,0-.907.231L.775,3.434Z" transform="translate(13.996 4.03)"/>
      <path id="Vector-3" data-name="Vector" d="M0,0H18.73V18.524H0Z" transform="translate(2.527)" fill="none" opacity="0"/>
    </g>
  </g>
</svg>
