<svg xmlns="http://www.w3.org/2000/svg" width="15.684" height="13.07" viewBox="0 0 15.684 13.07">
  <g id="Group_10929" data-name="Group 10929" transform="translate(-148.378 -272.93)">
    <path id="Icon_material-perm-media" data-name="Icon material-perm-media" d="M1.307,5.614H0V8.881H.007L0,14.763A1.311,1.311,0,0,0,1.307,16.07H13.07V14.763H1.307Zm13.07-1.307H9.149L7.842,3H3.921a1.305,1.305,0,0,0-1.3,1.307l-.007,7.842a1.311,1.311,0,0,0,1.307,1.307H14.377a1.311,1.311,0,0,0,1.307-1.307V5.614A1.311,1.311,0,0,0,14.377,4.307ZM4.574,11.5,7.515,7.574,9.8,10.522l1.634-1.967L13.723,11.5Z" transform="translate(148.378 269.93)" fill="#00a6a6"/>
  </g>
</svg>
