<svg xmlns="http://www.w3.org/2000/svg" width="31.595" height="29.257" viewBox="0 0 31.595 29.257">
  <g id="Icon_ionic-ios-wallet" data-name="Icon ionic-ios-wallet" transform="translate(0.5 0.514)">
    <path id="Path_12894" data-name="Path 12894" d="M29.558,11.25H7.788a4.416,4.416,0,0,0-4.413,4.413V28.019a4.416,4.416,0,0,0,4.413,4.413h21.77a4.416,4.416,0,0,0,4.413-4.413V15.663A4.416,4.416,0,0,0,29.558,11.25Z" transform="translate(-3.375 -4.189)" fill="#fff" stroke="#18988e" stroke-width="1"/>
    <path id="Path_12895" data-name="Path 12895" d="M25.012,4.574,7.736,7.949C6.412,8.244,4.5,9.575,4.5,11.193A4.634,4.634,0,0,1,8.1,9.8H29.212V8.288a4.223,4.223,0,0,0-1.022-2.765h0A3.478,3.478,0,0,0,25.012,4.574Z" transform="translate(-3.323 -4.499)" fill="#fff" stroke="#18988e" stroke-width="1"/>
  </g>
</svg>
